Hack-Italic-esperanto.ufo
<glyph name="exclam" format="1">
  <advance width="1233"/>
  <unicode hex="0021"/>
  <note>
	exclam
  </note>
  <outline>
    <contour>
      <point x="755" y="486" type="line"/>
      <point x="912" y="1053" type="line"/>
      <point x="982" y="1498" type="line"/>
      <point x="717" y="1498" type="line"/>
      <point x="647" y="1053" type="line"/>
      <point x="634" y="486" type="line"/>
    </contour>
    <contour>
      <point x="706" y="-60"/>
      <point x="759" y="6"/>
      <point x="784" y="62" type="curve" smooth="yes"/>
      <point x="796" y="90"/>
      <point x="802" y="119"/>
      <point x="802" y="148" type="curve" smooth="yes"/>
      <point x="802" y="177"/>
      <point x="793" y="216"/>
      <point x="768" y="244" type="curve" smooth="yes"/>
      <point x="744" y="271"/>
      <point x="707" y="284"/>
      <point x="664" y="284" type="curve" smooth="yes"/>
      <point x="614" y="284"/>
      <point x="570" y="266"/>
      <point x="531" y="229" type="curve" smooth="yes"/>
      <point x="490" y="188"/>
      <point x="470" y="142"/>
      <point x="470" y="89" type="curve" smooth="yes"/>
      <point x="470" y="52"/>
      <point x="480" y="10"/>
      <point x="505" y="-19" type="curve" smooth="yes"/>
      <point x="528" y="-46"/>
      <point x="561" y="-60"/>
      <point x="606" y="-60" type="curve" smooth="yes"/>
    </contour>
  </outline>
</glyph>
<glyph name="dollar" format="1">
  <advance width="1233"/>
  <unicode hex="0024"/>
  <note>
	dollar
  </note>
  <outline>
    <contour>
      <point x="455" y="-301" type="line"/>
      <point x="514" y="2" type="line"/>
      <point x="524" y="2" type="line" smooth="yes"/>
      <point x="812" y="2"/>
      <point x="1014" y="181"/>
      <point x="1014" y="421" type="curve" smooth="yes"/>
      <point x="1014" y="514"/>
      <point x="986" y="583"/>
      <point x="925" y="639" type="curve" smooth="yes"/>
      <point x="866" y="694"/>
      <point x="778" y="733"/>
      <point x="662" y="756" type="curve"/>
      <point x="743" y="1182" type="line"/>
      <point x="801" y="1177"/>
      <point x="856" y="1167"/>
      <point x="909" y="1151" type="curve" smooth="yes"/>
      <point x="954" y="1138"/>
      <point x="1010" y="1112"/>
      <point x="1051" y="1087" type="curve"/>
      <point x="1083" y="1260" type="line"/>
      <point x="1084" y="1259"/>
      <point x="1066" y="1265"/>
      <point x="1029" y="1277" type="curve"/>
      <point x="1007" y="1283" type="line" smooth="yes"/>
      <point x="978" y="1290"/>
      <point x="953" y="1296"/>
      <point x="933" y="1300" type="curve" smooth="yes"/>
      <point x="882" y="1310"/>
      <point x="828" y="1317"/>
      <point x="770" y="1321" type="curve"/>
      <point x="817" y="1556" type="line"/>
      <point x="717" y="1556" type="line"/>
      <point x="669" y="1321" type="line"/>
      <point x="536" y="1317"/>
      <point x="416" y="1276"/>
      <point x="328" y="1200" type="curve" smooth="yes"/>
      <point x="240" y="1124"/>
      <point x="195" y="1024"/>
      <point x="195" y="912" type="curve" smooth="yes"/>
      <point x="195" y="824"/>
      <point x="222" y="763"/>
      <point x="275" y="714" type="curve" smooth="yes"/>
      <point x="331" y="663"/>
      <point x="414" y="630"/>
      <point x="530" y="606" type="curve"/>
      <point x="440" y="141" type="line"/>
      <point x="304" y="146"/>
      <point x="174" y="192"/>
      <point x="66" y="272" type="curve"/>
      <point x="31" y="92" type="line"/>
      <point x="156" y="35"/>
      <point x="292" y="4"/>
      <point x="413" y="0" type="curve"/>
      <point x="354" y="-301" type="line"/>
    </contour>
    <contour>
      <point x="563" y="774" type="line"/>
      <point x="423" y="803"/>
      <point x="373" y="849"/>
      <point x="373" y="941" type="curve" smooth="yes"/>
      <point x="373" y="1028"/>
      <point x="421" y="1103"/>
      <point x="504" y="1147" type="curve" smooth="yes"/>
      <point x="545" y="1169"/>
      <point x="592" y="1181"/>
      <point x="643" y="1184" type="curve"/>
    </contour>
    <contour>
      <point x="629" y="588" type="line"/>
      <point x="772" y="563"/>
      <point x="831" y="514"/>
      <point x="831" y="402" type="curve" smooth="yes"/>
      <point x="831" y="254"/>
      <point x="716" y="145"/>
      <point x="543" y="145" type="curve"/>
    </contour>
  </outline>
</glyph>
<glyph name="ampersand" format="1">
  <advance width="1233"/>
  <unicode hex="0026"/>
  <note>
	ampersand
  </note>
  <outline>
    <contour>
      <point x="479" y="-29"/>
      <point x="547" y="-17"/>
      <point x="614" y="7" type="curve" smooth="yes"/>
      <point x="685" y="31"/>
      <point x="742" y="64"/>
      <point x="809" y="113" type="curve"/>
      <point x="868" y="0" type="line"/>
      <point x="1067" y="0" type="line"/>
      <point x="944" y="221" type="line"/>
      <point x="1087" y="357"/>
      <point x="1167" y="532"/>
      <point x="1190" y="760" type="curve"/>
      <point x="1022" y="760" type="line"/>
      <point x="1014" y="664"/>
      <point x="998" y="576"/>
      <point x="959" y="481" type="curve" smooth="yes"/>
      <point x="939" y="433"/>
      <point x="911" y="389"/>
      <point x="874" y="350" type="curve"/>
      <point x="567" y="907" type="line" smooth="yes"/>
      <point x="519" y="994"/>
      <point x="483" y="1094"/>
      <point x="483" y="1157" type="curve" smooth="yes"/>
      <point x="483" y="1217"/>
      <point x="506" y="1270"/>
      <point x="551" y="1309" type="curve" smooth="yes"/>
      <point x="596" y="1347"/>
      <point x="659" y="1366"/>
      <point x="738" y="1366" type="curve" smooth="yes"/>
      <point x="834" y="1366"/>
      <point x="917" y="1341"/>
      <point x="973" y="1290" type="curve"/>
      <point x="1008" y="1473" type="line"/>
      <point x="928" y="1504"/>
      <point x="846" y="1520"/>
      <point x="761" y="1520" type="curve" smooth="yes"/>
      <point x="626" y="1520"/>
      <point x="512" y="1484"/>
      <point x="432" y="1416" type="curve" smooth="yes"/>
      <point x="351" y="1345"/>
      <point x="309" y="1248"/>
      <point x="309" y="1135" type="curve" smooth="yes"/>
      <point x="309" y="1101"/>
      <point x="314" y="1065"/>
      <point x="324" y="1026" type="curve" smooth="yes"/>
      <point x="336" y="985"/>
      <point x="346" y="960"/>
      <point x="367" y="920" type="curve"/>
      <point x="240" y="849"/>
      <point x="144" y="767"/>
      <point x="79" y="673" type="curve" smooth="yes"/>
      <point x="14" y="578"/>
      <point x="-20" y="470"/>
      <point x="-20" y="362" type="curve" smooth="yes"/>
      <point x="-20" y="242"/>
      <point x="19" y="147"/>
      <point x="96" y="78" type="curve" smooth="yes"/>
      <point x="172" y="7"/>
      <point x="281" y="-29"/>
      <point x="408" y="-29" type="curve" smooth="yes"/>
    </contour>
    <contour>
      <point x="373" y="129"/>
      <point x="299" y="157"/>
      <point x="243" y="209" type="curve" smooth="yes"/>
      <point x="186" y="261"/>
      <point x="158" y="328"/>
      <point x="158" y="411" type="curve" smooth="yes"/>
      <point x="158" y="562"/>
      <point x="252" y="696"/>
      <point x="432" y="795" type="curve"/>
      <point x="741" y="240" type="line"/>
      <point x="653" y="173"/>
      <point x="544" y="129"/>
      <point x="456" y="129" type="curve" smooth="yes"/>
    </contour>
  </outline>
</glyph>
<glyph name="parenleft" format="1">
  <advance width="1233"/>
  <unicode hex="0028"/>
  <note>
	parenleft
  </note>
  <outline>
    <contour>
      <point x="586" y="-270" type="line"/>
      <point x="507" y="-57"/>
      <point x="467" y="152"/>
      <point x="467" y="340" type="curve" smooth="yes"/>
      <point x="467" y="541"/>
      <point x="507" y="744"/>
      <point x="587" y="948" type="curve" smooth="yes"/>
      <point x="667" y="1152"/>
      <point x="782" y="1347"/>
      <point x="942" y="1554" type="curve"/>
      <point x="783" y="1554" type="line"/>
      <point x="444" y="1182"/>
      <point x="273" y="780"/>
      <point x="273" y="381" type="curve" smooth="yes"/>
      <point x="273" y="181"/>
      <point x="322" y="-19"/>
      <point x="426" y="-270" type="curve"/>
    </contour>
  </outline>
</glyph>
<glyph name="parenright" format="1">
  <advance width="1233"/>
  <unicode hex="0029"/>
  <note>
	parenright
  </note>
  <outline>
    <contour>
      <point x="479" y="-270" type="line"/>
      <point x="812" y="98"/>
      <point x="989" y="504"/>
      <point x="989" y="904" type="curve" smooth="yes"/>
      <point x="989" y="1104"/>
      <point x="939" y="1307"/>
      <point x="836" y="1554" type="curve"/>
      <point x="676" y="1554" type="line"/>
      <point x="757" y="1335"/>
      <point x="795" y="1140"/>
      <point x="795" y="940" type="curve" smooth="yes"/>
      <point x="795" y="539"/>
      <point x="637" y="134"/>
      <point x="320" y="-270" type="curve"/>
    </contour>
  </outline>
</glyph>
<glyph name="comma" format="1">
  <advance width="1233"/>
  <unicode hex="002C"/>
  <note>
	comma
  </note>
  <outline>
    <contour>
      <point x="446" y="-387" type="line"/>
      <point x="671" y="-303"/>
      <point x="798" y="-134"/>
      <point x="798" y="93" type="curve" smooth="yes"/>
      <point x="798" y="254"/>
      <point x="734" y="349"/>
      <point x="619" y="349" type="curve" smooth="yes"/>
      <point x="527" y="349"/>
      <point x="458" y="292"/>
      <point x="458" y="197" type="curve" smooth="yes"/>
      <point x="458" y="101"/>
      <point x="521" y="47"/>
      <point x="612" y="47" type="curve" smooth="yes"/>
      <point x="625" y="47"/>
      <point x="638" y="48"/>
      <point x="652" y="51" type="curve"/>
      <point x="647" y="-98"/>
      <point x="563" y="-210"/>
      <point x="400" y="-283" type="curve"/>
    </contour>
  </outline>
</glyph>
<glyph name="period" format="1">
  <advance width="1233"/>
  <unicode hex="002E"/>
  <note>
	period
  </note>
  <outline>
    <contour>
      <point x="673" y="-27"/>
      <point x="725" y="3"/>
      <point x="754" y="55" type="curve" smooth="yes"/>
      <point x="768" y="80"/>
      <point x="775" y="109"/>
      <point x="775" y="142" type="curve" smooth="yes"/>
      <point x="775" y="207"/>
      <point x="744" y="261"/>
      <point x="695" y="290" type="curve" smooth="yes"/>
      <point x="670" y="304"/>
      <point x="643" y="311"/>
      <point x="613" y="311" type="curve" smooth="yes"/>
      <point x="553" y="311"/>
      <point x="501" y="281"/>
      <point x="473" y="230" type="curve" smooth="yes"/>
      <point x="458" y="204"/>
      <point x="451" y="175"/>
      <point x="451" y="142" type="curve" smooth="yes"/>
      <point x="451" y="77"/>
      <point x="482" y="23"/>
      <point x="531" y="-5" type="curve" smooth="yes"/>
      <point x="556" y="-20"/>
      <point x="583" y="-27"/>
      <point x="613" y="-27" type="curve" smooth="yes"/>
    </contour>
  </outline>
</glyph>
<glyph name="slash" format="1">
  <advance width="1233"/>
  <unicode hex="002F"/>
  <note>
	slash
  </note>
  <outline>
    <contour>
      <point x="205" y="-190" type="line"/>
      <point x="1059" y="1493" type="line"/>
      <point x="868" y="1493" type="line"/>
      <point x="16" y="-190" type="line"/>
    </contour>
  </outline>
</glyph>
<glyph name="zero" format="1">
  <advance width="1233"/>
  <unicode hex="0030"/>
  <note>
	zero
  </note>
  <outline>
    <contour>
      <point x="676" y="-29"/>
      <point x="824" y="57"/>
      <point x="936" y="249" type="curve" smooth="yes"/>
      <point x="997" y="352"/>
      <point x="1044" y="471"/>
      <point x="1079" y="608" type="curve" smooth="yes"/>
      <point x="1114" y="741"/>
      <point x="1135" y="895"/>
      <point x="1135" y="1028" type="curve" smooth="yes"/>
      <point x="1135" y="1189"/>
      <point x="1103" y="1311"/>
      <point x="1040" y="1396" type="curve" smooth="yes"/>
      <point x="976" y="1480"/>
      <point x="884" y="1520"/>
      <point x="749" y="1520" type="curve" smooth="yes"/>
      <point x="552" y="1520"/>
      <point x="406" y="1431"/>
      <point x="297" y="1244" type="curve" smooth="yes"/>
      <point x="241" y="1151"/>
      <point x="190" y="1025"/>
      <point x="154" y="885" type="curve" smooth="yes"/>
      <point x="117" y="739"/>
      <point x="98" y="599"/>
      <point x="98" y="464" type="curve" smooth="yes"/>
      <point x="98" y="135"/>
      <point x="223" y="-29"/>
      <point x="480" y="-29" type="curve" smooth="yes"/>
    </contour>
    <contour>
      <point x="437" y="135"/>
      <point x="384" y="160"/>
      <point x="351" y="203" type="curve" smooth="yes"/>
      <point x="315" y="248"/>
      <point x="299" y="314"/>
      <point x="299" y="429" type="curve" smooth="yes"/>
      <point x="299" y="658"/>
      <point x="368" y="975"/>
      <point x="461" y="1158" type="curve" smooth="yes"/>
      <point x="530" y="1293"/>
      <point x="617" y="1356"/>
      <point x="732" y="1356" type="curve" smooth="yes"/>
      <point x="797" y="1356"/>
      <point x="851" y="1334"/>
      <point x="883" y="1287" type="curve" smooth="yes"/>
      <point x="916" y="1239"/>
      <point x="932" y="1168"/>
      <point x="932" y="1057" type="curve" smooth="yes"/>
      <point x="932" y="942"/>
      <point x="917" y="816"/>
      <point x="886" y="681" type="curve" smooth="yes"/>
      <point x="854" y="545"/>
      <point x="813" y="421"/>
      <point x="770" y="334" type="curve" smooth="yes"/>
      <point x="743" y="283"/>
      <point x="706" y="218"/>
      <point x="633" y="171" type="curve" smooth="yes"/>
      <point x="596" y="147"/>
      <point x="553" y="135"/>
      <point x="502" y="135" type="curve" smooth="yes"/>
    </contour>
    <contour>
      <point x="567" y="401"/>
      <point x="584" y="413"/>
      <point x="601" y="438" type="curve" smooth="yes"/>
      <point x="636" y="487"/>
      <point x="664" y="568"/>
      <point x="691" y="651" type="curve" smooth="yes"/>
      <point x="707" y="706"/>
      <point x="723" y="763"/>
      <point x="731" y="823" type="curve" smooth="yes"/>
      <point x="734" y="842"/>
      <point x="737" y="881"/>
      <point x="740" y="941" type="curve"/>
      <point x="740" y="956" type="line" smooth="yes"/>
      <point x="740" y="962"/>
      <point x="740" y="966"/>
      <point x="741" y="969" type="curve"/>
      <point x="741" y="1010"/>
      <point x="737" y="1039"/>
      <point x="729" y="1056" type="curve" smooth="yes"/>
      <point x="720" y="1074"/>
      <point x="709" y="1084"/>
      <point x="697" y="1087" type="curve" smooth="yes"/>
      <point x="690" y="1089" type="line"/>
      <point x="686" y="1089" type="line" smooth="yes"/>
      <point x="672" y="1089"/>
      <point x="656" y="1080"/>
      <point x="639" y="1063" type="curve" smooth="yes"/>
      <point x="587" y="1008"/>
      <point x="548" y="881"/>
      <point x="536" y="829" type="curve" smooth="yes"/>
      <point x="528" y="798" type="line" smooth="yes"/>
      <point x="511" y="723"/>
      <point x="504" y="673"/>
      <point x="499" y="578" type="curve" smooth="yes"/>
      <point x="498" y="551"/>
      <point x="497" y="534"/>
      <point x="497" y="526" type="curve" smooth="yes"/>
      <point x="497" y="454"/>
      <point x="511" y="413"/>
      <point x="538" y="403" type="curve"/>
      <point x="542" y="402"/>
      <point x="546" y="401"/>
      <point x="550" y="401" type="curve" smooth="yes"/>
    </contour>
  </outline>
</glyph>
<glyph name="two" format="1">
  <advance width="1233"/>
  <unicode hex="0032"/>
  <note>
	two
  </note>
  <outline>
    <contour>
      <point x="920" y="0" type="line"/>
      <point x="952" y="170" type="line"/>
      <point x="258" y="170" type="line"/>
      <point x="588" y="444" type="line" smooth="yes"/>
      <point x="624" y="473"/>
      <point x="656" y="501"/>
      <point x="685" y="526" type="curve" smooth="yes"/>
      <point x="723" y="559"/>
      <point x="779" y="609"/>
      <point x="854" y="678" type="curve" smooth="yes"/>
      <point x="925" y="743"/>
      <point x="952" y="772"/>
      <point x="973" y="799" type="curve" smooth="yes"/>
      <point x="1076" y="924"/>
      <point x="1126" y="1044"/>
      <point x="1126" y="1163" type="curve" smooth="yes"/>
      <point x="1126" y="1274"/>
      <point x="1086" y="1363"/>
      <point x="1013" y="1424" type="curve" smooth="yes"/>
      <point x="940" y="1485"/>
      <point x="836" y="1520"/>
      <point x="709" y="1520" type="curve" smooth="yes"/>
      <point x="580" y="1520"/>
      <point x="444" y="1486"/>
      <point x="295" y="1421" type="curve"/>
      <point x="254" y="1217" type="line"/>
      <point x="430" y="1312"/>
      <point x="561" y="1352"/>
      <point x="684" y="1352" type="curve" smooth="yes"/>
      <point x="761" y="1352"/>
      <point x="821" y="1334"/>
      <point x="862" y="1299" type="curve" smooth="yes"/>
      <point x="903" y="1264"/>
      <point x="926" y="1216"/>
      <point x="926" y="1160" type="curve" smooth="yes"/>
      <point x="926" y="1081"/>
      <point x="880" y="991"/>
      <point x="788" y="878" type="curve" smooth="yes"/>
      <point x="703" y="773"/>
      <point x="570" y="640"/>
      <point x="389" y="479" type="curve" smooth="yes"/>
      <point x="350" y="444" type="line"/>
      <point x="65" y="193" type="line" smooth="yes"/>
      <point x="46" y="177"/>
      <point x="37" y="161"/>
      <point x="32" y="136" type="curve" smooth="yes"/>
      <point x="6" y="0" type="line"/>
    </contour>
  </outline>
</glyph>
<glyph name="three" format="1">
  <advance width="1233"/>
  <unicode hex="0033"/>
  <note>
	three
  </note>
  <outline>
    <contour>
      <point x="580" y="-29"/>
      <point x="726" y="18"/>
      <point x="837" y="113" type="curve" smooth="yes"/>
      <point x="948" y="208"/>
      <point x="1004" y="332"/>
      <point x="1004" y="484" type="curve" smooth="yes"/>
      <point x="1004" y="575"/>
      <point x="984" y="640"/>
      <point x="940" y="697" type="curve" smooth="yes"/>
      <point x="897" y="752"/>
      <point x="838" y="786"/>
      <point x="762" y="799" type="curve"/>
      <point x="977" y="843"/>
      <point x="1102" y="988"/>
      <point x="1102" y="1187" type="curve" smooth="yes"/>
      <point x="1102" y="1398"/>
      <point x="952" y="1520"/>
      <point x="697" y="1520" type="curve" smooth="yes"/>
      <point x="639" y="1520"/>
      <point x="579" y="1515"/>
      <point x="517" y="1505" type="curve"/>
      <point x="508" y="1504"/>
      <point x="482" y="1499"/>
      <point x="438" y="1490" type="curve" smooth="yes"/>
      <point x="414" y="1485" type="line"/>
      <point x="406" y="1483"/>
      <point x="382" y="1477"/>
      <point x="343" y="1467" type="curve" smooth="yes"/>
      <point x="297" y="1456" type="line"/>
      <point x="260" y="1270" type="line"/>
      <point x="343" y="1299"/>
      <point x="399" y="1315"/>
      <point x="470" y="1330" type="curve" smooth="yes"/>
      <point x="537" y="1343"/>
      <point x="597" y="1350"/>
      <point x="650" y="1350" type="curve" smooth="yes"/>
      <point x="819" y="1350"/>
      <point x="901" y="1290"/>
      <point x="901" y="1157" type="curve" smooth="yes"/>
      <point x="901" y="1071"/>
      <point x="870" y="1004"/>
      <point x="808" y="955" type="curve" smooth="yes"/>
      <point x="745" y="906"/>
      <point x="658" y="881"/>
      <point x="557" y="881" type="curve" smooth="yes"/>
      <point x="403" y="881" type="line"/>
      <point x="371" y="715" type="line"/>
      <point x="524" y="715" type="line" smooth="yes"/>
      <point x="711" y="715"/>
      <point x="805" y="632"/>
      <point x="805" y="475" type="curve" smooth="yes"/>
      <point x="805" y="280"/>
      <point x="642" y="141"/>
      <point x="398" y="141" type="curve" smooth="yes"/>
      <point x="265" y="141"/>
      <point x="133" y="181"/>
      <point x="20" y="246" type="curve"/>
      <point x="-18" y="45" type="line"/>
      <point x="50" y="18"/>
      <point x="106" y="3"/>
      <point x="179" y="-10" type="curve" smooth="yes"/>
      <point x="251" y="-23"/>
      <point x="319" y="-29"/>
      <point x="383" y="-29" type="curve" smooth="yes"/>
    </contour>
  </outline>
</glyph>
<glyph name="five" format="1">
  <advance width="1233"/>
  <unicode hex="0035"/>
  <note>
	five
  </note>
  <outline>
    <contour>
      <point x="565" y="-29"/>
      <point x="709" y="23"/>
      <point x="829" y="131" type="curve" smooth="yes"/>
      <point x="957" y="246"/>
      <point x="1030" y="409"/>
      <point x="1030" y="574" type="curve" smooth="yes"/>
      <point x="1030" y="698"/>
      <point x="991" y="802"/>
      <point x="915" y="875" type="curve" smooth="yes"/>
      <point x="839" y="950"/>
      <point x="738" y="987"/>
      <point x="612" y="987" type="curve" smooth="yes"/>
      <point x="549" y="987"/>
      <point x="495" y="979"/>
      <point x="432" y="956" type="curve"/>
      <point x="504" y="1323" type="line"/>
      <point x="1075" y="1323" type="line"/>
      <point x="1108" y="1493" type="line"/>
      <point x="352" y="1493" type="line"/>
      <point x="207" y="743" type="line"/>
      <point x="318" y="798"/>
      <point x="426" y="821"/>
      <point x="525" y="821" type="curve" smooth="yes"/>
      <point x="717" y="821"/>
      <point x="829" y="718"/>
      <point x="829" y="545" type="curve" smooth="yes"/>
      <point x="829" y="432"/>
      <point x="783" y="328"/>
      <point x="708" y="255" type="curve" smooth="yes"/>
      <point x="628" y="179"/>
      <point x="520" y="139"/>
      <point x="395" y="139" type="curve" smooth="yes"/>
      <point x="275" y="139"/>
      <point x="157" y="172"/>
      <point x="45" y="240" type="curve"/>
      <point x="4" y="35" type="line"/>
      <point x="100" y="-8"/>
      <point x="227" y="-29"/>
      <point x="366" y="-29" type="curve" smooth="yes"/>
    </contour>
  </outline>
</glyph>
<glyph name="six" format="1">
  <advance width="1233"/>
  <unicode hex="0036"/>
  <note>
	six
  </note>
  <outline>
    <contour>
      <point x="682" y="-29"/>
      <point x="814" y="35"/>
      <point x="915" y="164" type="curve" smooth="yes"/>
      <point x="1010" y="284"/>
      <point x="1063" y="447"/>
      <point x="1063" y="603" type="curve" smooth="yes"/>
      <point x="1063" y="728"/>
      <point x="1031" y="823"/>
      <point x="967" y="888" type="curve" smooth="yes"/>
      <point x="906" y="952"/>
      <point x="812" y="987"/>
      <point x="696" y="987" type="curve" smooth="yes"/>
      <point x="616" y="987"/>
      <point x="550" y="970"/>
      <point x="486" y="935" type="curve" smooth="yes"/>
      <point x="422" y="900"/>
      <point x="372" y="852"/>
      <point x="324" y="780" type="curve"/>
      <point x="361" y="969"/>
      <point x="421" y="1111"/>
      <point x="505" y="1207" type="curve" smooth="yes"/>
      <point x="589" y="1303"/>
      <point x="693" y="1350"/>
      <point x="825" y="1350" type="curve" smooth="yes"/>
      <point x="925" y="1350"/>
      <point x="1015" y="1323"/>
      <point x="1092" y="1274" type="curve"/>
      <point x="1128" y="1460" type="line"/>
      <point x="1035" y="1501"/>
      <point x="962" y="1520"/>
      <point x="846" y="1520" type="curve" smooth="yes"/>
      <point x="573" y="1520"/>
      <point x="370" y="1378"/>
      <point x="238" y="1091" type="curve" smooth="yes"/>
      <point x="195" y="999"/>
      <point x="156" y="881"/>
      <point x="131" y="765" type="curve" smooth="yes"/>
      <point x="106" y="649"/>
      <point x="92" y="529"/>
      <point x="92" y="433" type="curve" smooth="yes"/>
      <point x="92" y="279"/>
      <point x="129" y="164"/>
      <point x="202" y="87" type="curve" smooth="yes"/>
      <point x="277" y="10"/>
      <point x="387" y="-29"/>
      <point x="515" y="-29" type="curve" smooth="yes"/>
    </contour>
    <contour>
      <point x="456" y="129"/>
      <point x="394" y="153"/>
      <point x="353" y="198" type="curve" smooth="yes"/>
      <point x="313" y="243"/>
      <point x="293" y="309"/>
      <point x="293" y="394" type="curve" smooth="yes"/>
      <point x="293" y="509"/>
      <point x="327" y="620"/>
      <point x="391" y="703" type="curve" smooth="yes"/>
      <point x="455" y="784"/>
      <point x="540" y="829"/>
      <point x="639" y="829" type="curve" smooth="yes"/>
      <point x="706" y="829"/>
      <point x="763" y="809"/>
      <point x="802" y="769" type="curve" smooth="yes"/>
      <point x="842" y="726"/>
      <point x="860" y="667"/>
      <point x="860" y="583" type="curve" smooth="yes"/>
      <point x="860" y="464"/>
      <point x="827" y="350"/>
      <point x="764" y="263" type="curve" smooth="yes"/>
      <point x="699" y="174"/>
      <point x="613" y="129"/>
      <point x="521" y="129" type="curve" smooth="yes"/>
    </contour>
  </outline>
</glyph>
<glyph name="eight" format="1">
  <advance width="1233"/>
  <unicode hex="0038"/>
  <note>
	eight
  </note>
  <outline>
    <contour>
      <point x="643" y="-29"/>
      <point x="778" y="19"/>
      <point x="875" y="107" type="curve" smooth="yes"/>
      <point x="974" y="195"/>
      <point x="1026" y="318"/>
      <point x="1026" y="455" type="curve" smooth="yes"/>
      <point x="1026" y="630"/>
      <point x="939" y="742"/>
      <point x="772" y="782" type="curve"/>
      <point x="873" y="806"/>
      <point x="965" y="863"/>
      <point x="1029" y="936" type="curve" smooth="yes"/>
      <point x="1092" y="1008"/>
      <point x="1126" y="1098"/>
      <point x="1126" y="1191" type="curve" smooth="yes"/>
      <point x="1126" y="1291"/>
      <point x="1086" y="1373"/>
      <point x="1015" y="1430" type="curve" smooth="yes"/>
      <point x="943" y="1490"/>
      <point x="843" y="1520"/>
      <point x="726" y="1520" type="curve" smooth="yes"/>
      <point x="589" y="1520"/>
      <point x="461" y="1477"/>
      <point x="362" y="1393" type="curve" smooth="yes"/>
      <point x="267" y="1312"/>
      <point x="215" y="1201"/>
      <point x="215" y="1081" type="curve" smooth="yes"/>
      <point x="215" y="940"/>
      <point x="287" y="844"/>
      <point x="430" y="793" type="curve"/>
      <point x="309" y="769"/>
      <point x="213" y="714"/>
      <point x="146" y="639" type="curve" smooth="yes"/>
      <point x="79" y="564"/>
      <point x="41" y="467"/>
      <point x="41" y="354" type="curve" smooth="yes"/>
      <point x="41" y="233"/>
      <point x="84" y="138"/>
      <point x="159" y="73" type="curve" smooth="yes"/>
      <point x="239" y="5"/>
      <point x="347" y="-29"/>
      <point x="483" y="-29" type="curve" smooth="yes"/>
    </contour>
    <contour>
      <point x="498" y="866"/>
      <point x="416" y="946"/>
      <point x="416" y="1081" type="curve" smooth="yes"/>
      <point x="416" y="1244"/>
      <point x="535" y="1364"/>
      <point x="706" y="1364" type="curve" smooth="yes"/>
      <point x="773" y="1364"/>
      <point x="826" y="1346"/>
      <point x="866" y="1310" type="curve" smooth="yes"/>
      <point x="907" y="1274"/>
      <point x="926" y="1227"/>
      <point x="926" y="1162" type="curve" smooth="yes"/>
      <point x="926" y="1002"/>
      <point x="799" y="866"/>
      <point x="634" y="866" type="curve" smooth="yes"/>
    </contour>
    <contour>
      <point x="415" y="127"/>
      <point x="358" y="147"/>
      <point x="313" y="190" type="curve" smooth="yes"/>
      <point x="268" y="234"/>
      <point x="246" y="285"/>
      <point x="246" y="364" type="curve" smooth="yes"/>
      <point x="246" y="460"/>
      <point x="277" y="544"/>
      <point x="338" y="611" type="curve" smooth="yes"/>
      <point x="398" y="676"/>
      <point x="476" y="709"/>
      <point x="572" y="709" type="curve" smooth="yes"/>
      <point x="650" y="709"/>
      <point x="711" y="687"/>
      <point x="755" y="643" type="curve" smooth="yes"/>
      <point x="799" y="599"/>
      <point x="821" y="541"/>
      <point x="821" y="458" type="curve" smooth="yes"/>
      <point x="821" y="360"/>
      <point x="791" y="280"/>
      <point x="731" y="219" type="curve" smooth="yes"/>
      <point x="671" y="159"/>
      <point x="590" y="127"/>
      <point x="494" y="127" type="curve" smooth="yes"/>
    </contour>
  </outline>
</glyph>
<glyph name="nine" format="1">
  <advance width="1233"/>
  <unicode hex="0039"/>
  <note>
	nine
  </note>
  <outline>
    <contour>
      <point x="481" y="-29"/>
      <point x="601" y="7"/>
      <point x="703" y="79" type="curve" smooth="yes"/>
      <point x="804" y="151"/>
      <point x="886" y="254"/>
      <point x="954" y="401" type="curve" smooth="yes"/>
      <point x="999" y="499"/>
      <point x="1034" y="607"/>
      <point x="1061" y="726" type="curve" smooth="yes"/>
      <point x="1086" y="841"/>
      <point x="1100" y="962"/>
      <point x="1100" y="1059" type="curve" smooth="yes"/>
      <point x="1100" y="1211"/>
      <point x="1063" y="1326"/>
      <point x="990" y="1403" type="curve" smooth="yes"/>
      <point x="918" y="1479"/>
      <point x="811" y="1520"/>
      <point x="676" y="1520" type="curve" smooth="yes"/>
      <point x="509" y="1520"/>
      <point x="378" y="1456"/>
      <point x="274" y="1327" type="curve" smooth="yes"/>
      <point x="187" y="1220"/>
      <point x="127" y="1046"/>
      <point x="127" y="889" type="curve" smooth="yes"/>
      <point x="127" y="642"/>
      <point x="265" y="504"/>
      <point x="492" y="504" type="curve" smooth="yes"/>
      <point x="572" y="504"/>
      <point x="640" y="520"/>
      <point x="705" y="557" type="curve" smooth="yes"/>
      <point x="766" y="591"/>
      <point x="820" y="642"/>
      <point x="866" y="711" type="curve"/>
      <point x="791" y="331"/>
      <point x="624" y="141"/>
      <point x="366" y="141" type="curve" smooth="yes"/>
      <point x="271" y="141"/>
      <point x="173" y="169"/>
      <point x="98" y="217" type="curve"/>
      <point x="63" y="31" type="line"/>
      <point x="144" y="-9"/>
      <point x="243" y="-29"/>
      <point x="343" y="-29" type="curve" smooth="yes"/>
    </contour>
    <contour>
      <point x="484" y="662"/>
      <point x="427" y="682"/>
      <point x="388" y="722" type="curve" smooth="yes"/>
      <point x="349" y="761"/>
      <point x="330" y="823"/>
      <point x="330" y="907" type="curve" smooth="yes"/>
      <point x="330" y="1026"/>
      <point x="366" y="1143"/>
      <point x="427" y="1228" type="curve" smooth="yes"/>
      <point x="490" y="1315"/>
      <point x="575" y="1362"/>
      <point x="671" y="1362" type="curve" smooth="yes"/>
      <point x="739" y="1362"/>
      <point x="798" y="1338"/>
      <point x="837" y="1295" type="curve" smooth="yes"/>
      <point x="877" y="1251"/>
      <point x="897" y="1185"/>
      <point x="897" y="1097" type="curve" smooth="yes"/>
      <point x="897" y="978"/>
      <point x="862" y="868"/>
      <point x="799" y="788" type="curve" smooth="yes"/>
      <point x="735" y="707"/>
      <point x="650" y="662"/>
      <point x="551" y="662" type="curve" smooth="yes"/>
    </contour>
  </outline>
</glyph>
<glyph name="colon" format="1">
  <advance width="1233"/>
  <unicode hex="003A"/>
  <note>
	colon
  </note>
  <outline>
    <contour>
      <point x="775" y="776"/>
      <point x="825" y="794"/>
      <point x="864" y="830" type="curve" smooth="yes"/>
      <point x="905" y="867"/>
      <point x="925" y="920"/>
      <point x="925" y="973" type="curve" smooth="yes"/>
      <point x="925" y="1056"/>
      <point x="871" y="1114"/>
      <point x="790" y="1114" type="curve" smooth="yes"/>
      <point x="741" y="1114"/>
      <point x="696" y="1096"/>
      <point x="657" y="1060" type="curve" smooth="yes"/>
      <point x="616" y="1023"/>
      <point x="595" y="975"/>
      <point x="595" y="923" type="curve" smooth="yes"/>
      <point x="595" y="835"/>
      <point x="649" y="776"/>
      <point x="728" y="776" type="curve" smooth="yes"/>
    </contour>
    <contour>
      <point x="666" y="60"/>
      <point x="713" y="79"/>
      <point x="750" y="114" type="curve" smooth="yes"/>
      <point x="791" y="152"/>
      <point x="812" y="199"/>
      <point x="812" y="254" type="curve" smooth="yes"/>
      <point x="812" y="341"/>
      <point x="762" y="398"/>
      <point x="677" y="398" type="curve" smooth="yes"/>
      <point x="628" y="398"/>
      <point x="580" y="378"/>
      <point x="544" y="345" type="curve" smooth="yes"/>
      <point x="503" y="308"/>
      <point x="482" y="256"/>
      <point x="482" y="203" type="curve" smooth="yes"/>
      <point x="482" y="119"/>
      <point x="530" y="60"/>
      <point x="617" y="60" type="curve" smooth="yes"/>
    </contour>
  </outline>
</glyph>
<glyph name="semicolon" format="1">
  <advance width="1233"/>
  <unicode hex="003B"/>
  <note>
	semicolon
  </note>
  <outline>
    <contour>
      <point x="820" y="713"/>
      <point x="903" y="787"/>
      <point x="923" y="892" type="curve" smooth="yes"/>
      <point x="925" y="904"/>
      <point x="926" y="915"/>
      <point x="926" y="926" type="curve" smooth="yes"/>
      <point x="926" y="1002"/>
      <point x="883" y="1039"/>
      <point x="844" y="1056" type="curve" smooth="yes"/>
      <point x="824" y="1064"/>
      <point x="802" y="1068"/>
      <point x="779" y="1068" type="curve" smooth="yes"/>
      <point x="732" y="1068"/>
      <point x="687" y="1050"/>
      <point x="652" y="1019" type="curve" smooth="yes"/>
      <point x="615" y="988"/>
      <point x="592" y="946"/>
      <point x="583" y="892" type="curve"/>
      <point x="580" y="881"/>
      <point x="579" y="869"/>
      <point x="579" y="856" type="curve" smooth="yes"/>
      <point x="579" y="805"/>
      <point x="601" y="760"/>
      <point x="645" y="733" type="curve" smooth="yes"/>
      <point x="666" y="720"/>
      <point x="692" y="713"/>
      <point x="723" y="713" type="curve" smooth="yes"/>
    </contour>
    <contour>
      <point x="371" y="-460" type="line"/>
      <point x="490" y="-420"/>
      <point x="598" y="-350"/>
      <point x="674" y="-267" type="curve" smooth="yes"/>
      <point x="753" y="-181"/>
      <point x="801" y="-77"/>
      <point x="820" y="44" type="curve" smooth="yes"/>
      <point x="825" y="77"/>
      <point x="827" y="106"/>
      <point x="827" y="132" type="curve" smooth="yes"/>
      <point x="827" y="171"/>
      <point x="818" y="212"/>
      <point x="802" y="241" type="curve" smooth="yes"/>
      <point x="776" y="288"/>
      <point x="733" y="312"/>
      <point x="672" y="312" type="curve" smooth="yes"/>
      <point x="577" y="312"/>
      <point x="496" y="250"/>
      <point x="480" y="153" type="curve"/>
      <point x="479" y="141"/>
      <point x="478" y="133"/>
      <point x="478" y="129" type="curve" smooth="yes"/>
      <point x="478" y="120" type="line" smooth="yes"/>
      <point x="478" y="49"/>
      <point x="526" y="-5"/>
      <point x="617" y="-5" type="curve" smooth="yes"/>
      <point x="629" y="-5"/>
      <point x="643" y="-3"/>
      <point x="659" y="0" type="curve"/>
      <point x="629" y="-158"/>
      <point x="522" y="-275"/>
      <point x="339" y="-351" type="curve"/>
    </contour>
  </outline>
</glyph>
<glyph name="question" format="1">
  <advance width="1233"/>
  <unicode hex="003F"/>
  <note>
	question
  </note>
  <outline>
    <contour>
      <point x="719" y="472" type="line"/>
      <point x="731" y="552" type="line"/>
      <point x="739" y="599" type="line" smooth="yes"/>
      <point x="743" y="626"/>
      <point x="756" y="659"/>
      <point x="771" y="682" type="curve" smooth="yes"/>
      <point x="788" y="710"/>
      <point x="823" y="746"/>
      <point x="876" y="790" type="curve" smooth="yes"/>
      <point x="978" y="876" type="line" smooth="yes"/>
      <point x="1121" y="999"/>
      <point x="1171" y="1076"/>
      <point x="1186" y="1175" type="curve" smooth="yes"/>
      <point x="1190" y="1203"/>
      <point x="1192" y="1228"/>
      <point x="1192" y="1250" type="curve" smooth="yes"/>
      <point x="1192" y="1318"/>
      <point x="1164" y="1384"/>
      <point x="1116" y="1432" type="curve" smooth="yes"/>
      <point x="1052" y="1496"/>
      <point x="958" y="1528"/>
      <point x="833" y="1528" type="curve" smooth="yes"/>
      <point x="697" y="1528"/>
      <point x="565" y="1491"/>
      <point x="428" y="1415" type="curve"/>
      <point x="398" y="1227" type="line"/>
      <point x="437" y="1251"/>
      <point x="472" y="1271"/>
      <point x="504" y="1287" type="curve" smooth="yes"/>
      <point x="602" y="1338"/>
      <point x="692" y="1364"/>
      <point x="775" y="1364" type="curve" smooth="yes"/>
      <point x="919" y="1364"/>
      <point x="986" y="1288"/>
      <point x="986" y="1199" type="curve" smooth="yes"/>
      <point x="986" y="1188"/>
      <point x="985" y="1177"/>
      <point x="983" y="1165" type="curve" smooth="yes"/>
      <point x="974" y="1101"/>
      <point x="938" y="1050"/>
      <point x="842" y="969" type="curve" smooth="yes"/>
      <point x="738" y="880" type="line" smooth="yes"/>
      <point x="667" y="820"/>
      <point x="627" y="777"/>
      <point x="599" y="729" type="curve" smooth="yes"/>
      <point x="572" y="684"/>
      <point x="554" y="635"/>
      <point x="546" y="583" type="curve" smooth="yes"/>
      <point x="529" y="472" type="line"/>
    </contour>
    <contour>
      <point x="587" y="-40"/>
      <point x="631" y="-20"/>
      <point x="664" y="9" type="curve"/>
      <point x="700" y="44"/>
      <point x="718" y="87"/>
      <point x="718" y="134" type="curve" smooth="yes"/>
      <point x="718" y="172"/>
      <point x="708" y="203"/>
      <point x="687" y="227" type="curve" smooth="yes"/>
      <point x="664" y="252"/>
      <point x="629" y="264"/>
      <point x="596" y="264" type="curve" smooth="yes"/>
      <point x="553" y="264"/>
      <point x="509" y="245"/>
      <point x="476" y="216" type="curve" smooth="yes"/>
      <point x="439" y="183"/>
      <point x="421" y="142"/>
      <point x="421" y="93" type="curve" smooth="yes"/>
      <point x="421" y="16"/>
      <point x="469" y="-40"/>
      <point x="542" y="-40" type="curve" smooth="yes"/>
    </contour>
  </outline>
</glyph>
<glyph name="at" format="1">
  <advance width="1233"/>
  <unicode hex="0040"/>
  <note>
	at
  </note>
  <outline>
    <contour>
      <point x="716" y="-317"/>
      <point x="813" y="-296"/>
      <point x="897" y="-256" type="curve"/>
      <point x="852" y="-125" type="line"/>
      <point x="775" y="-154"/>
      <point x="692" y="-176"/>
      <point x="603" y="-176" type="curve" smooth="yes"/>
      <point x="459" y="-176"/>
      <point x="337" y="-125"/>
      <point x="253" y="-29" type="curve" smooth="yes"/>
      <point x="168" y="68"/>
      <point x="125" y="204"/>
      <point x="125" y="377" type="curve" smooth="yes"/>
      <point x="125" y="480"/>
      <point x="140" y="581"/>
      <point x="169" y="682" type="curve" smooth="yes"/>
      <point x="232" y="885"/>
      <point x="347" y="1069"/>
      <point x="524" y="1177" type="curve" smooth="yes"/>
      <point x="613" y="1229"/>
      <point x="703" y="1255"/>
      <point x="796" y="1255" type="curve" smooth="yes"/>
      <point x="971" y="1255"/>
      <point x="1073" y="1156"/>
      <point x="1073" y="993" type="curve" smooth="yes"/>
      <point x="1073" y="974"/>
      <point x="1072" y="959"/>
      <point x="1070" y="948" type="curve"/>
      <point x="1069" y="941"/>
      <point x="1067" y="930"/>
      <point x="1066" y="917" type="curve"/>
      <point x="1061" y="887" type="line"/>
      <point x="1053" y="844" type="line"/>
      <point x="1016" y="925"/>
      <point x="922" y="977"/>
      <point x="810" y="977" type="curve" smooth="yes"/>
      <point x="689" y="977"/>
      <point x="584" y="925"/>
      <point x="497" y="821" type="curve" smooth="yes"/>
      <point x="410" y="717"/>
      <point x="365" y="590"/>
      <point x="365" y="451" type="curve" smooth="yes"/>
      <point x="365" y="344"/>
      <point x="392" y="268"/>
      <point x="448" y="207" type="curve" smooth="yes"/>
      <point x="504" y="146"/>
      <point x="575" y="115"/>
      <point x="662" y="115" type="curve" smooth="yes"/>
      <point x="773" y="115"/>
      <point x="867" y="162"/>
      <point x="936" y="246" type="curve"/>
      <point x="915" y="135" type="line"/>
      <point x="1059" y="135" type="line"/>
      <point x="1196" y="858" type="line"/>
      <point x="1207" y="905"/>
      <point x="1214" y="964"/>
      <point x="1214" y="1015" type="curve" smooth="yes"/>
      <point x="1214" y="1247"/>
      <point x="1055" y="1397"/>
      <point x="800" y="1397" type="curve" smooth="yes"/>
      <point x="587" y="1397"/>
      <point x="387" y="1300"/>
      <point x="238" y="1125" type="curve" smooth="yes"/>
      <point x="157" y="1030"/>
      <point x="90" y="910"/>
      <point x="43" y="781" type="curve" smooth="yes"/>
      <point x="-5" y="647"/>
      <point x="-29" y="513"/>
      <point x="-29" y="379" type="curve" smooth="yes"/>
      <point x="-29" y="172"/>
      <point x="29" y="-4"/>
      <point x="144" y="-129" type="curve" smooth="yes"/>
      <point x="253" y="-249"/>
      <point x="411" y="-317"/>
      <point x="607" y="-317" type="curve" smooth="yes"/>
    </contour>
    <contour>
      <point x="594" y="260"/>
      <point x="524" y="337"/>
      <point x="524" y="474" type="curve" smooth="yes"/>
      <point x="524" y="567"/>
      <point x="554" y="658"/>
      <point x="610" y="726" type="curve" smooth="yes"/>
      <point x="666" y="794"/>
      <point x="740" y="829"/>
      <point x="820" y="829" type="curve" smooth="yes"/>
      <point x="939" y="829"/>
      <point x="1008" y="751"/>
      <point x="1008" y="618" type="curve" smooth="yes"/>
      <point x="1008" y="522"/>
      <point x="975" y="433"/>
      <point x="922" y="366" type="curve" smooth="yes"/>
      <point x="866" y="298"/>
      <point x="793" y="260"/>
      <point x="710" y="260" type="curve" smooth="yes"/>
    </contour>
  </outline>
</glyph>
<glyph name="B" format="1">
  <advance width="1233"/>
  <unicode hex="0042"/>
  <note>
	B
  </note>
  <outline>
    <contour>
      <point x="475" y="0" type="line" smooth="yes"/>
      <point x="670" y="0"/>
      <point x="821" y="43"/>
      <point x="926" y="130" type="curve" smooth="yes"/>
      <point x="1031" y="217"/>
      <point x="1085" y="339"/>
      <point x="1085" y="486" type="curve" smooth="yes"/>
      <point x="1085" y="578"/>
      <point x="1064" y="644"/>
      <point x="1019" y="697" type="curve" smooth="yes"/>
      <point x="974" y="750"/>
      <point x="910" y="784"/>
      <point x="827" y="799" type="curve"/>
      <point x="964" y="815"/>
      <point x="1070" y="888"/>
      <point x="1126" y="997" type="curve" smooth="yes"/>
      <point x="1153" y="1051"/>
      <point x="1167" y="1111"/>
      <point x="1167" y="1178" type="curve" smooth="yes"/>
      <point x="1167" y="1285"/>
      <point x="1132" y="1361"/>
      <point x="1063" y="1414" type="curve" smooth="yes"/>
      <point x="994" y="1467"/>
      <point x="892" y="1493"/>
      <point x="756" y="1493" type="curve" smooth="yes"/>
      <point x="313" y="1493" type="line"/>
      <point x="23" y="0" type="line"/>
    </contour>
    <contour>
      <point x="483" y="1327" type="line"/>
      <point x="727" y="1327" type="line" smooth="yes"/>
      <point x="894" y="1327"/>
      <point x="963" y="1275"/>
      <point x="963" y="1148" type="curve" smooth="yes"/>
      <point x="963" y="1036"/>
      <point x="910" y="953"/>
      <point x="813" y="910" type="curve" smooth="yes"/>
      <point x="764" y="888"/>
      <point x="706" y="877"/>
      <point x="639" y="877" type="curve" smooth="yes"/>
      <point x="395" y="877" type="line"/>
    </contour>
    <contour>
      <point x="365" y="713" type="line"/>
      <point x="606" y="713" type="line" smooth="yes"/>
      <point x="701" y="713"/>
      <point x="772" y="696"/>
      <point x="817" y="662" type="curve" smooth="yes"/>
      <point x="864" y="626"/>
      <point x="885" y="577"/>
      <point x="885" y="496" type="curve" smooth="yes"/>
      <point x="885" y="397"/>
      <point x="852" y="312"/>
      <point x="788" y="253" type="curve" smooth="yes"/>
      <point x="723" y="195"/>
      <point x="629" y="166"/>
      <point x="506" y="166" type="curve" smooth="yes"/>
      <point x="258" y="166" type="line"/>
    </contour>
  </outline>
</glyph>
<glyph name="G" format="1">
  <advance width="1233"/>
  <unicode hex="0047"/>
  <note>
	G
  </note>
  <outline>
    <contour>
      <point x="712" y="-29"/>
      <point x="856" y="15"/>
      <point x="969" y="96" type="curve"/>
      <point x="1102" y="766" type="line"/>
      <point x="692" y="766" type="line"/>
      <point x="662" y="600" type="line"/>
      <point x="879" y="600" type="line"/>
      <point x="803" y="207" type="line"/>
      <point x="751" y="159"/>
      <point x="679" y="135"/>
      <point x="592" y="135" type="curve" smooth="yes"/>
      <point x="492" y="135"/>
      <point x="419" y="165"/>
      <point x="366" y="228" type="curve" smooth="yes"/>
      <point x="313" y="289"/>
      <point x="287" y="377"/>
      <point x="287" y="494" type="curve" smooth="yes"/>
      <point x="287" y="519"/>
      <point x="289" y="547"/>
      <point x="292" y="579" type="curve" smooth="yes"/>
      <point x="305" y="707"/>
      <point x="342" y="862"/>
      <point x="387" y="977" type="curve" smooth="yes"/>
      <point x="422" y="1066"/>
      <point x="463" y="1137"/>
      <point x="508" y="1192" type="curve" smooth="yes"/>
      <point x="551" y="1244"/>
      <point x="606" y="1288"/>
      <point x="662" y="1315" type="curve" smooth="yes"/>
      <point x="718" y="1342"/>
      <point x="779" y="1356"/>
      <point x="846" y="1356" type="curve" smooth="yes"/>
      <point x="958" y="1356"/>
      <point x="1051" y="1311"/>
      <point x="1135" y="1231" type="curve"/>
      <point x="1176" y="1438" type="line"/>
      <point x="1127" y="1465"/>
      <point x="1075" y="1485"/>
      <point x="1020" y="1499" type="curve" smooth="yes"/>
      <point x="971" y="1513"/>
      <point x="915" y="1520"/>
      <point x="854" y="1520" type="curve" smooth="yes"/>
      <point x="646" y="1520"/>
      <point x="464" y="1436"/>
      <point x="328" y="1267" type="curve" smooth="yes"/>
      <point x="247" y="1164"/>
      <point x="188" y="1045"/>
      <point x="143" y="893" type="curve" smooth="yes"/>
      <point x="126" y="836"/>
      <point x="110" y="765"/>
      <point x="95" y="681" type="curve" smooth="yes"/>
      <point x="84" y="611"/>
      <point x="78" y="547"/>
      <point x="78" y="488" type="curve" smooth="yes"/>
      <point x="78" y="160"/>
      <point x="247" y="-29"/>
      <point x="564" y="-29" type="curve" smooth="yes"/>
    </contour>
  </outline>
</glyph>
<glyph name="J" format="1">
  <advance width="1233"/>
  <unicode hex="004A"/>
  <note>
	J
  </note>
  <outline>
    <contour>
      <point x="532" y="-29"/>
      <point x="645" y="7"/>
      <point x="729" y="86" type="curve" smooth="yes"/>
      <point x="810" y="162"/>
      <point x="866" y="288"/>
      <point x="905" y="487" type="curve" smooth="yes"/>
      <point x="1102" y="1493" type="line"/>
      <point x="518" y="1493" type="line"/>
      <point x="485" y="1323" type="line"/>
      <point x="866" y="1323" type="line"/>
      <point x="702" y="487" type="line" smooth="yes"/>
      <point x="649" y="211"/>
      <point x="569" y="135"/>
      <point x="380" y="135" type="curve" smooth="yes"/>
      <point x="305" y="135"/>
      <point x="245" y="149"/>
      <point x="184" y="177" type="curve" smooth="yes"/>
      <point x="122" y="205"/>
      <point x="67" y="245"/>
      <point x="20" y="297" type="curve"/>
      <point x="-25" y="61" type="line"/>
      <point x="118" y="0"/>
      <point x="246" y="-29"/>
      <point x="375" y="-29" type="curve" smooth="yes"/>
    </contour>
  </outline>
</glyph>
<glyph name="P" format="1">
  <advance width="1233"/>
  <unicode hex="0050"/>
  <note>
	P
  </note>
  <outline>
    <contour>
      <point x="233" y="0" type="line"/>
      <point x="350" y="600" type="line"/>
      <point x="583" y="600" type="line" smooth="yes"/>
      <point x="768" y="600"/>
      <point x="915" y="648"/>
      <point x="1023" y="743" type="curve" smooth="yes"/>
      <point x="1127" y="835"/>
      <point x="1183" y="967"/>
      <point x="1183" y="1126" type="curve" smooth="yes"/>
      <point x="1183" y="1253"/>
      <point x="1148" y="1341"/>
      <point x="1076" y="1401" type="curve" smooth="yes"/>
      <point x="1003" y="1462"/>
      <point x="898" y="1493"/>
      <point x="761" y="1493" type="curve" smooth="yes"/>
      <point x="321" y="1493" type="line"/>
      <point x="30" y="0" type="line"/>
    </contour>
    <contour>
      <point x="491" y="1327" type="line"/>
      <point x="724" y="1327" type="line" smooth="yes"/>
      <point x="897" y="1327"/>
      <point x="978" y="1263"/>
      <point x="978" y="1111" type="curve" smooth="yes"/>
      <point x="978" y="1011"/>
      <point x="944" y="926"/>
      <point x="880" y="862" type="curve" smooth="yes"/>
      <point x="814" y="798"/>
      <point x="726" y="766"/>
      <point x="616" y="766" type="curve" smooth="yes"/>
      <point x="382" y="766" type="line"/>
    </contour>
  </outline>
</glyph>
<glyph name="Q" format="1">
  <advance width="1233"/>
  <unicode hex="0051"/>
  <note>
	Q
  </note>
  <outline>
    <contour>
      <point x="926" y="-270" type="line"/>
      <point x="690" y="10" type="line"/>
      <point x="742" y="31"/>
      <point x="792" y="64"/>
      <point x="839" y="111" type="curve" smooth="yes"/>
      <point x="932" y="199"/>
      <point x="989" y="311"/>
      <point x="1032" y="427" type="curve" smooth="yes"/>
      <point x="1072" y="538"/>
      <point x="1120" y="716"/>
      <point x="1137" y="839" type="curve" smooth="yes"/>
      <point x="1146" y="904"/>
      <point x="1151" y="968"/>
      <point x="1151" y="1029" type="curve" smooth="yes"/>
      <point x="1151" y="1194"/>
      <point x="1119" y="1316"/>
      <point x="1054" y="1397" type="curve" smooth="yes"/>
      <point x="987" y="1481"/>
      <point x="889" y="1520"/>
      <point x="753" y="1520" type="curve" smooth="yes"/>
      <point x="658" y="1520"/>
      <point x="574" y="1500"/>
      <point x="501" y="1460" type="curve" smooth="yes"/>
      <point x="425" y="1419"/>
      <point x="356" y="1351"/>
      <point x="303" y="1272" type="curve"/>
      <point x="289" y="1253"/>
      <point x="276" y="1231"/>
      <point x="265" y="1208" type="curve"/>
      <point x="250" y="1180"/>
      <point x="238" y="1158"/>
      <point x="231" y="1141" type="curve" smooth="yes"/>
      <point x="183" y="1034"/>
      <point x="149" y="921"/>
      <point x="129" y="834" type="curve" smooth="yes"/>
      <point x="109" y="751"/>
      <point x="94" y="666"/>
      <point x="87" y="592" type="curve" smooth="yes"/>
      <point x="84" y="555"/>
      <point x="82" y="515"/>
      <point x="82" y="472" type="curve" smooth="yes"/>
      <point x="82" y="293"/>
      <point x="114" y="173"/>
      <point x="181" y="93" type="curve" smooth="yes"/>
      <point x="249" y="12"/>
      <point x="347" y="-27"/>
      <point x="494" y="-27" type="curve" smooth="yes"/>
      <point x="504" y="-27" type="line"/>
      <point x="690" y="-270" type="line"/>
    </contour>
    <contour>
      <point x="429" y="135"/>
      <point x="377" y="158"/>
      <point x="340" y="203" type="curve"/>
      <point x="303" y="254"/>
      <point x="287" y="317"/>
      <point x="287" y="429" type="curve" smooth="yes"/>
      <point x="287" y="550"/>
      <point x="302" y="677"/>
      <point x="333" y="808" type="curve" smooth="yes"/>
      <point x="364" y="945"/>
      <point x="408" y="1072"/>
      <point x="455" y="1160" type="curve" smooth="yes"/>
      <point x="520" y="1285"/>
      <point x="611" y="1356"/>
      <point x="734" y="1356" type="curve" smooth="yes"/>
      <point x="803" y="1356"/>
      <point x="855" y="1334"/>
      <point x="892" y="1289" type="curve" smooth="yes"/>
      <point x="928" y="1244"/>
      <point x="944" y="1179"/>
      <point x="944" y="1067" type="curve" smooth="yes"/>
      <point x="944" y="956"/>
      <point x="929" y="817"/>
      <point x="898" y="684" type="curve" smooth="yes"/>
      <point x="873" y="568"/>
      <point x="829" y="427"/>
      <point x="778" y="331" type="curve" smooth="yes"/>
      <point x="711" y="204"/>
      <point x="619" y="135"/>
      <point x="498" y="135" type="curve" smooth="yes"/>
    </contour>
  </outline>
</glyph>
<glyph name="R" format="1">
  <advance width="1233"/>
  <unicode hex="0052"/>
  <note>
	R
  </note>
  <outline>
    <contour>
      <point x="195" y="0" type="line"/>
      <point x="318" y="631" type="line"/>
      <point x="510" y="631" type="line" smooth="yes"/>
      <point x="661" y="631"/>
      <point x="714" y="584"/>
      <point x="773" y="377" type="curve" smooth="yes"/>
      <point x="879" y="0" type="line"/>
      <point x="1080" y="0" type="line"/>
      <point x="959" y="408" type="line" smooth="yes"/>
      <point x="924" y="525"/>
      <point x="892" y="601"/>
      <point x="862" y="638" type="curve" smooth="yes"/>
      <point x="834" y="673"/>
      <point x="791" y="697"/>
      <point x="746" y="705" type="curve"/>
      <point x="865" y="720"/>
      <point x="959" y="767"/>
      <point x="1028" y="848" type="curve" smooth="yes"/>
      <point x="1096" y="927"/>
      <point x="1131" y="1031"/>
      <point x="1131" y="1144" type="curve" smooth="yes"/>
      <point x="1131" y="1259"/>
      <point x="1095" y="1344"/>
      <point x="1018" y="1404" type="curve" smooth="yes"/>
      <point x="941" y="1463"/>
      <point x="834" y="1493"/>
      <point x="697" y="1493" type="curve" smooth="yes"/>
      <point x="281" y="1493" type="line"/>
      <point x="-8" y="0" type="line"/>
    </contour>
    <contour>
      <point x="453" y="1327" type="line"/>
      <point x="666" y="1327" type="line" smooth="yes"/>
      <point x="849" y="1327"/>
      <point x="928" y="1260"/>
      <point x="928" y="1109" type="curve" smooth="yes"/>
      <point x="928" y="985"/>
      <point x="867" y="887"/>
      <point x="759" y="836" type="curve" smooth="yes"/>
      <point x="704" y="810"/>
      <point x="641" y="797"/>
      <point x="570" y="797" type="curve" smooth="yes"/>
      <point x="351" y="797" type="line"/>
    </contour>
  </outline>
</glyph>
<glyph name="S" format="1">
  <advance width="1233"/>
  <unicode hex="0053"/>
  <note>
	S
  </note>
  <outline>
    <contour>
      <point x="622" y="-29"/>
      <point x="771" y="17"/>
      <point x="883" y="109" type="curve" smooth="yes"/>
      <point x="994" y="200"/>
      <point x="1049" y="325"/>
      <point x="1049" y="473" type="curve" smooth="yes"/>
      <point x="1049" y="570"/>
      <point x="1026" y="637"/>
      <point x="974" y="694" type="curve" smooth="yes"/>
      <point x="922" y="751"/>
      <point x="851" y="790"/>
      <point x="735" y="827" type="curve" smooth="yes"/>
      <point x="614" y="866" type="line" smooth="yes"/>
      <point x="528" y="893"/>
      <point x="469" y="921"/>
      <point x="436" y="950" type="curve" smooth="yes"/>
      <point x="403" y="979"/>
      <point x="387" y="1016"/>
      <point x="387" y="1068" type="curve" smooth="yes"/>
      <point x="387" y="1149"/>
      <point x="425" y="1222"/>
      <point x="490" y="1274" type="curve" smooth="yes"/>
      <point x="555" y="1326"/>
      <point x="648" y="1356"/>
      <point x="759" y="1356" type="curve" smooth="yes"/>
      <point x="882" y="1356"/>
      <point x="999" y="1316"/>
      <point x="1108" y="1237" type="curve"/>
      <point x="1147" y="1442" type="line"/>
      <point x="1016" y="1494"/>
      <point x="899" y="1520"/>
      <point x="783" y="1520" type="curve" smooth="yes"/>
      <point x="616" y="1520"/>
      <point x="471" y="1472"/>
      <point x="360" y="1380" type="curve" smooth="yes"/>
      <point x="251" y="1287"/>
      <point x="195" y="1162"/>
      <point x="195" y="1025" type="curve" smooth="yes"/>
      <point x="195" y="934"/>
      <point x="218" y="875"/>
      <point x="269" y="824" type="curve" smooth="yes"/>
      <point x="324" y="769"/>
      <point x="406" y="731"/>
      <point x="526" y="692" type="curve" smooth="yes"/>
      <point x="627" y="659" type="line" smooth="yes"/>
      <point x="720" y="630"/>
      <point x="771" y="606"/>
      <point x="804" y="573" type="curve"/>
      <point x="833" y="541"/>
      <point x="848" y="501"/>
      <point x="848" y="444" type="curve" smooth="yes"/>
      <point x="848" y="355"/>
      <point x="814" y="282"/>
      <point x="745" y="223" type="curve" smooth="yes"/>
      <point x="676" y="163"/>
      <point x="590" y="135"/>
      <point x="475" y="135" type="curve" smooth="yes"/>
      <point x="326" y="135"/>
      <point x="197" y="179"/>
      <point x="66" y="270" type="curve"/>
      <point x="25" y="61" type="line"/>
      <point x="161" y="1"/>
      <point x="295" y="-29"/>
      <point x="435" y="-29" type="curve" smooth="yes"/>
    </contour>
  </outline>
</glyph>
<glyph name="b" format="1">
  <advance width="1233"/>
  <unicode hex="0062"/>
  <note>
	b
  </note>
  <outline>
    <contour>
      <point x="699" y="-29"/>
      <point x="849" y="56"/>
      <point x="954" y="213" type="curve" smooth="yes"/>
      <point x="1053" y="362"/>
      <point x="1108" y="565"/>
      <point x="1108" y="748" type="curve" smooth="yes"/>
      <point x="1108" y="877"/>
      <point x="1078" y="976"/>
      <point x="1018" y="1044" type="curve" smooth="yes"/>
      <point x="958" y="1112"/>
      <point x="870" y="1147"/>
      <point x="763" y="1147" type="curve" smooth="yes"/>
      <point x="627" y="1147"/>
      <point x="515" y="1089"/>
      <point x="434" y="977" type="curve"/>
      <point x="547" y="1556" type="line"/>
      <point x="362" y="1556" type="line"/>
      <point x="59" y="0" type="line"/>
      <point x="224" y="0" type="line"/>
      <point x="270" y="141" type="line"/>
      <point x="317" y="28"/>
      <point x="406" y="-29"/>
      <point x="535" y="-29" type="curve" smooth="yes"/>
    </contour>
    <contour>
      <point x="404" y="127"/>
      <point x="332" y="218"/>
      <point x="332" y="389" type="curve" smooth="yes"/>
      <point x="332" y="456"/>
      <point x="342" y="530"/>
      <point x="361" y="611" type="curve" smooth="yes"/>
      <point x="404" y="774"/>
      <point x="469" y="887"/>
      <point x="557" y="947" type="curve" smooth="yes"/>
      <point x="602" y="978"/>
      <point x="653" y="993"/>
      <point x="710" y="993" type="curve" smooth="yes"/>
      <point x="843" y="993"/>
      <point x="911" y="908"/>
      <point x="911" y="733" type="curve" smooth="yes"/>
      <point x="911" y="590"/>
      <point x="873" y="429"/>
      <point x="805" y="304" type="curve" smooth="yes"/>
      <point x="773" y="244"/>
      <point x="738" y="203"/>
      <point x="691" y="172" type="curve" smooth="yes"/>
      <point x="646" y="142"/>
      <point x="596" y="127"/>
      <point x="540" y="127" type="curve" smooth="yes"/>
    </contour>
  </outline>
</glyph>
<glyph name="c" format="1">
  <advance width="1233"/>
  <unicode hex="0063"/>
  <note>
	c
  </note>
  <outline>
    <contour>
      <point x="722" y="-29"/>
      <point x="834" y="-1"/>
      <point x="930" y="51" type="curve"/>
      <point x="969" y="252" type="line"/>
      <point x="864" y="172"/>
      <point x="740" y="127"/>
      <point x="615" y="127" type="curve" smooth="yes"/>
      <point x="428" y="127"/>
      <point x="340" y="226"/>
      <point x="340" y="418" type="curve" smooth="yes"/>
      <point x="340" y="549"/>
      <point x="384" y="704"/>
      <point x="459" y="813" type="curve" smooth="yes"/>
      <point x="539" y="933"/>
      <point x="653" y="991"/>
      <point x="800" y="991" type="curve" smooth="yes"/>
      <point x="912" y="991"/>
      <point x="1003" y="956"/>
      <point x="1090" y="879" type="curve"/>
      <point x="1127" y="1061" type="line"/>
      <point x="1019" y="1120"/>
      <point x="911" y="1147"/>
      <point x="794" y="1147" type="curve" smooth="yes"/>
      <point x="703" y="1147"/>
      <point x="621" y="1131"/>
      <point x="549" y="1098" type="curve" smooth="yes"/>
      <point x="478" y="1067"/>
      <point x="404" y="1017"/>
      <point x="344" y="950" type="curve" smooth="yes"/>
      <point x="282" y="881"/>
      <point x="234" y="800"/>
      <point x="199" y="709" type="curve" smooth="yes"/>
      <point x="164" y="618"/>
      <point x="146" y="513"/>
      <point x="146" y="412" type="curve" smooth="yes"/>
      <point x="146" y="127"/>
      <point x="302" y="-29"/>
      <point x="597" y="-29" type="curve" smooth="yes"/>
    </contour>
  </outline>
</glyph>
<glyph name="i" format="1">
  <advance width="1233"/>
  <unicode hex="0069"/>
  <note>
	i
  </note>
  <outline>
    <contour>
      <point x="751" y="1323" type="line" smooth="yes"/>
      <point x="770" y="1323"/>
      <point x="780" y="1332"/>
      <point x="783" y="1350" type="curve" smooth="yes"/>
      <point x="817" y="1523" type="line" smooth="yes"/>
      <point x="821" y="1543"/>
      <point x="810" y="1556"/>
      <point x="790" y="1556" type="curve" smooth="yes"/>
      <point x="666" y="1556" type="line" smooth="yes"/>
      <point x="648" y="1556"/>
      <point x="637" y="1547"/>
      <point x="634" y="1529" type="curve" smooth="yes"/>
      <point x="600" y="1356" type="line" smooth="yes"/>
      <point x="596" y="1336"/>
      <point x="607" y="1323"/>
      <point x="627" y="1323" type="curve" smooth="yes"/>
    </contour>
    <contour>
      <point x="987" y="152" type="line"/>
      <point x="776" y="152" type="line" smooth="yes"/>
      <point x="655" y="152"/>
      <point x="596" y="198"/>
      <point x="596" y="297" type="curve" smooth="yes"/>
      <point x="596" y="320"/>
      <point x="601" y="364"/>
      <point x="610" y="404" type="curve" smooth="yes"/>
      <point x="772" y="1120" type="line"/>
      <point x="342" y="1120" type="line"/>
      <point x="313" y="976" type="line"/>
      <point x="559" y="976" type="line"/>
      <point x="426" y="408" type="line" smooth="yes"/>
      <point x="415" y="363"/>
      <point x="407" y="285"/>
      <point x="407" y="252" type="curve" smooth="yes"/>
      <point x="407" y="80"/>
      <point x="518" y="-4"/>
      <point x="749" y="-4" type="curve" smooth="yes"/>
      <point x="956" y="-4" type="line"/>
    </contour>
  </outline>
</glyph>
<glyph name="j" format="1">
  <advance width="1233"/>
  <unicode hex="006A"/>
  <note>
	j
  </note>
  <outline>
    <contour>
      <point x="935" y="1323" type="line" smooth="yes"/>
      <point x="954" y="1323"/>
      <point x="964" y="1332"/>
      <point x="967" y="1350" type="curve" smooth="yes"/>
      <point x="1001" y="1523" type="line" smooth="yes"/>
      <point x="1005" y="1543"/>
      <point x="994" y="1556"/>
      <point x="974" y="1556" type="curve" smooth="yes"/>
      <point x="850" y="1556" type="line" smooth="yes"/>
      <point x="832" y="1556"/>
      <point x="821" y="1547"/>
      <point x="818" y="1529" type="curve" smooth="yes"/>
      <point x="784" y="1356" type="line" smooth="yes"/>
      <point x="780" y="1336"/>
      <point x="791" y="1323"/>
      <point x="811" y="1323" type="curve" smooth="yes"/>
    </contour>
    <contour>
      <point x="278" y="-426" type="line" smooth="yes"/>
      <point x="519" y="-426"/>
      <point x="647" y="-303"/>
      <point x="702" y="-20" type="curve" smooth="yes"/>
      <point x="923" y="1120" type="line"/>
      <point x="421" y="1120" type="line"/>
      <point x="393" y="977" type="line"/>
      <point x="710" y="977" type="line"/>
      <point x="518" y="-20" type="line" smooth="yes"/>
      <point x="485" y="-196"/>
      <point x="415" y="-270"/>
      <point x="288" y="-270" type="curve" smooth="yes"/>
      <point x="55" y="-270" type="line"/>
      <point x="24" y="-426" type="line"/>
    </contour>
  </outline>
</glyph>
<glyph name="l" format="1">
  <advance width="1233"/>
  <unicode hex="006C"/>
  <note>
	l
  </note>
  <outline>
    <contour>
      <point x="946" y="-8" type="line"/>
      <point x="977" y="148" type="line"/>
      <point x="766" y="148" type="line" smooth="yes"/>
      <point x="645" y="148"/>
      <point x="586" y="195"/>
      <point x="586" y="295" type="curve" smooth="yes"/>
      <point x="586" y="312"/>
      <point x="587" y="323"/>
      <point x="589" y="328" type="curve" smooth="yes"/>
      <point x="591" y="333"/>
      <point x="592" y="337"/>
      <point x="592" y="340" type="curve" smooth="yes"/>
      <point x="592" y="345" type="line"/>
      <point x="593" y="354" type="line"/>
      <point x="593" y="362"/>
      <point x="595" y="377"/>
      <point x="600" y="400" type="curve" smooth="yes"/>
      <point x="840" y="1556" type="line"/>
      <point x="340" y="1556" type="line"/>
      <point x="311" y="1412" type="line"/>
      <point x="627" y="1412" type="line"/>
      <point x="416" y="404" type="line" smooth="yes"/>
      <point x="404" y="343"/>
      <point x="397" y="285"/>
      <point x="397" y="248" type="curve" smooth="yes"/>
      <point x="397" y="162"/>
      <point x="425" y="98"/>
      <point x="482" y="56" type="curve" smooth="yes"/>
      <point x="537" y="13"/>
      <point x="622" y="-8"/>
      <point x="739" y="-8" type="curve" smooth="yes"/>
    </contour>
  </outline>
</glyph>
<glyph name="m" format="1">
  <advance width="1233"/>
  <unicode hex="006D"/>
  <note>
	m
  </note>
  <outline>
    <contour>
      <point x="154" y="0" type="line"/>
      <point x="279" y="641" type="line" smooth="yes"/>
      <point x="294" y="720"/>
      <point x="309" y="784"/>
      <point x="324" y="832" type="curve" smooth="yes"/>
      <point x="352" y="924"/>
      <point x="377" y="960"/>
      <point x="414" y="979" type="curve" smooth="yes"/>
      <point x="432" y="988"/>
      <point x="453" y="993"/>
      <point x="478" y="993" type="curve" smooth="yes"/>
      <point x="547" y="993"/>
      <point x="575" y="949"/>
      <point x="575" y="881" type="curve" smooth="yes"/>
      <point x="575" y="874"/>
      <point x="574" y="860"/>
      <point x="573" y="839" type="curve"/>
      <point x="569" y="808"/>
      <point x="565" y="781"/>
      <point x="561" y="758" type="curve" smooth="yes"/>
      <point x="556" y="730" type="line" smooth="yes"/>
      <point x="554" y="720"/>
      <point x="551" y="701"/>
      <point x="546" y="674" type="curve" smooth="yes"/>
      <point x="539" y="641" type="line"/>
      <point x="414" y="0" type="line"/>
      <point x="582" y="0" type="line"/>
      <point x="707" y="641" type="line" smooth="yes"/>
      <point x="739" y="800"/>
      <point x="762" y="880"/>
      <point x="793" y="929" type="curve" smooth="yes"/>
      <point x="821" y="973"/>
      <point x="856" y="993"/>
      <point x="909" y="993" type="curve" smooth="yes"/>
      <point x="944" y="993"/>
      <point x="968" y="984"/>
      <point x="983" y="965" type="curve" smooth="yes"/>
      <point x="998" y="946"/>
      <point x="1006" y="914"/>
      <point x="1006" y="881" type="curve" smooth="yes"/>
      <point x="1006" y="852"/>
      <point x="1003" y="822"/>
      <point x="997" y="792" type="curve"/>
      <point x="993" y="766" type="line"/>
      <point x="985" y="725" type="line" smooth="yes"/>
      <point x="982" y="709"/>
      <point x="977" y="681"/>
      <point x="969" y="641" type="curve" smooth="yes"/>
      <point x="844" y="0" type="line"/>
      <point x="1012" y="0" type="line"/>
      <point x="1139" y="649" type="line"/>
      <point x="1158" y="750" type="line"/>
      <point x="1162" y="777" type="line" smooth="yes"/>
      <point x="1164" y="789"/>
      <point x="1166" y="805"/>
      <point x="1169" y="824" type="curve" smooth="yes"/>
      <point x="1175" y="863"/>
      <point x="1178" y="902"/>
      <point x="1178" y="943" type="curve" smooth="yes"/>
      <point x="1178" y="1007"/>
      <point x="1161" y="1057"/>
      <point x="1127" y="1094" type="curve"/>
      <point x="1092" y="1129"/>
      <point x="1046" y="1147"/>
      <point x="987" y="1147" type="curve" smooth="yes"/>
      <point x="887" y="1147"/>
      <point x="800" y="1097"/>
      <point x="748" y="1006" type="curve"/>
      <point x="733" y="1095"/>
      <point x="671" y="1147"/>
      <point x="572" y="1147" type="curve" smooth="yes"/>
      <point x="485" y="1147"/>
      <point x="409" y="1104"/>
      <point x="352" y="1024" type="curve"/>
      <point x="351" y="1120" type="line"/>
      <point x="203" y="1120" type="line"/>
      <point x="-14" y="0" type="line"/>
    </contour>
  </outline>
</glyph>
<glyph name="n" format="1">
  <advance width="1233"/>
  <unicode hex="006E"/>
  <note>
	n
  </note>
  <outline>
    <contour>
      <point x="268" y="0" type="line"/>
      <point x="391" y="633" type="line" smooth="yes"/>
      <point x="435" y="857"/>
      <point x="558" y="987"/>
      <point x="730" y="987" type="curve" smooth="yes"/>
      <point x="788" y="987"/>
      <point x="832" y="973"/>
      <point x="863" y="944" type="curve" smooth="yes"/>
      <point x="895" y="915"/>
      <point x="909" y="876"/>
      <point x="909" y="817" type="curve" smooth="yes"/>
      <point x="909" y="800"/>
      <point x="908" y="785"/>
      <point x="905" y="771" type="curve"/>
      <point x="894" y="709" type="line"/>
      <point x="893" y="706"/>
      <point x="893" y="704"/>
      <point x="893" y="704" type="curve"/>
      <point x="894" y="704"/>
      <point x="893" y="701"/>
      <point x="891" y="695" type="curve"/>
      <point x="756" y="0" type="line"/>
      <point x="940" y="0" type="line"/>
      <point x="1075" y="694" type="line" smooth="yes"/>
      <point x="1091" y="777"/>
      <point x="1096" y="825"/>
      <point x="1096" y="877" type="curve" smooth="yes"/>
      <point x="1096" y="958"/>
      <point x="1070" y="1028"/>
      <point x="1019" y="1075" type="curve" smooth="yes"/>
      <point x="968" y="1123"/>
      <point x="898" y="1147"/>
      <point x="807" y="1147" type="curve" smooth="yes"/>
      <point x="734" y="1147"/>
      <point x="677" y="1131"/>
      <point x="618" y="1098" type="curve" smooth="yes"/>
      <point x="558" y="1065"/>
      <point x="504" y="1016"/>
      <point x="455" y="952" type="curve"/>
      <point x="467" y="1120" type="line"/>
      <point x="303" y="1120" type="line"/>
      <point x="84" y="0" type="line"/>
    </contour>
  </outline>
</glyph>
<glyph name="p" format="1">
  <advance width="1233"/>
  <unicode hex="0070"/>
  <note>
	p
  </note>
  <outline>
    <contour>
      <point x="182" y="-426" type="line"/>
      <point x="293" y="141" type="line"/>
      <point x="350" y="28"/>
      <point x="445" y="-29"/>
      <point x="578" y="-29" type="curve" smooth="yes"/>
      <point x="743" y="-29"/>
      <point x="879" y="55"/>
      <point x="979" y="211" type="curve" smooth="yes"/>
      <point x="1074" y="359"/>
      <point x="1128" y="557"/>
      <point x="1128" y="744" type="curve" smooth="yes"/>
      <point x="1128" y="876"/>
      <point x="1099" y="976"/>
      <point x="1040" y="1043" type="curve" smooth="yes"/>
      <point x="980" y="1114"/>
      <point x="892" y="1147"/>
      <point x="788" y="1147" type="curve" smooth="yes"/>
      <point x="655" y="1147"/>
      <point x="536" y="1086"/>
      <point x="455" y="977" type="curve"/>
      <point x="463" y="1120" type="line"/>
      <point x="299" y="1120" type="line"/>
      <point x="-2" y="-426" type="line"/>
    </contour>
    <contour>
      <point x="431" y="127"/>
      <point x="354" y="216"/>
      <point x="354" y="392" type="curve" smooth="yes"/>
      <point x="354" y="535"/>
      <point x="394" y="698"/>
      <point x="459" y="813" type="curve" smooth="yes"/>
      <point x="492" y="874"/>
      <point x="528" y="914"/>
      <point x="576" y="946" type="curve" smooth="yes"/>
      <point x="622" y="976"/>
      <point x="673" y="991"/>
      <point x="728" y="991" type="curve" smooth="yes"/>
      <point x="865" y="991"/>
      <point x="934" y="911"/>
      <point x="934" y="731" type="curve" smooth="yes"/>
      <point x="934" y="586"/>
      <point x="896" y="426"/>
      <point x="829" y="301" type="curve" smooth="yes"/>
      <point x="798" y="245"/>
      <point x="761" y="202"/>
      <point x="718" y="172" type="curve" smooth="yes"/>
      <point x="672" y="142"/>
      <point x="622" y="127"/>
      <point x="567" y="127" type="curve" smooth="yes"/>
    </contour>
  </outline>
</glyph>
<glyph name="q" format="1">
  <advance width="1233"/>
  <unicode hex="0071"/>
  <note>
	q
  </note>
  <outline>
    <contour>
      <point x="848" y="-426" type="line"/>
      <point x="1147" y="1120" type="line"/>
      <point x="983" y="1120" type="line"/>
      <point x="936" y="977" type="line"/>
      <point x="891" y="1089"/>
      <point x="806" y="1147"/>
      <point x="663" y="1147" type="curve" smooth="yes"/>
      <point x="579" y="1147"/>
      <point x="502" y="1127"/>
      <point x="432" y="1087" type="curve" smooth="yes"/>
      <point x="361" y="1047"/>
      <point x="304" y="990"/>
      <point x="252" y="909" type="curve" smooth="yes"/>
      <point x="159" y="765"/>
      <point x="98" y="549"/>
      <point x="98" y="372" type="curve" smooth="yes"/>
      <point x="98" y="108"/>
      <point x="227" y="-29"/>
      <point x="446" y="-29" type="curve" smooth="yes"/>
      <point x="581" y="-29"/>
      <point x="690" y="28"/>
      <point x="774" y="141" type="curve"/>
      <point x="664" y="-426" type="line"/>
    </contour>
    <contour>
      <point x="362" y="127"/>
      <point x="295" y="213"/>
      <point x="295" y="386" type="curve" smooth="yes"/>
      <point x="295" y="519"/>
      <point x="341" y="704"/>
      <point x="401" y="816" type="curve" smooth="yes"/>
      <point x="461" y="929"/>
      <point x="555" y="991"/>
      <point x="667" y="991" type="curve" smooth="yes"/>
      <point x="802" y="991"/>
      <point x="874" y="906"/>
      <point x="874" y="731" type="curve" smooth="yes"/>
      <point x="874" y="595"/>
      <point x="833" y="418"/>
      <point x="768" y="305" type="curve" smooth="yes"/>
      <point x="703" y="190"/>
      <point x="611" y="127"/>
      <point x="496" y="127" type="curve" smooth="yes"/>
    </contour>
  </outline>
</glyph>
<glyph name="r" format="1">
  <advance width="1233"/>
  <unicode hex="0072"/>
  <note>
	r
  </note>
  <outline>
    <contour>
      <point x="371" y="0" type="line"/>
      <point x="478" y="549" type="line" smooth="yes"/>
      <point x="503" y="680"/>
      <point x="556" y="788"/>
      <point x="633" y="864" type="curve" smooth="yes"/>
      <point x="709" y="939"/>
      <point x="806" y="977"/>
      <point x="917" y="977" type="curve" smooth="yes"/>
      <point x="1016" y="977"/>
      <point x="1094" y="945"/>
      <point x="1154" y="889" type="curve"/>
      <point x="1189" y="1075" type="line"/>
      <point x="1134" y="1122"/>
      <point x="1061" y="1147"/>
      <point x="961" y="1147" type="curve" smooth="yes"/>
      <point x="784" y="1147"/>
      <point x="637" y="1061"/>
      <point x="548" y="901" type="curve"/>
      <point x="568" y="1120" type="line"/>
      <point x="404" y="1120" type="line"/>
      <point x="187" y="0" type="line"/>
    </contour>
  </outline>
</glyph>
<glyph name="s" format="1">
  <advance width="1233"/>
  <unicode hex="0073"/>
  <note>
	s
  </note>
  <outline>
    <contour>
      <point x="626" y="-29"/>
      <point x="758" y="9"/>
      <point x="853" y="82" type="curve" smooth="yes"/>
      <point x="946" y="154"/>
      <point x="997" y="256"/>
      <point x="997" y="369" type="curve" smooth="yes"/>
      <point x="997" y="438"/>
      <point x="979" y="488"/>
      <point x="939" y="529" type="curve" smooth="yes"/>
      <point x="898" y="572"/>
      <point x="835" y="604"/>
      <point x="764" y="621" type="curve" smooth="yes"/>
      <point x="692" y="639" type="line"/>
      <point x="686" y="641" type="line"/>
      <point x="685" y="641" type="line"/>
      <point x="686" y="641"/>
      <point x="681" y="642"/>
      <point x="670" y="645" type="curve" smooth="yes"/>
      <point x="526" y="685"/>
      <point x="449" y="721"/>
      <point x="449" y="808" type="curve" smooth="yes"/>
      <point x="449" y="857"/>
      <point x="474" y="907"/>
      <point x="525" y="942" type="curve" smooth="yes"/>
      <point x="574" y="976"/>
      <point x="643" y="993"/>
      <point x="731" y="993" type="curve" smooth="yes"/>
      <point x="843" y="993"/>
      <point x="958" y="957"/>
      <point x="1042" y="901" type="curve"/>
      <point x="1077" y="1081" type="line"/>
      <point x="982" y="1125"/>
      <point x="872" y="1147"/>
      <point x="755" y="1147" type="curve" smooth="yes"/>
      <point x="603" y="1147"/>
      <point x="484" y="1114"/>
      <point x="397" y="1047" type="curve" smooth="yes"/>
      <point x="310" y="980"/>
      <point x="266" y="887"/>
      <point x="266" y="780" type="curve" smooth="yes"/>
      <point x="266" y="636"/>
      <point x="343" y="557"/>
      <point x="516" y="512" type="curve" smooth="yes"/>
      <point x="583" y="494" type="line"/>
      <point x="611" y="487" type="line" smooth="yes"/>
      <point x="756" y="447"/>
      <point x="807" y="402"/>
      <point x="807" y="329" type="curve" smooth="yes"/>
      <point x="807" y="276"/>
      <point x="778" y="224"/>
      <point x="723" y="185" type="curve" smooth="yes"/>
      <point x="667" y="145"/>
      <point x="595" y="125"/>
      <point x="507" y="125" type="curve" smooth="yes"/>
      <point x="449" y="125"/>
      <point x="392" y="134"/>
      <point x="335" y="152" type="curve" smooth="yes"/>
      <point x="282" y="167"/>
      <point x="221" y="194"/>
      <point x="152" y="231" type="curve"/>
      <point x="115" y="41" type="line"/>
      <point x="246" y="-6"/>
      <point x="349" y="-29"/>
      <point x="477" y="-29" type="curve" smooth="yes"/>
    </contour>
  </outline>
</glyph>
<glyph name="t" format="1">
  <advance width="1233"/>
  <unicode hex="0074"/>
  <note>
	t
  </note>
  <outline>
    <contour>
      <point x="905" y="-4" type="line"/>
      <point x="934" y="143" type="line"/>
      <point x="727" y="143" type="line" smooth="yes"/>
      <point x="635" y="143"/>
      <point x="587" y="157"/>
      <point x="564" y="192" type="curve" smooth="yes"/>
      <point x="553" y="209"/>
      <point x="547" y="233"/>
      <point x="547" y="263" type="curve" smooth="yes"/>
      <point x="547" y="278"/>
      <point x="548" y="293"/>
      <point x="550" y="310" type="curve"/>
      <point x="551" y="312"/>
      <point x="551" y="315"/>
      <point x="551" y="318" type="curve" smooth="yes"/>
      <point x="551" y="321"/>
      <point x="551" y="323"/>
      <point x="552" y="325" type="curve"/>
      <point x="555" y="339" type="line"/>
      <point x="559" y="365" type="line"/>
      <point x="678" y="977" type="line"/>
      <point x="1096" y="977" type="line"/>
      <point x="1124" y="1120" type="line"/>
      <point x="707" y="1120" type="line"/>
      <point x="768" y="1438" type="line"/>
      <point x="584" y="1438" type="line"/>
      <point x="522" y="1120" type="line"/>
      <point x="223" y="1120" type="line"/>
      <point x="195" y="977" type="line"/>
      <point x="494" y="977" type="line"/>
      <point x="375" y="365" type="line"/>
      <point x="367" y="318" type="line"/>
      <point x="362" y="284" type="line" smooth="yes"/>
      <point x="359" y="263"/>
      <point x="358" y="243"/>
      <point x="358" y="222" type="curve" smooth="yes"/>
      <point x="358" y="143"/>
      <point x="384" y="89"/>
      <point x="437" y="52" type="curve" smooth="yes"/>
      <point x="492" y="15"/>
      <point x="573" y="-4"/>
      <point x="682" y="-4" type="curve" smooth="yes"/>
    </contour>
  </outline>
</glyph>
<glyph name="u" format="1">
  <advance width="1233"/>
  <unicode hex="0075"/>
  <note>
	u
  </note>
  <outline>
    <contour>
      <point x="549" y="-27"/>
      <point x="665" y="37"/>
      <point x="764" y="168" type="curve"/>
      <point x="751" y="0" type="line"/>
      <point x="915" y="0" type="line"/>
      <point x="1133" y="1120" type="line"/>
      <point x="948" y="1120" type="line"/>
      <point x="825" y="487" type="line" smooth="yes"/>
      <point x="803" y="375"/>
      <point x="763" y="288"/>
      <point x="704" y="225" type="curve" smooth="yes"/>
      <point x="645" y="164"/>
      <point x="570" y="133"/>
      <point x="489" y="133" type="curve" smooth="yes"/>
      <point x="377" y="133"/>
      <point x="311" y="193"/>
      <point x="311" y="298" type="curve" smooth="yes"/>
      <point x="311" y="315"/>
      <point x="312" y="334"/>
      <point x="315" y="355" type="curve" smooth="yes"/>
      <point x="321" y="390" type="line"/>
      <point x="326" y="426" type="line"/>
      <point x="461" y="1120" type="line"/>
      <point x="276" y="1120" type="line"/>
      <point x="143" y="426" type="line" smooth="yes"/>
      <point x="134" y="383"/>
      <point x="125" y="291"/>
      <point x="125" y="248" type="curve" smooth="yes"/>
      <point x="125" y="79"/>
      <point x="233" y="-27"/>
      <point x="409" y="-27" type="curve" smooth="yes"/>
    </contour>
  </outline>
</glyph>
<glyph name="braceleft" format="1">
  <advance width="1233"/>
  <unicode hex="007B"/>
  <note>
	braceleft
  </note>
  <outline>
    <contour>
      <point x="757" y="-334" type="line"/>
      <point x="786" y="-190" type="line"/>
      <point x="708" y="-190" type="line" smooth="yes"/>
      <point x="579" y="-190"/>
      <point x="525" y="-155"/>
      <point x="525" y="-70" type="curve" smooth="yes"/>
      <point x="525" y="-67"/>
      <point x="525" y="-66"/>
      <point x="526" y="-65" type="curve"/>
      <point x="526" y="-58" type="line" smooth="yes"/>
      <point x="526" y="-53"/>
      <point x="526" y="-49"/>
      <point x="527" y="-45" type="curve"/>
      <point x="527" y="-36"/>
      <point x="527" y="-27"/>
      <point x="528" y="-20" type="curve"/>
      <point x="529" y="-5"/>
      <point x="531" y="15"/>
      <point x="536" y="39" type="curve" smooth="yes"/>
      <point x="583" y="283" type="line"/>
      <point x="583" y="279"/>
      <point x="590" y="308"/>
      <point x="591" y="329" type="curve"/>
      <point x="594" y="353" type="line" smooth="yes"/>
      <point x="597" y="376"/>
      <point x="598" y="395"/>
      <point x="597" y="410" type="curve"/>
      <point x="597" y="510"/>
      <point x="540" y="582"/>
      <point x="444" y="606" type="curve"/>
      <point x="593" y="635"/>
      <point x="665" y="721"/>
      <point x="708" y="932" type="curve" smooth="yes"/>
      <point x="759" y="1184" type="line" smooth="yes"/>
      <point x="778" y="1283"/>
      <point x="804" y="1346"/>
      <point x="836" y="1374" type="curve" smooth="yes"/>
      <point x="867" y="1401"/>
      <point x="920" y="1413"/>
      <point x="1012" y="1413" type="curve" smooth="yes"/>
      <point x="1097" y="1413" type="line"/>
      <point x="1126" y="1556" type="line"/>
      <point x="1044" y="1556" type="line" smooth="yes"/>
      <point x="869" y="1556"/>
      <point x="790" y="1540"/>
      <point x="726" y="1493" type="curve" smooth="yes"/>
      <point x="653" y="1440"/>
      <point x="607" y="1351"/>
      <point x="575" y="1188" type="curve" smooth="yes"/>
      <point x="525" y="944" type="line" smooth="yes"/>
      <point x="497" y="807"/>
      <point x="457" y="738"/>
      <point x="381" y="707" type="curve" smooth="yes"/>
      <point x="342" y="692"/>
      <point x="290" y="684"/>
      <point x="224" y="684" type="curve" smooth="yes"/>
      <point x="133" y="684" type="line"/>
      <point x="104" y="537" type="line"/>
      <point x="196" y="537" type="line" smooth="yes"/>
      <point x="271" y="537"/>
      <point x="325" y="525"/>
      <point x="358" y="500" type="curve" smooth="yes"/>
      <point x="391" y="475"/>
      <point x="407" y="436"/>
      <point x="407" y="372" type="curve" smooth="yes"/>
      <point x="407" y="343"/>
      <point x="404" y="313"/>
      <point x="397" y="282" type="curve"/>
      <point x="396" y="281"/>
      <point x="396" y="280"/>
      <point x="396" y="278" type="curve"/>
      <point x="394" y="270" type="line"/>
      <point x="349" y="34" type="line" smooth="yes"/>
      <point x="342" y="-1"/>
      <point x="334" y="-61"/>
      <point x="335" y="-89" type="curve"/>
      <point x="335" y="-102" type="line" smooth="yes"/>
      <point x="335" y="-213"/>
      <point x="380" y="-278"/>
      <point x="483" y="-310" type="curve" smooth="yes"/>
      <point x="534" y="-326"/>
      <point x="602" y="-334"/>
      <point x="685" y="-334" type="curve" smooth="yes"/>
    </contour>
  </outline>
</glyph>
<glyph name="braceright" format="1">
  <advance width="1233"/>
  <unicode hex="007D"/>
  <note>
	braceright
  </note>
  <outline>
    <contour>
      <point x="118" y="-334" type="line" smooth="yes"/>
      <point x="294" y="-334"/>
      <point x="376" y="-313"/>
      <point x="435" y="-270" type="curve" smooth="yes"/>
      <point x="507" y="-218"/>
      <point x="558" y="-121"/>
      <point x="587" y="35" type="curve" smooth="yes"/>
      <point x="634" y="279" type="line" smooth="yes"/>
      <point x="673" y="478"/>
      <point x="746" y="539"/>
      <point x="937" y="539" type="curve" smooth="yes"/>
      <point x="1028" y="539" type="line"/>
      <point x="1057" y="686" type="line"/>
      <point x="965" y="686" type="line" smooth="yes"/>
      <point x="814" y="686"/>
      <point x="755" y="730"/>
      <point x="755" y="849" type="curve" smooth="yes"/>
      <point x="755" y="878"/>
      <point x="758" y="909"/>
      <point x="765" y="940" type="curve"/>
      <point x="767" y="952" type="line"/>
      <point x="812" y="1188" type="line" smooth="yes"/>
      <point x="815" y="1205"/>
      <point x="818" y="1220"/>
      <point x="819" y="1232" type="curve" smooth="yes"/>
      <point x="820" y="1244"/>
      <point x="821" y="1253"/>
      <point x="822" y="1259" type="curve"/>
      <point x="825" y="1285"/>
      <point x="826" y="1305"/>
      <point x="826" y="1320" type="curve" smooth="yes"/>
      <point x="826" y="1413"/>
      <point x="800" y="1465"/>
      <point x="745" y="1502" type="curve" smooth="yes"/>
      <point x="692" y="1538"/>
      <point x="602" y="1556"/>
      <point x="476" y="1556" type="curve" smooth="yes"/>
      <point x="402" y="1556" type="line"/>
      <point x="376" y="1413" type="line"/>
      <point x="453" y="1413" type="line" smooth="yes"/>
      <point x="584" y="1413"/>
      <point x="636" y="1378"/>
      <point x="636" y="1290" type="curve" smooth="yes"/>
      <point x="636" y="1280"/>
      <point x="635" y="1264"/>
      <point x="634" y="1243" type="curve"/>
      <point x="633" y="1233" type="line"/>
      <point x="630" y="1214" type="line"/>
      <point x="627" y="1194" type="line"/>
      <point x="625" y="1183" type="line"/>
      <point x="578" y="940" type="line"/>
      <point x="574" y="924"/>
      <point x="572" y="910"/>
      <point x="571" y="897" type="curve" smooth="yes"/>
      <point x="570" y="884"/>
      <point x="569" y="875"/>
      <point x="568" y="870" type="curve"/>
      <point x="565" y="849"/>
      <point x="564" y="830"/>
      <point x="564" y="813" type="curve" smooth="yes"/>
      <point x="564" y="758"/>
      <point x="576" y="722"/>
      <point x="604" y="686" type="curve" smooth="yes"/>
      <point x="632" y="652"/>
      <point x="670" y="629"/>
      <point x="718" y="616" type="curve"/>
      <point x="644" y="603"/>
      <point x="587" y="572"/>
      <point x="546" y="524" type="curve" smooth="yes"/>
      <point x="502" y="471"/>
      <point x="474" y="395"/>
      <point x="453" y="291" type="curve" smooth="yes"/>
      <point x="402" y="39" type="line" smooth="yes"/>
      <point x="391" y="-16"/>
      <point x="379" y="-58"/>
      <point x="366" y="-87" type="curve" smooth="yes"/>
      <point x="353" y="-117"/>
      <point x="339" y="-138"/>
      <point x="325" y="-150" type="curve" smooth="yes"/>
      <point x="294" y="-177"/>
      <point x="233" y="-190"/>
      <point x="142" y="-190" type="curve" smooth="yes"/>
      <point x="64" y="-190" type="line"/>
      <point x="36" y="-334" type="line"/>
    </contour>
  </outline>
</glyph>
<glyph name="asciitilde" format="1">
  <advance width="1233"/>
  <unicode hex="007E"/>
  <note>
	asciitilde
  </note>
  <outline>
    <contour>
      <point x="995" y="782" type="line"/>
      <point x="994" y="672"/>
      <point x="982" y="589"/>
      <point x="958" y="534" type="curve" smooth="yes"/>
      <point x="934" y="479"/>
      <point x="895" y="452"/>
      <point x="842" y="452" type="curve" smooth="yes"/>
      <point x="810" y="452"/>
      <point x="783" y="467"/>
      <point x="754" y="496" type="curve" smooth="yes"/>
      <point x="721" y="529"/>
      <point x="686" y="571"/>
      <point x="649" y="621" type="curve" smooth="yes"/>
      <point x="609" y="678"/>
      <point x="555" y="734"/>
      <point x="496" y="764" type="curve" smooth="yes"/>
      <point x="467" y="779"/>
      <point x="430" y="786"/>
      <point x="386" y="786" type="curve" smooth="yes"/>
      <point x="285" y="786"/>
      <point x="207" y="738"/>
      <point x="152" y="643" type="curve"/>
      <point x="109" y="554"/>
      <point x="87" y="441"/>
      <point x="84" y="303" type="curve"/>
      <point x="240" y="303" type="line"/>
      <point x="245" y="417"/>
      <point x="259" y="502"/>
      <point x="282" y="558" type="curve" smooth="yes"/>
      <point x="303" y="606"/>
      <point x="340" y="630"/>
      <point x="391" y="630" type="curve" smooth="yes"/>
      <point x="415" y="630"/>
      <point x="441" y="620"/>
      <point x="468" y="601" type="curve" smooth="yes"/>
      <point x="492" y="583"/>
      <point x="530" y="537"/>
      <point x="583" y="464" type="curve" smooth="yes"/>
      <point x="632" y="397"/>
      <point x="674" y="352"/>
      <point x="709" y="330" type="curve" smooth="yes"/>
      <point x="748" y="307"/>
      <point x="793" y="296"/>
      <point x="846" y="296" type="curve" smooth="yes"/>
      <point x="956" y="296"/>
      <point x="1035" y="344"/>
      <point x="1083" y="441" type="curve"/>
      <point x="1130" y="524"/>
      <point x="1146" y="621"/>
      <point x="1151" y="782" type="curve"/>
    </contour>
  </outline>
</glyph>
<glyph name="exclamdown" format="1">
  <advance width="1233"/>
  <unicode hex="00A1"/>
  <note>
	exclamdown
  </note>
  <outline>
    <contour>
      <point x="813" y="1170"/>
      <point x="866" y="1236"/>
      <point x="891" y="1292" type="curve" smooth="yes"/>
      <point x="903" y="1320"/>
      <point x="909" y="1349"/>
      <point x="909" y="1378" type="curve" smooth="yes"/>
      <point x="909" y="1407"/>
      <point x="900" y="1446"/>
      <point x="875" y="1474" type="curve" smooth="yes"/>
      <point x="851" y="1501"/>
      <point x="814" y="1514"/>
      <point x="771" y="1514" type="curve" smooth="yes"/>
      <point x="721" y="1514"/>
      <point x="677" y="1496"/>
      <point x="638" y="1459" type="curve" smooth="yes"/>
      <point x="597" y="1418"/>
      <point x="577" y="1372"/>
      <point x="577" y="1319" type="curve" smooth="yes"/>
      <point x="577" y="1282"/>
      <point x="587" y="1240"/>
      <point x="612" y="1211" type="curve" smooth="yes"/>
      <point x="635" y="1184"/>
      <point x="668" y="1170"/>
      <point x="713" y="1170" type="curve" smooth="yes"/>
    </contour>
    <contour>
      <point x="602" y="0" type="line"/>
      <point x="729" y="655" type="line"/>
      <point x="768" y="1012" type="line"/>
      <point x="606" y="1012" type="line"/>
      <point x="498" y="655" type="line"/>
      <point x="369" y="0" type="line"/>
    </contour>
  </outline>
</glyph>
<glyph name="cent" format="1">
  <advance width="1233"/>
  <unicode hex="00A2"/>
  <note>
	cent
  </note>
  <outline>
    <contour>
      <point x="557" y="-313" type="line"/>
      <point x="612" y="-27" type="line"/>
      <point x="665" y="-23"/>
      <point x="709" y="-16"/>
      <point x="744" y="-7" type="curve"/>
      <point x="770" y="1" type="line"/>
      <point x="806" y="11" type="line" smooth="yes"/>
      <point x="835" y="20"/>
      <point x="862" y="30"/>
      <point x="887" y="41" type="curve"/>
      <point x="920" y="213" type="line"/>
      <point x="819" y="160"/>
      <point x="721" y="128"/>
      <point x="641" y="123" type="curve"/>
      <point x="811" y="993" type="line"/>
      <point x="907" y="985"/>
      <point x="988" y="956"/>
      <point x="1055" y="905" type="curve"/>
      <point x="1087" y="1077" type="line"/>
      <point x="1008" y="1117"/>
      <point x="919" y="1141"/>
      <point x="840" y="1145" type="curve"/>
      <point x="895" y="1432" type="line"/>
      <point x="793" y="1432" type="line"/>
      <point x="737" y="1145" type="line"/>
      <point x="622" y="1137"/>
      <point x="518" y="1100"/>
      <point x="425" y="1036" type="curve" smooth="yes"/>
      <point x="241" y="911"/>
      <point x="123" y="681"/>
      <point x="123" y="434" type="curve" smooth="yes"/>
      <point x="123" y="300"/>
      <point x="157" y="193"/>
      <point x="225" y="113" type="curve" smooth="yes"/>
      <point x="293" y="33"/>
      <point x="393" y="-15"/>
      <point x="510" y="-27" type="curve"/>
      <point x="455" y="-313" type="line"/>
    </contour>
    <contour>
      <point x="541" y="127" type="line"/>
      <point x="464" y="135"/>
      <point x="413" y="165"/>
      <point x="374" y="216" type="curve" smooth="yes"/>
      <point x="334" y="268"/>
      <point x="315" y="334"/>
      <point x="315" y="431" type="curve" smooth="yes"/>
      <point x="315" y="567"/>
      <point x="352" y="683"/>
      <point x="412" y="787" type="curve" smooth="yes"/>
      <point x="472" y="890"/>
      <point x="573" y="979"/>
      <point x="709" y="991" type="curve"/>
    </contour>
  </outline>
</glyph>
<glyph name="sterling" format="1">
  <advance width="1233"/>
  <unicode hex="00A3"/>
  <note>
	sterling
  </note>
  <outline>
    <contour>
      <point x="965" y="0" type="line"/>
      <point x="997" y="170" type="line"/>
      <point x="461" y="170" type="line"/>
      <point x="551" y="635" type="line"/>
      <point x="922" y="635" type="line"/>
      <point x="950" y="778" type="line"/>
      <point x="580" y="778" type="line"/>
      <point x="623" y="995" type="line" smooth="yes"/>
      <point x="651" y="1136"/>
      <point x="686" y="1225"/>
      <point x="738" y="1281" type="curve" smooth="yes"/>
      <point x="790" y="1338"/>
      <point x="859" y="1366"/>
      <point x="952" y="1366" type="curve" smooth="yes"/>
      <point x="1038" y="1366"/>
      <point x="1118" y="1337"/>
      <point x="1192" y="1278" type="curve"/>
      <point x="1229" y="1462" type="line"/>
      <point x="1188" y="1479"/>
      <point x="1142" y="1493"/>
      <point x="1092" y="1506" type="curve"/>
      <point x="1049" y="1515"/>
      <point x="1004" y="1520"/>
      <point x="957" y="1520" type="curve" smooth="yes"/>
      <point x="812" y="1520"/>
      <point x="695" y="1479"/>
      <point x="608" y="1397" type="curve" smooth="yes"/>
      <point x="520" y="1316"/>
      <point x="462" y="1196"/>
      <point x="426" y="1016" type="curve" smooth="yes"/>
      <point x="379" y="778" type="line"/>
      <point x="180" y="778" type="line"/>
      <point x="154" y="635" type="line"/>
      <point x="352" y="635" type="line"/>
      <point x="262" y="170" type="line"/>
      <point x="25" y="170" type="line"/>
      <point x="-8" y="0" type="line"/>
    </contour>
  </outline>
</glyph>
<glyph name="currency" format="1">
  <advance width="1233"/>
  <unicode hex="00A4"/>
  <note>
	currency
  </note>
  <outline>
    <contour>
      <point x="461" y="358" type="line"/>
      <point x="497" y="337"/>
      <point x="518" y="328"/>
      <point x="557" y="316" type="curve" smooth="yes"/>
      <point x="592" y="305"/>
      <point x="617" y="301"/>
      <point x="652" y="301" type="curve" smooth="yes"/>
      <point x="717" y="301"/>
      <point x="779" y="321"/>
      <point x="840" y="362" type="curve"/>
      <point x="1006" y="195" type="line"/>
      <point x="1100" y="289" type="line"/>
      <point x="932" y="455" type="line"/>
      <point x="973" y="514"/>
      <point x="993" y="575"/>
      <point x="993" y="640" type="curve" smooth="yes"/>
      <point x="993" y="708"/>
      <point x="978" y="758"/>
      <point x="934" y="831" type="curve"/>
      <point x="1100" y="997" type="line"/>
      <point x="1010" y="1090" type="line"/>
      <point x="844" y="924" type="line"/>
      <point x="776" y="965"/>
      <point x="718" y="983"/>
      <point x="651" y="983" type="curve" smooth="yes"/>
      <point x="588" y="983"/>
      <point x="526" y="963"/>
      <point x="465" y="922" type="curve"/>
      <point x="299" y="1090" type="line"/>
      <point x="205" y="995" type="line"/>
      <point x="373" y="829" type="line"/>
      <point x="334" y="772"/>
      <point x="311" y="710"/>
      <point x="311" y="642" type="curve" smooth="yes"/>
      <point x="311" y="609"/>
      <point x="316" y="578"/>
      <point x="326" y="549" type="curve" smooth="yes"/>
      <point x="339" y="510"/>
      <point x="348" y="488"/>
      <point x="371" y="451" type="curve"/>
      <point x="205" y="285" type="line"/>
      <point x="297" y="195" type="line"/>
    </contour>
    <contour>
      <point x="593" y="426"/>
      <point x="542" y="447"/>
      <point x="500" y="489" type="curve" smooth="yes"/>
      <point x="459" y="532"/>
      <point x="438" y="583"/>
      <point x="438" y="642" type="curve" smooth="yes"/>
      <point x="438" y="705"/>
      <point x="461" y="759"/>
      <point x="501" y="796" type="curve"/>
      <point x="541" y="836"/>
      <point x="596" y="856"/>
      <point x="653" y="856" type="curve" smooth="yes"/>
      <point x="713" y="856"/>
      <point x="767" y="835"/>
      <point x="807" y="795" type="curve" smooth="yes"/>
      <point x="846" y="756"/>
      <point x="868" y="703"/>
      <point x="868" y="643" type="curve" smooth="yes"/>
      <point x="868" y="583"/>
      <point x="846" y="529"/>
      <point x="806" y="488" type="curve" smooth="yes"/>
      <point x="765" y="447"/>
      <point x="714" y="426"/>
      <point x="653" y="426" type="curve" smooth="yes"/>
    </contour>
  </outline>
</glyph>
<glyph name="yen" format="1">
  <advance width="1233"/>
  <unicode hex="00A5"/>
  <note>
	yen
  </note>
  <outline>
    <contour>
      <point x="545" y="0" type="line"/>
      <point x="643" y="524" type="line"/>
      <point x="1036" y="524" type="line"/>
      <point x="1059" y="635" type="line"/>
      <point x="666" y="635" type="line"/>
      <point x="676" y="670" type="line"/>
      <point x="786" y="821" type="line"/>
      <point x="1098" y="821" type="line"/>
      <point x="1120" y="932" type="line"/>
      <point x="868" y="932" type="line"/>
      <point x="1272" y="1493" type="line"/>
      <point x="1061" y="1493" type="line"/>
      <point x="602" y="829" type="line"/>
      <point x="379" y="1493" type="line"/>
      <point x="172" y="1493" type="line"/>
      <point x="377" y="932" type="line"/>
      <point x="131" y="932" type="line"/>
      <point x="109" y="821" type="line"/>
      <point x="418" y="821" type="line"/>
      <point x="473" y="670" type="line"/>
      <point x="467" y="635" type="line"/>
      <point x="70" y="635" type="line"/>
      <point x="47" y="524" type="line"/>
      <point x="444" y="524" type="line"/>
      <point x="346" y="0" type="line"/>
    </contour>
  </outline>
</glyph>
<glyph name="section" format="1">
  <advance width="1233"/>
  <unicode hex="00A7"/>
  <note>
	section
  </note>
  <outline>
    <contour>
      <point x="536" y="-201"/>
      <point x="648" y="-167"/>
      <point x="728" y="-103" type="curve" smooth="yes"/>
      <point x="807" y="-39"/>
      <point x="848" y="49"/>
      <point x="848" y="148" type="curve" smooth="yes"/>
      <point x="848" y="227"/>
      <point x="821" y="285"/>
      <point x="766" y="332" type="curve"/>
      <point x="917" y="401"/>
      <point x="1012" y="532"/>
      <point x="1012" y="663" type="curve" smooth="yes"/>
      <point x="1012" y="763"/>
      <point x="964" y="829"/>
      <point x="803" y="938" type="curve" smooth="yes"/>
      <point x="717" y="997" type="line"/>
      <point x="669" y="1029" type="line" smooth="yes"/>
      <point x="580" y="1087"/>
      <point x="535" y="1145"/>
      <point x="535" y="1203" type="curve" smooth="yes"/>
      <point x="535" y="1244"/>
      <point x="558" y="1287"/>
      <point x="601" y="1319" type="curve" smooth="yes"/>
      <point x="644" y="1352"/>
      <point x="700" y="1368"/>
      <point x="767" y="1368" type="curve" smooth="yes"/>
      <point x="855" y="1368"/>
      <point x="948" y="1337"/>
      <point x="1036" y="1290" type="curve"/>
      <point x="1069" y="1454" type="line"/>
      <point x="1020" y="1472"/>
      <point x="971" y="1486"/>
      <point x="921" y="1497" type="curve"/>
      <point x="870" y="1506"/>
      <point x="823" y="1511"/>
      <point x="779" y="1511" type="curve" smooth="yes"/>
      <point x="656" y="1511"/>
      <point x="549" y="1479"/>
      <point x="470" y="1415" type="curve" smooth="yes"/>
      <point x="391" y="1351"/>
      <point x="350" y="1266"/>
      <point x="350" y="1167" type="curve" smooth="yes"/>
      <point x="350" y="1098"/>
      <point x="372" y="1049"/>
      <point x="428" y="997" type="curve"/>
      <point x="275" y="914"/>
      <point x="182" y="795"/>
      <point x="182" y="667" type="curve" smooth="yes"/>
      <point x="182" y="570"/>
      <point x="220" y="512"/>
      <point x="387" y="397" type="curve" smooth="yes"/>
      <point x="474" y="337" type="line" smooth="yes"/>
      <point x="602" y="249"/>
      <point x="657" y="182"/>
      <point x="657" y="110" type="curve" smooth="yes"/>
      <point x="657" y="65"/>
      <point x="634" y="21"/>
      <point x="591" y="-10" type="curve" smooth="yes"/>
      <point x="547" y="-41"/>
      <point x="484" y="-57"/>
      <point x="415" y="-57" type="curve" smooth="yes"/>
      <point x="332" y="-57"/>
      <point x="228" y="-29"/>
      <point x="133" y="18" type="curve"/>
      <point x="100" y="-143" type="line"/>
      <point x="205" y="-182"/>
      <point x="310" y="-201"/>
      <point x="411" y="-201" type="curve" smooth="yes"/>
    </contour>
    <contour>
      <point x="559" y="479" type="line" smooth="yes"/>
      <point x="515" y="508"/>
      <point x="479" y="533"/>
      <point x="451" y="556" type="curve" smooth="yes"/>
      <point x="404" y="595"/>
      <point x="380" y="615"/>
      <point x="362" y="651" type="curve" smooth="yes"/>
      <point x="353" y="668"/>
      <point x="348" y="688"/>
      <point x="348" y="711" type="curve" smooth="yes"/>
      <point x="348" y="783"/>
      <point x="408" y="859"/>
      <point x="516" y="928" type="curve"/>
      <point x="596" y="877" type="line" smooth="yes"/>
      <point x="693" y="814"/>
      <point x="760" y="764"/>
      <point x="797" y="727" type="curve" smooth="yes"/>
      <point x="832" y="690"/>
      <point x="850" y="653"/>
      <point x="850" y="616" type="curve" smooth="yes"/>
      <point x="850" y="547"/>
      <point x="789" y="468"/>
      <point x="678" y="401" type="curve"/>
    </contour>
  </outline>
</glyph>
<glyph name="ordfeminine" format="1">
  <advance width="1233"/>
  <unicode hex="00AA"/>
  <note>
	ordfeminine
  </note>
  <outline>
    <contour>
      <point x="646" y="698"/>
      <point x="751" y="745"/>
      <point x="819" y="829" type="curve"/>
      <point x="797" y="717" type="line"/>
      <point x="940" y="717" type="line"/>
      <point x="1026" y="1165" type="line"/>
      <point x="1031" y="1194" type="line"/>
      <point x="1034" y="1220" type="line"/>
      <point x="1035" y="1237"/>
      <point x="1036" y="1255"/>
      <point x="1036" y="1272" type="curve" smooth="yes"/>
      <point x="1036" y="1437"/>
      <point x="939" y="1520"/>
      <point x="745" y="1520" type="curve" smooth="yes"/>
      <point x="660" y="1520"/>
      <point x="557" y="1503"/>
      <point x="457" y="1464" type="curve"/>
      <point x="434" y="1337" type="line"/>
      <point x="535" y="1385"/>
      <point x="615" y="1405"/>
      <point x="711" y="1405" type="curve" smooth="yes"/>
      <point x="779" y="1405"/>
      <point x="821" y="1395"/>
      <point x="850" y="1372" type="curve" smooth="yes"/>
      <point x="880" y="1349"/>
      <point x="895" y="1316"/>
      <point x="895" y="1273" type="curve" smooth="yes"/>
      <point x="895" y="1253"/>
      <point x="894" y="1238"/>
      <point x="892" y="1228" type="curve"/>
      <point x="891" y="1226"/>
      <point x="891" y="1223"/>
      <point x="891" y="1219" type="curve"/>
      <point x="717" y="1219" type="line" smooth="yes"/>
      <point x="452" y="1219"/>
      <point x="295" y="1106"/>
      <point x="295" y="921" type="curve" smooth="yes"/>
      <point x="295" y="852"/>
      <point x="316" y="798"/>
      <point x="358" y="758" type="curve" smooth="yes"/>
      <point x="397" y="721"/>
      <point x="457" y="698"/>
      <point x="534" y="698" type="curve" smooth="yes"/>
    </contour>
    <contour>
      <point x="494" y="817"/>
      <point x="442" y="862"/>
      <point x="442" y="941" type="curve" smooth="yes"/>
      <point x="442" y="994"/>
      <point x="465" y="1037"/>
      <point x="512" y="1064" type="curve" smooth="yes"/>
      <point x="557" y="1091"/>
      <point x="629" y="1104"/>
      <point x="729" y="1104" type="curve" smooth="yes"/>
      <point x="870" y="1104" type="line"/>
      <point x="864" y="1075" type="line" smooth="yes"/>
      <point x="848" y="998"/>
      <point x="814" y="929"/>
      <point x="762" y="884" type="curve" smooth="yes"/>
      <point x="711" y="840"/>
      <point x="648" y="817"/>
      <point x="581" y="817" type="curve" smooth="yes"/>
    </contour>
    <contour>
      <point x="899" y="469" type="line"/>
      <point x="922" y="592" type="line"/>
      <point x="246" y="592" type="line"/>
      <point x="223" y="469" type="line"/>
    </contour>
  </outline>
</glyph>
<glyph name="uni00B2" format="1">
  <advance width="1233"/>
  <unicode hex="00B2"/>
  <note>
	uni00B2
  </note>
  <outline>
    <contour>
      <point x="864" y="1120" type="line"/>
      <point x="887" y="1234" type="line"/>
      <point x="492" y="1234" type="line"/>
      <point x="662" y="1370" type="line"/>
      <point x="682" y="1385" type="line" smooth="yes"/>
      <point x="885" y="1537"/>
      <point x="991" y="1674"/>
      <point x="991" y="1781" type="curve" smooth="yes"/>
      <point x="991" y="1830"/>
      <point x="970" y="1877"/>
      <point x="927" y="1912" type="curve" smooth="yes"/>
      <point x="879" y="1952"/>
      <point x="816" y="1972"/>
      <point x="737" y="1972" type="curve" smooth="yes"/>
      <point x="665" y="1972"/>
      <point x="590" y="1956"/>
      <point x="475" y="1916" type="curve"/>
      <point x="451" y="1789" type="line"/>
      <point x="560" y="1844"/>
      <point x="639" y="1867"/>
      <point x="704" y="1867" type="curve" smooth="yes"/>
      <point x="795" y="1867"/>
      <point x="844" y="1817"/>
      <point x="844" y="1760" type="curve" smooth="yes"/>
      <point x="844" y="1719"/>
      <point x="818" y="1670"/>
      <point x="766" y="1612" type="curve" smooth="yes"/>
      <point x="712" y="1552"/>
      <point x="634" y="1480"/>
      <point x="531" y="1397" type="curve" smooth="yes"/>
      <point x="328" y="1230" type="line"/>
      <point x="307" y="1120" type="line"/>
    </contour>
  </outline>
</glyph>
<glyph name="uni00B3" format="1">
  <advance width="1233"/>
  <unicode hex="00B3"/>
  <note>
	uni00B3
  </note>
  <outline>
    <contour>
      <point x="652" y="1103"/>
      <point x="749" y="1131"/>
      <point x="818" y="1182" type="curve" smooth="yes"/>
      <point x="886" y="1233"/>
      <point x="922" y="1304"/>
      <point x="922" y="1388" type="curve" smooth="yes"/>
      <point x="922" y="1488"/>
      <point x="871" y="1549"/>
      <point x="772" y="1566" type="curve"/>
      <point x="904" y="1591"/>
      <point x="983" y="1672"/>
      <point x="983" y="1783" type="curve" smooth="yes"/>
      <point x="983" y="1902"/>
      <point x="893" y="1970"/>
      <point x="728" y="1970" type="curve" smooth="yes"/>
      <point x="663" y="1970"/>
      <point x="582" y="1958"/>
      <point x="483" y="1935" type="curve"/>
      <point x="461" y="1820" type="line"/>
      <point x="545" y="1851"/>
      <point x="604" y="1863"/>
      <point x="671" y="1863" type="curve" smooth="yes"/>
      <point x="779" y="1863"/>
      <point x="836" y="1828"/>
      <point x="836" y="1760" type="curve" smooth="yes"/>
      <point x="836" y="1720"/>
      <point x="814" y="1682"/>
      <point x="777" y="1657" type="curve" smooth="yes"/>
      <point x="738" y="1630"/>
      <point x="686" y="1617"/>
      <point x="621" y="1617" type="curve" smooth="yes"/>
      <point x="549" y="1617" type="line"/>
      <point x="528" y="1511" type="line"/>
      <point x="600" y="1511" type="line" smooth="yes"/>
      <point x="716" y="1511"/>
      <point x="774" y="1469"/>
      <point x="774" y="1384" type="curve" smooth="yes"/>
      <point x="774" y="1279"/>
      <point x="681" y="1210"/>
      <point x="536" y="1210" type="curve" smooth="yes"/>
      <point x="464" y="1210"/>
      <point x="400" y="1226"/>
      <point x="311" y="1265" type="curve"/>
      <point x="287" y="1144" type="line"/>
      <point x="368" y="1117"/>
      <point x="451" y="1103"/>
      <point x="536" y="1103" type="curve" smooth="yes"/>
    </contour>
  </outline>
</glyph>
<glyph name="uni03BC.1" format="1">
  <advance width="1233"/>
  <unicode hex="00B5"/>
  <note>
	uni03BC.1
  </note>
  <outline>
    <contour>
      <point x="127" y="-426" type="line"/>
      <point x="236" y="137" type="line"/>
      <point x="277" y="26"/>
      <point x="361" y="-29"/>
      <point x="486" y="-29" type="curve" smooth="yes"/>
      <point x="614" y="-29"/>
      <point x="706" y="21"/>
      <point x="774" y="129" type="curve"/>
      <point x="774" y="77"/>
      <point x="787" y="42"/>
      <point x="814" y="14" type="curve"/>
      <point x="840" y="-15"/>
      <point x="874" y="-29"/>
      <point x="917" y="-29" type="curve" smooth="yes"/>
      <point x="940" y="-29"/>
      <point x="965" y="-25"/>
      <point x="990" y="-18" type="curve" smooth="yes"/>
      <point x="1010" y="-13"/>
      <point x="1043" y="1"/>
      <point x="1067" y="16" type="curve"/>
      <point x="1096" y="164" type="line"/>
      <point x="1089" y="161"/>
      <point x="1080" y="157"/>
      <point x="1068" y="153" type="curve" smooth="yes"/>
      <point x="1065" y="152"/>
      <point x="1059" y="150"/>
      <point x="1049" y="147" type="curve"/>
      <point x="1038" y="143"/>
      <point x="1029" y="141"/>
      <point x="1022" y="141" type="curve" smooth="yes"/>
      <point x="993" y="141"/>
      <point x="975" y="163"/>
      <point x="975" y="202" type="curve" smooth="yes"/>
      <point x="975" y="207"/>
      <point x="976" y="215"/>
      <point x="977" y="227" type="curve"/>
      <point x="981" y="258" type="line"/>
      <point x="1149" y="1120" type="line"/>
      <point x="963" y="1120" type="line"/>
      <point x="836" y="467" type="line" smooth="yes"/>
      <point x="792" y="239"/>
      <point x="683" y="131"/>
      <point x="503" y="131" type="curve" smooth="yes"/>
      <point x="364" y="131"/>
      <point x="291" y="198"/>
      <point x="291" y="319" type="curve" smooth="yes"/>
      <point x="291" y="332"/>
      <point x="292" y="348"/>
      <point x="294" y="366" type="curve" smooth="yes"/>
      <point x="297" y="388" type="line"/>
      <point x="303" y="424" type="line"/>
      <point x="439" y="1120" type="line"/>
      <point x="252" y="1120" type="line"/>
      <point x="-49" y="-426" type="line"/>
    </contour>
  </outline>
</glyph>
<glyph name="paragraph" format="1">
  <advance width="1233"/>
  <unicode hex="00B6"/>
  <note>
	paragraph
  </note>
  <outline>
    <contour>
      <point x="483" y="-197" type="line"/>
      <point x="786" y="1370" type="line"/>
      <point x="977" y="1370" type="line"/>
      <point x="674" y="-197" type="line"/>
      <point x="813" y="-197" type="line"/>
      <point x="1141" y="1493" type="line"/>
      <point x="735" y="1493" type="line" smooth="yes"/>
      <point x="504" y="1493"/>
      <point x="309" y="1402"/>
      <point x="204" y="1254" type="curve" smooth="yes"/>
      <point x="151" y="1179"/>
      <point x="125" y="1096"/>
      <point x="125" y="1004" type="curve" smooth="yes"/>
      <point x="125" y="861"/>
      <point x="188" y="754"/>
      <point x="303" y="695" type="curve" smooth="yes"/>
      <point x="360" y="666"/>
      <point x="428" y="650"/>
      <point x="506" y="649" type="curve"/>
      <point x="342" y="-197" type="line"/>
    </contour>
  </outline>
</glyph>
<glyph name="cedilla" format="1">
  <advance width="1233"/>
  <unicode hex="00B8"/>
  <note>
	cedilla
  </note>
  <outline>
    <contour>
      <point x="529" y="-395"/>
      <point x="627" y="-315"/>
      <point x="627" y="-198" type="curve" smooth="yes"/>
      <point x="627" y="-143"/>
      <point x="603" y="-83"/>
      <point x="555" y="0" type="curve"/>
      <point x="436" y="0" type="line"/>
      <point x="447" y="-21"/>
      <point x="462" y="-52"/>
      <point x="480" y="-93" type="curve"/>
      <point x="489" y="-118"/>
      <point x="494" y="-141"/>
      <point x="494" y="-163" type="curve" smooth="yes"/>
      <point x="494" y="-231"/>
      <point x="443" y="-274"/>
      <point x="352" y="-274" type="curve" smooth="yes"/>
      <point x="309" y="-274"/>
      <point x="256" y="-260"/>
      <point x="207" y="-236" type="curve"/>
      <point x="182" y="-365" type="line"/>
      <point x="241" y="-385"/>
      <point x="303" y="-395"/>
      <point x="366" y="-395" type="curve" smooth="yes"/>
    </contour>
  </outline>
</glyph>
<glyph name="uni00B9" format="1">
  <advance width="1233"/>
  <unicode hex="00B9"/>
  <note>
	uni00B9
  </note>
  <outline>
    <contour>
      <point x="901" y="1120" type="line"/>
      <point x="922" y="1230" type="line"/>
      <point x="717" y="1230" type="line"/>
      <point x="858" y="1955" type="line"/>
      <point x="721" y="1955" type="line"/>
      <point x="483" y="1916" type="line"/>
      <point x="461" y="1800" type="line"/>
      <point x="692" y="1841" type="line"/>
      <point x="575" y="1230" type="line"/>
      <point x="369" y="1230" type="line"/>
      <point x="348" y="1120" type="line"/>
    </contour>
  </outline>
</glyph>
<glyph name="ordmasculine" format="1">
  <advance width="1233"/>
  <unicode hex="00BA"/>
  <note>
	ordmasculine
  </note>
  <outline>
    <contour>
      <point x="758" y="698"/>
      <point x="866" y="754"/>
      <point x="946" y="850" type="curve" smooth="yes"/>
      <point x="1022" y="941"/>
      <point x="1065" y="1061"/>
      <point x="1065" y="1184" type="curve" smooth="yes"/>
      <point x="1065" y="1287"/>
      <point x="1035" y="1372"/>
      <point x="979" y="1429" type="curve" smooth="yes"/>
      <point x="921" y="1490"/>
      <point x="843" y="1520"/>
      <point x="744" y="1520" type="curve" smooth="yes"/>
      <point x="617" y="1520"/>
      <point x="503" y="1460"/>
      <point x="428" y="1368" type="curve" smooth="yes"/>
      <point x="396" y="1331"/>
      <point x="360" y="1273"/>
      <point x="339" y="1212" type="curve" smooth="yes"/>
      <point x="318" y="1152"/>
      <point x="307" y="1091"/>
      <point x="307" y="1030" type="curve" smooth="yes"/>
      <point x="307" y="933"/>
      <point x="337" y="848"/>
      <point x="394" y="789" type="curve" smooth="yes"/>
      <point x="453" y="728"/>
      <point x="532" y="698"/>
      <point x="630" y="698" type="curve" smooth="yes"/>
    </contour>
    <contour>
      <point x="592" y="813"/>
      <point x="545" y="833"/>
      <point x="513" y="873" type="curve" smooth="yes"/>
      <point x="480" y="914"/>
      <point x="463" y="966"/>
      <point x="463" y="1041" type="curve" smooth="yes"/>
      <point x="463" y="1136"/>
      <point x="489" y="1227"/>
      <point x="540" y="1298" type="curve" smooth="yes"/>
      <point x="589" y="1367"/>
      <point x="653" y="1405"/>
      <point x="728" y="1405" type="curve" smooth="yes"/>
      <point x="841" y="1405"/>
      <point x="911" y="1323"/>
      <point x="911" y="1179" type="curve" smooth="yes"/>
      <point x="911" y="1084"/>
      <point x="885" y="989"/>
      <point x="834" y="920" type="curve" smooth="yes"/>
      <point x="783" y="849"/>
      <point x="717" y="813"/>
      <point x="645" y="813" type="curve" smooth="yes"/>
    </contour>
    <contour>
      <point x="899" y="469" type="line"/>
      <point x="922" y="592" type="line"/>
      <point x="246" y="592" type="line"/>
      <point x="223" y="469" type="line"/>
    </contour>
  </outline>
</glyph>
<glyph name="guillemotright" format="1">
  <advance width="1233"/>
  <unicode hex="00BB"/>
  <note>
	guillemotright
  </note>
  <outline>
    <contour>
      <point x="653" y="559" type="line"/>
      <point x="667" y="641" type="line"/>
      <point x="280" y="1059" type="line"/>
      <point x="245" y="883" type="line"/>
      <point x="495" y="614" type="line"/>
      <point x="145" y="352" type="line"/>
      <point x="102" y="141" type="line"/>
    </contour>
    <contour>
      <point x="1120" y="559" type="line"/>
      <point x="1134" y="641" type="line"/>
      <point x="747" y="1059" type="line"/>
      <point x="712" y="883" type="line"/>
      <point x="962" y="614" type="line"/>
      <point x="612" y="352" type="line"/>
      <point x="569" y="141" type="line"/>
    </contour>
  </outline>
</glyph>
<glyph name="threequarters" format="1">
  <advance width="1233"/>
  <unicode hex="00BE"/>
  <note>
	threequarters
  </note>
  <outline>
    <contour>
      <point x="466" y="809"/>
      <point x="585" y="859"/>
      <point x="648" y="946" type="curve" smooth="yes"/>
      <point x="679" y="989"/>
      <point x="695" y="1039"/>
      <point x="695" y="1095" type="curve" smooth="yes"/>
      <point x="695" y="1195"/>
      <point x="641" y="1256"/>
      <point x="545" y="1272" type="curve"/>
      <point x="674" y="1295"/>
      <point x="756" y="1381"/>
      <point x="756" y="1486" type="curve" smooth="yes"/>
      <point x="756" y="1606"/>
      <point x="664" y="1676"/>
      <point x="503" y="1676" type="curve" smooth="yes"/>
      <point x="431" y="1676"/>
      <point x="329" y="1658"/>
      <point x="256" y="1641" type="curve"/>
      <point x="234" y="1526" type="line"/>
      <point x="315" y="1555"/>
      <point x="377" y="1569"/>
      <point x="440" y="1569" type="curve" smooth="yes"/>
      <point x="495" y="1569"/>
      <point x="545" y="1562"/>
      <point x="582" y="1534" type="curve" smooth="yes"/>
      <point x="600" y="1520"/>
      <point x="609" y="1497"/>
      <point x="609" y="1466" type="curve" smooth="yes"/>
      <point x="609" y="1411"/>
      <point x="572" y="1366"/>
      <point x="507" y="1342" type="curve" smooth="yes"/>
      <point x="474" y="1329"/>
      <point x="437" y="1323"/>
      <point x="394" y="1323" type="curve" smooth="yes"/>
      <point x="322" y="1323" type="line"/>
      <point x="301" y="1217" type="line"/>
      <point x="373" y="1217" type="line" smooth="yes"/>
      <point x="490" y="1217"/>
      <point x="547" y="1175"/>
      <point x="547" y="1087" type="curve" smooth="yes"/>
      <point x="547" y="982"/>
      <point x="455" y="916"/>
      <point x="308" y="916" type="curve" smooth="yes"/>
      <point x="237" y="916"/>
      <point x="177" y="931"/>
      <point x="84" y="971" type="curve"/>
      <point x="60" y="850" type="line"/>
      <point x="132" y="825"/>
      <point x="230" y="809"/>
      <point x="313" y="809" type="curve" smooth="yes"/>
    </contour>
    <contour>
      <point x="1133" y="762" type="line"/>
      <point x="1106" y="870" type="line"/>
      <point x="47" y="612" type="line"/>
      <point x="70" y="504" type="line"/>
    </contour>
    <contour>
      <point x="903" y="-270" type="line"/>
      <point x="936" y="-86" type="line"/>
      <point x="1055" y="-86" type="line"/>
      <point x="1075" y="25" type="line"/>
      <point x="958" y="25" type="line"/>
      <point x="1063" y="565" type="line"/>
      <point x="901" y="565" type="line"/>
      <point x="436" y="35" type="line"/>
      <point x="413" y="-86" type="line"/>
      <point x="799" y="-86" type="line"/>
      <point x="764" y="-270" type="line"/>
    </contour>
    <contour>
      <point x="897" y="416" type="line"/>
      <point x="821" y="25" type="line"/>
      <point x="555" y="25" type="line"/>
    </contour>
  </outline>
</glyph>
<glyph name="questiondown" format="1">
  <advance width="1233"/>
  <unicode hex="00BF"/>
  <note>
	questiondown
  </note>
  <outline>
    <contour>
      <point x="797" y="1252"/>
      <point x="841" y="1272"/>
      <point x="874" y="1301" type="curve"/>
      <point x="910" y="1336"/>
      <point x="928" y="1379"/>
      <point x="928" y="1426" type="curve" smooth="yes"/>
      <point x="928" y="1464"/>
      <point x="918" y="1495"/>
      <point x="897" y="1519" type="curve" smooth="yes"/>
      <point x="874" y="1544"/>
      <point x="839" y="1556"/>
      <point x="806" y="1556" type="curve" smooth="yes"/>
      <point x="763" y="1556"/>
      <point x="719" y="1537"/>
      <point x="686" y="1508" type="curve" smooth="yes"/>
      <point x="649" y="1475"/>
      <point x="631" y="1434"/>
      <point x="631" y="1385" type="curve" smooth="yes"/>
      <point x="631" y="1308"/>
      <point x="679" y="1252"/>
      <point x="752" y="1252" type="curve" smooth="yes"/>
    </contour>
    <contour>
      <point x="624" y="-27"/>
      <point x="753" y="10"/>
      <point x="901" y="86" type="curve"/>
      <point x="938" y="274" type="line"/>
      <point x="867" y="230"/>
      <point x="799" y="196"/>
      <point x="734" y="173" type="curve" smooth="yes"/>
      <point x="665" y="148"/>
      <point x="611" y="137"/>
      <point x="555" y="137" type="curve" smooth="yes"/>
      <point x="426" y="137"/>
      <point x="346" y="195"/>
      <point x="346" y="292" type="curve" smooth="yes"/>
      <point x="346" y="369"/>
      <point x="390" y="437"/>
      <point x="502" y="532" type="curve" smooth="yes"/>
      <point x="608" y="621" type="line" smooth="yes"/>
      <point x="753" y="744"/>
      <point x="794" y="815"/>
      <point x="817" y="938" type="curve" smooth="yes"/>
      <point x="846" y="1092" type="line"/>
      <point x="655" y="1092" type="line"/>
      <point x="635" y="969" type="line" smooth="yes"/>
      <point x="627" y="918"/>
      <point x="610" y="864"/>
      <point x="590" y="832" type="curve" smooth="yes"/>
      <point x="569" y="798"/>
      <point x="531" y="758"/>
      <point x="475" y="711" type="curve" smooth="yes"/>
      <point x="371" y="625" type="line" smooth="yes"/>
      <point x="283" y="553"/>
      <point x="218" y="488"/>
      <point x="175" y="408" type="curve" smooth="yes"/>
      <point x="154" y="367"/>
      <point x="143" y="320"/>
      <point x="143" y="267" type="curve" smooth="yes"/>
      <point x="143" y="180"/>
      <point x="175" y="109"/>
      <point x="239" y="54" type="curve" smooth="yes"/>
      <point x="304" y="-1"/>
      <point x="395" y="-27"/>
      <point x="495" y="-27" type="curve" smooth="yes"/>
    </contour>
  </outline>
</glyph>
<glyph name="Atilde" format="1">
  <advance width="1233"/>
  <unicode hex="00C3"/>
  <note>
	Atilde
  </note>
  <outline>
    <contour>
      <point x="567" y="1627" type="line"/>
      <point x="594" y="1696"/>
      <point x="628" y="1728"/>
      <point x="673" y="1728" type="curve" smooth="yes"/>
      <point x="698" y="1728"/>
      <point x="725" y="1717"/>
      <point x="754" y="1696" type="curve"/>
      <point x="756" y="1695" type="line"/>
      <point x="790" y="1670" type="line" smooth="yes"/>
      <point x="829" y="1643"/>
      <point x="868" y="1627"/>
      <point x="911" y="1627" type="curve" smooth="yes"/>
      <point x="971" y="1627"/>
      <point x="1021" y="1645"/>
      <point x="1062" y="1682" type="curve" smooth="yes"/>
      <point x="1104" y="1718"/>
      <point x="1136" y="1773"/>
      <point x="1157" y="1846" type="curve"/>
      <point x="1032" y="1846" type="line"/>
      <point x="1025" y="1815"/>
      <point x="1012" y="1791"/>
      <point x="993" y="1773" type="curve" smooth="yes"/>
      <point x="973" y="1754"/>
      <point x="953" y="1746"/>
      <point x="924" y="1746" type="curve" smooth="yes"/>
      <point x="901" y="1746"/>
      <point x="880" y="1753"/>
      <point x="852" y="1773" type="curve" smooth="yes"/>
      <point x="817" y="1799" type="line" smooth="yes"/>
      <point x="773" y="1832"/>
      <point x="729" y="1846"/>
      <point x="684" y="1846" type="curve" smooth="yes"/>
      <point x="572" y="1846"/>
      <point x="489" y="1771"/>
      <point x="442" y="1627" type="curve"/>
    </contour>
    <contour>
      <point x="111" y="0" type="line"/>
      <point x="295" y="389" type="line"/>
      <point x="815" y="389" type="line"/>
      <point x="850" y="0" type="line"/>
      <point x="1051" y="0" type="line"/>
      <point x="885" y="1493" type="line"/>
      <point x="639" y="1493" type="line"/>
      <point x="-106" y="0" type="line"/>
    </contour>
    <contour>
      <point x="735" y="1325" type="line"/>
      <point x="801" y="551" type="line"/>
      <point x="371" y="551" type="line"/>
    </contour>
  </outline>
</glyph>
<glyph name="Aring" format="1">
  <advance width="1233"/>
  <unicode hex="00C5"/>
  <note>
	Aring
  </note>
  <outline>
    <contour>
      <point x="111" y="0" type="line"/>
      <point x="295" y="389" type="line"/>
      <point x="815" y="389" type="line"/>
      <point x="850" y="0" type="line"/>
      <point x="1051" y="0" type="line"/>
      <point x="897" y="1386" type="line"/>
      <point x="990" y="1429"/>
      <point x="1047" y="1520"/>
      <point x="1047" y="1624" type="curve" smooth="yes"/>
      <point x="1047" y="1780"/>
      <point x="925" y="1901"/>
      <point x="773" y="1901" type="curve" smooth="yes"/>
      <point x="694" y="1901"/>
      <point x="626" y="1873"/>
      <point x="577" y="1821" type="curve" smooth="yes"/>
      <point x="524" y="1768"/>
      <point x="498" y="1703"/>
      <point x="498" y="1624" type="curve" smooth="yes"/>
      <point x="498" y="1536"/>
      <point x="533" y="1459"/>
      <point x="600" y="1415" type="curve"/>
      <point x="-106" y="0" type="line"/>
    </contour>
    <contour>
      <point x="729" y="1475"/>
      <point x="692" y="1491"/>
      <point x="665" y="1518" type="curve" smooth="yes"/>
      <point x="636" y="1547"/>
      <point x="621" y="1584"/>
      <point x="621" y="1627" type="curve" smooth="yes"/>
      <point x="621" y="1683"/>
      <point x="650" y="1731"/>
      <point x="696" y="1758" type="curve" smooth="yes"/>
      <point x="719" y="1771"/>
      <point x="744" y="1778"/>
      <point x="771" y="1778" type="curve" smooth="yes"/>
      <point x="858" y="1778"/>
      <point x="924" y="1711"/>
      <point x="924" y="1626" type="curve" smooth="yes"/>
      <point x="924" y="1542"/>
      <point x="857" y="1475"/>
      <point x="772" y="1475" type="curve" smooth="yes"/>
    </contour>
    <contour>
      <point x="735" y="1325" type="line"/>
      <point x="801" y="551" type="line"/>
      <point x="371" y="551" type="line"/>
    </contour>
  </outline>
</glyph>
<glyph name="Ccedilla" format="1">
  <advance width="1233"/>
  <unicode hex="00C7"/>
  <note>
	Ccedilla
  </note>
  <outline>
    <contour>
      <point x="1009" y="1513"/>
      <point x="954" y="1520"/>
      <point x="893" y="1520" type="curve" smooth="yes"/>
      <point x="790" y="1520"/>
      <point x="694" y="1499"/>
      <point x="606" y="1458" type="curve" smooth="yes"/>
      <point x="518" y="1417"/>
      <point x="442" y="1357"/>
      <point x="369" y="1266" type="curve" smooth="yes"/>
      <point x="290" y="1167"/>
      <point x="230" y="1057"/>
      <point x="185" y="913" type="curve" smooth="yes"/>
      <point x="138" y="770"/>
      <point x="115" y="630"/>
      <point x="115" y="492" type="curve" smooth="yes"/>
      <point x="115" y="315"/>
      <point x="157" y="188"/>
      <point x="241" y="103" type="curve" smooth="yes"/>
      <point x="316" y="24"/>
      <point x="421" y="-19"/>
      <point x="554" y="-28" type="curve"/>
      <point x="573" y="-63"/>
      <point x="587" y="-97"/>
      <point x="584" y="-93" type="curve"/>
      <point x="593" y="-118"/>
      <point x="598" y="-141"/>
      <point x="598" y="-163" type="curve" smooth="yes"/>
      <point x="598" y="-231"/>
      <point x="545" y="-274"/>
      <point x="457" y="-274" type="curve" smooth="yes"/>
      <point x="410" y="-274"/>
      <point x="364" y="-261"/>
      <point x="311" y="-236" type="curve"/>
      <point x="286" y="-365" type="line"/>
      <point x="345" y="-385"/>
      <point x="407" y="-395"/>
      <point x="470" y="-395" type="curve" smooth="yes"/>
      <point x="633" y="-395"/>
      <point x="731" y="-315"/>
      <point x="731" y="-198" type="curve" smooth="yes"/>
      <point x="731" y="-171"/>
      <point x="725" y="-142"/>
      <point x="714" y="-111" type="curve"/>
      <point x="712" y="-106"/>
      <point x="707" y="-95"/>
      <point x="700" y="-78" type="curve" smooth="yes"/>
      <point x="693" y="-61"/>
      <point x="684" y="-43"/>
      <point x="673" y="-25" type="curve"/>
      <point x="706" y="-22"/>
      <point x="740" y="-17"/>
      <point x="775" y="-9" type="curve" smooth="yes"/>
      <point x="834" y="6"/>
      <point x="891" y="27"/>
      <point x="944" y="53" type="curve"/>
      <point x="983" y="260" type="line"/>
      <point x="864" y="177"/>
      <point x="745" y="135"/>
      <point x="628" y="135" type="curve" smooth="yes"/>
      <point x="527" y="135"/>
      <point x="452" y="170"/>
      <point x="404" y="226" type="curve" smooth="yes"/>
      <point x="352" y="286"/>
      <point x="326" y="378"/>
      <point x="326" y="503" type="curve" smooth="yes"/>
      <point x="326" y="618"/>
      <point x="347" y="749"/>
      <point x="390" y="878" type="curve" smooth="yes"/>
      <point x="432" y="1005"/>
      <point x="488" y="1110"/>
      <point x="557" y="1192" type="curve" smooth="yes"/>
      <point x="653" y="1304"/>
      <point x="757" y="1356"/>
      <point x="884" y="1356" type="curve" smooth="yes"/>
      <point x="993" y="1356"/>
      <point x="1084" y="1315"/>
      <point x="1171" y="1231" type="curve"/>
      <point x="1212" y="1438" type="line"/>
      <point x="1165" y="1464"/>
      <point x="1113" y="1484"/>
      <point x="1058" y="1499" type="curve" smooth="yes"/>
    </contour>
  </outline>
</glyph>
<glyph name="Eth" format="1">
  <advance width="1233"/>
  <unicode hex="00D0"/>
  <note>
	Eth
  </note>
  <outline>
    <contour>
      <point x="295" y="0" type="line" smooth="yes"/>
      <point x="651" y="0"/>
      <point x="839" y="102"/>
      <point x="975" y="354" type="curve" smooth="yes"/>
      <point x="1070" y="531"/>
      <point x="1130" y="782"/>
      <point x="1130" y="986" type="curve" smooth="yes"/>
      <point x="1130" y="1162"/>
      <point x="1087" y="1285"/>
      <point x="995" y="1369" type="curve" smooth="yes"/>
      <point x="904" y="1452"/>
      <point x="768" y="1493"/>
      <point x="586" y="1493" type="curve" smooth="yes"/>
      <point x="283" y="1493" type="line"/>
      <point x="160" y="858" type="line"/>
      <point x="31" y="858" type="line"/>
      <point x="2" y="709" type="line"/>
      <point x="129" y="709" type="line"/>
      <point x="-8" y="0" type="line"/>
    </contour>
    <contour>
      <point x="334" y="709" type="line"/>
      <point x="600" y="709" type="line"/>
      <point x="629" y="858" type="line"/>
      <point x="362" y="858" type="line"/>
      <point x="453" y="1327" type="line"/>
      <point x="567" y="1327" type="line" smooth="yes"/>
      <point x="696" y="1327"/>
      <point x="787" y="1302"/>
      <point x="842" y="1251" type="curve" smooth="yes"/>
      <point x="898" y="1200"/>
      <point x="924" y="1120"/>
      <point x="924" y="993" type="curve" smooth="yes"/>
      <point x="924" y="822"/>
      <point x="876" y="585"/>
      <point x="800" y="432" type="curve" smooth="yes"/>
      <point x="755" y="336"/>
      <point x="702" y="274"/>
      <point x="621" y="229" type="curve" smooth="yes"/>
      <point x="545" y="188"/>
      <point x="452" y="166"/>
      <point x="324" y="166" type="curve" smooth="yes"/>
      <point x="227" y="166" type="line"/>
    </contour>
  </outline>
</glyph>
<glyph name="Ntilde" format="1">
  <advance width="1233"/>
  <unicode hex="00D1"/>
  <note>
	Ntilde
  </note>
  <outline>
    <contour>
      <point x="563" y="1627" type="line"/>
      <point x="590" y="1696"/>
      <point x="624" y="1728"/>
      <point x="669" y="1728" type="curve" smooth="yes"/>
      <point x="694" y="1728"/>
      <point x="721" y="1717"/>
      <point x="750" y="1696" type="curve"/>
      <point x="752" y="1695" type="line"/>
      <point x="786" y="1670" type="line" smooth="yes"/>
      <point x="825" y="1643"/>
      <point x="864" y="1627"/>
      <point x="907" y="1627" type="curve" smooth="yes"/>
      <point x="967" y="1627"/>
      <point x="1017" y="1645"/>
      <point x="1058" y="1682" type="curve" smooth="yes"/>
      <point x="1100" y="1718"/>
      <point x="1132" y="1773"/>
      <point x="1153" y="1846" type="curve"/>
      <point x="1028" y="1846" type="line"/>
      <point x="1021" y="1815"/>
      <point x="1008" y="1791"/>
      <point x="989" y="1773" type="curve" smooth="yes"/>
      <point x="969" y="1754"/>
      <point x="949" y="1746"/>
      <point x="920" y="1746" type="curve" smooth="yes"/>
      <point x="897" y="1746"/>
      <point x="876" y="1753"/>
      <point x="848" y="1773" type="curve" smooth="yes"/>
      <point x="813" y="1799" type="line" smooth="yes"/>
      <point x="769" y="1832"/>
      <point x="725" y="1846"/>
      <point x="680" y="1846" type="curve" smooth="yes"/>
      <point x="568" y="1846"/>
      <point x="485" y="1771"/>
      <point x="438" y="1627" type="curve"/>
    </contour>
    <contour>
      <point x="188" y="0" type="line"/>
      <point x="428" y="1229" type="line"/>
      <point x="692" y="0" type="line"/>
      <point x="948" y="0" type="line"/>
      <point x="1239" y="1493" type="line"/>
      <point x="1044" y="1493" type="line"/>
      <point x="805" y="264" type="line"/>
      <point x="541" y="1493" type="line"/>
      <point x="285" y="1493" type="line"/>
      <point x="-6" y="0" type="line"/>
    </contour>
  </outline>
</glyph>
<glyph name="Oacute" format="1">
  <advance width="1233"/>
  <unicode hex="00D3"/>
  <note>
	Oacute
  </note>
  <outline>
    <contour>
      <point x="798" y="1595" type="line"/>
      <point x="1105" y="1859" type="line"/>
      <point x="897" y="1859" type="line"/>
      <point x="638" y="1595" type="line"/>
    </contour>
    <contour>
      <point x="574" y="-29"/>
      <point x="658" y="-9"/>
      <point x="731" y="32" type="curve" smooth="yes"/>
      <point x="807" y="75"/>
      <point x="876" y="140"/>
      <point x="928" y="219" type="curve" smooth="yes"/>
      <point x="975" y="290"/>
      <point x="1026" y="396"/>
      <point x="1063" y="516" type="curve" smooth="yes"/>
      <point x="1120" y="696"/>
      <point x="1151" y="871"/>
      <point x="1151" y="1024" type="curve" smooth="yes"/>
      <point x="1151" y="1192"/>
      <point x="1119" y="1316"/>
      <point x="1054" y="1397" type="curve" smooth="yes"/>
      <point x="987" y="1482"/>
      <point x="889" y="1520"/>
      <point x="753" y="1520" type="curve" smooth="yes"/>
      <point x="564" y="1520"/>
      <point x="416" y="1440"/>
      <point x="303" y="1271" type="curve" smooth="yes"/>
      <point x="278" y="1233"/>
      <point x="254" y="1190"/>
      <point x="231" y="1141" type="curve" smooth="yes"/>
      <point x="183" y="1034"/>
      <point x="151" y="927"/>
      <point x="132" y="846" type="curve" smooth="yes"/>
      <point x="122" y="805"/>
      <point x="113" y="761"/>
      <point x="104" y="712" type="curve" smooth="yes"/>
      <point x="89" y="630"/>
      <point x="82" y="550"/>
      <point x="82" y="473" type="curve" smooth="yes"/>
      <point x="82" y="130"/>
      <point x="209" y="-29"/>
      <point x="478" y="-29" type="curve" smooth="yes"/>
    </contour>
    <contour>
      <point x="429" y="135"/>
      <point x="377" y="158"/>
      <point x="340" y="203" type="curve"/>
      <point x="303" y="254"/>
      <point x="287" y="317"/>
      <point x="287" y="429" type="curve" smooth="yes"/>
      <point x="287" y="550"/>
      <point x="302" y="677"/>
      <point x="333" y="808" type="curve" smooth="yes"/>
      <point x="364" y="945"/>
      <point x="408" y="1072"/>
      <point x="455" y="1160" type="curve" smooth="yes"/>
      <point x="520" y="1285"/>
      <point x="611" y="1356"/>
      <point x="734" y="1356" type="curve" smooth="yes"/>
      <point x="803" y="1356"/>
      <point x="855" y="1334"/>
      <point x="892" y="1289" type="curve" smooth="yes"/>
      <point x="928" y="1244"/>
      <point x="944" y="1179"/>
      <point x="944" y="1067" type="curve" smooth="yes"/>
      <point x="944" y="956"/>
      <point x="929" y="817"/>
      <point x="898" y="684" type="curve" smooth="yes"/>
      <point x="873" y="568"/>
      <point x="829" y="427"/>
      <point x="778" y="331" type="curve" smooth="yes"/>
      <point x="711" y="204"/>
      <point x="619" y="135"/>
      <point x="498" y="135" type="curve" smooth="yes"/>
    </contour>
  </outline>
</glyph>
<glyph name="Otilde" format="1">
  <advance width="1233"/>
  <unicode hex="00D5"/>
  <note>
	Otilde
  </note>
  <outline>
    <contour>
      <point x="559" y="1627" type="line"/>
      <point x="586" y="1696"/>
      <point x="620" y="1728"/>
      <point x="665" y="1728" type="curve" smooth="yes"/>
      <point x="690" y="1728"/>
      <point x="717" y="1717"/>
      <point x="746" y="1696" type="curve"/>
      <point x="748" y="1695" type="line"/>
      <point x="782" y="1670" type="line" smooth="yes"/>
      <point x="821" y="1643"/>
      <point x="860" y="1627"/>
      <point x="903" y="1627" type="curve" smooth="yes"/>
      <point x="963" y="1627"/>
      <point x="1013" y="1645"/>
      <point x="1054" y="1682" type="curve" smooth="yes"/>
      <point x="1096" y="1718"/>
      <point x="1128" y="1773"/>
      <point x="1149" y="1846" type="curve"/>
      <point x="1024" y="1846" type="line"/>
      <point x="1017" y="1815"/>
      <point x="1004" y="1791"/>
      <point x="985" y="1773" type="curve" smooth="yes"/>
      <point x="965" y="1754"/>
      <point x="945" y="1746"/>
      <point x="916" y="1746" type="curve" smooth="yes"/>
      <point x="893" y="1746"/>
      <point x="872" y="1753"/>
      <point x="844" y="1773" type="curve" smooth="yes"/>
      <point x="809" y="1799" type="line" smooth="yes"/>
      <point x="765" y="1834"/>
      <point x="721" y="1846"/>
      <point x="676" y="1846" type="curve" smooth="yes"/>
      <point x="564" y="1846"/>
      <point x="481" y="1771"/>
      <point x="434" y="1627" type="curve"/>
    </contour>
    <contour>
      <point x="574" y="-29"/>
      <point x="658" y="-9"/>
      <point x="731" y="32" type="curve" smooth="yes"/>
      <point x="807" y="75"/>
      <point x="876" y="140"/>
      <point x="928" y="219" type="curve" smooth="yes"/>
      <point x="975" y="290"/>
      <point x="1026" y="396"/>
      <point x="1063" y="516" type="curve" smooth="yes"/>
      <point x="1120" y="696"/>
      <point x="1151" y="871"/>
      <point x="1151" y="1024" type="curve" smooth="yes"/>
      <point x="1151" y="1192"/>
      <point x="1119" y="1316"/>
      <point x="1054" y="1397" type="curve" smooth="yes"/>
      <point x="987" y="1482"/>
      <point x="889" y="1520"/>
      <point x="753" y="1520" type="curve" smooth="yes"/>
      <point x="564" y="1520"/>
      <point x="416" y="1440"/>
      <point x="303" y="1271" type="curve" smooth="yes"/>
      <point x="278" y="1233"/>
      <point x="254" y="1190"/>
      <point x="231" y="1141" type="curve" smooth="yes"/>
      <point x="183" y="1034"/>
      <point x="151" y="927"/>
      <point x="132" y="846" type="curve" smooth="yes"/>
      <point x="122" y="805"/>
      <point x="113" y="761"/>
      <point x="104" y="712" type="curve" smooth="yes"/>
      <point x="89" y="630"/>
      <point x="82" y="550"/>
      <point x="82" y="473" type="curve" smooth="yes"/>
      <point x="82" y="130"/>
      <point x="209" y="-29"/>
      <point x="478" y="-29" type="curve" smooth="yes"/>
    </contour>
    <contour>
      <point x="429" y="135"/>
      <point x="377" y="158"/>
      <point x="340" y="203" type="curve"/>
      <point x="303" y="254"/>
      <point x="287" y="317"/>
      <point x="287" y="429" type="curve" smooth="yes"/>
      <point x="287" y="550"/>
      <point x="302" y="677"/>
      <point x="333" y="808" type="curve" smooth="yes"/>
      <point x="364" y="945"/>
      <point x="408" y="1072"/>
      <point x="455" y="1160" type="curve" smooth="yes"/>
      <point x="520" y="1285"/>
      <point x="611" y="1356"/>
      <point x="734" y="1356" type="curve" smooth="yes"/>
      <point x="803" y="1356"/>
      <point x="855" y="1334"/>
      <point x="892" y="1289" type="curve" smooth="yes"/>
      <point x="928" y="1244"/>
      <point x="944" y="1179"/>
      <point x="944" y="1067" type="curve" smooth="yes"/>
      <point x="944" y="956"/>
      <point x="929" y="817"/>
      <point x="898" y="684" type="curve" smooth="yes"/>
      <point x="873" y="568"/>
      <point x="829" y="427"/>
      <point x="778" y="331" type="curve" smooth="yes"/>
      <point x="711" y="204"/>
      <point x="619" y="135"/>
      <point x="498" y="135" type="curve" smooth="yes"/>
    </contour>
  </outline>
</glyph>
<glyph name="Odieresis" format="1">
  <advance width="1233"/>
  <unicode hex="00D6"/>
  <note>
	Odieresis
  </note>
  <outline>
    <contour>
      <point x="634" y="1627" type="line" smooth="yes"/>
      <point x="651" y="1627"/>
      <point x="662" y="1636"/>
      <point x="666" y="1654" type="curve" smooth="yes"/>
      <point x="695" y="1797" type="line"/>
      <point x="696" y="1798"/>
      <point x="696" y="1801"/>
      <point x="696" y="1806" type="curve" smooth="yes"/>
      <point x="696" y="1822"/>
      <point x="687" y="1830"/>
      <point x="669" y="1830" type="curve" smooth="yes"/>
      <point x="525" y="1830" type="line" smooth="yes"/>
      <point x="507" y="1830"/>
      <point x="496" y="1821"/>
      <point x="493" y="1803" type="curve" smooth="yes"/>
      <point x="465" y="1660" type="line" smooth="yes"/>
      <point x="461" y="1640"/>
      <point x="472" y="1627"/>
      <point x="492" y="1627" type="curve" smooth="yes"/>
    </contour>
    <contour>
      <point x="1026" y="1627" type="line" smooth="yes"/>
      <point x="1045" y="1627"/>
      <point x="1055" y="1636"/>
      <point x="1058" y="1654" type="curve" smooth="yes"/>
      <point x="1086" y="1797" type="line" smooth="yes"/>
      <point x="1090" y="1817"/>
      <point x="1079" y="1830"/>
      <point x="1059" y="1830" type="curve" smooth="yes"/>
      <point x="916" y="1830" type="line" smooth="yes"/>
      <point x="898" y="1830"/>
      <point x="887" y="1821"/>
      <point x="884" y="1803" type="curve" smooth="yes"/>
      <point x="856" y="1660" type="line" smooth="yes"/>
      <point x="852" y="1640"/>
      <point x="863" y="1627"/>
      <point x="883" y="1627" type="curve" smooth="yes"/>
    </contour>
    <contour>
      <point x="574" y="-29"/>
      <point x="658" y="-9"/>
      <point x="731" y="32" type="curve" smooth="yes"/>
      <point x="807" y="75"/>
      <point x="876" y="140"/>
      <point x="928" y="219" type="curve" smooth="yes"/>
      <point x="975" y="290"/>
      <point x="1026" y="396"/>
      <point x="1063" y="516" type="curve" smooth="yes"/>
      <point x="1120" y="696"/>
      <point x="1151" y="871"/>
      <point x="1151" y="1024" type="curve" smooth="yes"/>
      <point x="1151" y="1192"/>
      <point x="1119" y="1316"/>
      <point x="1054" y="1397" type="curve" smooth="yes"/>
      <point x="987" y="1482"/>
      <point x="889" y="1520"/>
      <point x="753" y="1520" type="curve" smooth="yes"/>
      <point x="564" y="1520"/>
      <point x="416" y="1440"/>
      <point x="303" y="1271" type="curve" smooth="yes"/>
      <point x="278" y="1233"/>
      <point x="254" y="1190"/>
      <point x="231" y="1141" type="curve" smooth="yes"/>
      <point x="183" y="1034"/>
      <point x="151" y="927"/>
      <point x="132" y="846" type="curve" smooth="yes"/>
      <point x="122" y="805"/>
      <point x="113" y="761"/>
      <point x="104" y="712" type="curve" smooth="yes"/>
      <point x="89" y="630"/>
      <point x="82" y="550"/>
      <point x="82" y="473" type="curve" smooth="yes"/>
      <point x="82" y="130"/>
      <point x="209" y="-29"/>
      <point x="478" y="-29" type="curve" smooth="yes"/>
    </contour>
    <contour>
      <point x="429" y="135"/>
      <point x="377" y="158"/>
      <point x="340" y="203" type="curve"/>
      <point x="303" y="254"/>
      <point x="287" y="317"/>
      <point x="287" y="429" type="curve" smooth="yes"/>
      <point x="287" y="550"/>
      <point x="302" y="677"/>
      <point x="333" y="808" type="curve" smooth="yes"/>
      <point x="364" y="945"/>
      <point x="408" y="1072"/>
      <point x="455" y="1160" type="curve" smooth="yes"/>
      <point x="520" y="1285"/>
      <point x="611" y="1356"/>
      <point x="734" y="1356" type="curve" smooth="yes"/>
      <point x="803" y="1356"/>
      <point x="855" y="1334"/>
      <point x="892" y="1289" type="curve" smooth="yes"/>
      <point x="928" y="1244"/>
      <point x="944" y="1179"/>
      <point x="944" y="1067" type="curve" smooth="yes"/>
      <point x="944" y="956"/>
      <point x="929" y="817"/>
      <point x="898" y="684" type="curve" smooth="yes"/>
      <point x="873" y="568"/>
      <point x="829" y="427"/>
      <point x="778" y="331" type="curve" smooth="yes"/>
      <point x="711" y="204"/>
      <point x="619" y="135"/>
      <point x="498" y="135" type="curve" smooth="yes"/>
    </contour>
  </outline>
</glyph>
<glyph name="Oslash" format="1">
  <advance width="1233"/>
  <unicode hex="00D8"/>
  <note>
	Oslash
  </note>
  <outline>
    <contour>
      <point x="207" y="63" type="line"/>
      <point x="274" y="3"/>
      <point x="371" y="-29"/>
      <point x="479" y="-29" type="curve" smooth="yes"/>
      <point x="684" y="-29"/>
      <point x="846" y="69"/>
      <point x="962" y="276" type="curve" smooth="yes"/>
      <point x="1075" y="477"/>
      <point x="1151" y="782"/>
      <point x="1151" y="1039" type="curve" smooth="yes"/>
      <point x="1151" y="1160"/>
      <point x="1134" y="1252"/>
      <point x="1094" y="1337" type="curve"/>
      <point x="1200" y="1495" type="line"/>
      <point x="1100" y="1559" type="line"/>
      <point x="1016" y="1434" type="line"/>
      <point x="944" y="1491"/>
      <point x="866" y="1520"/>
      <point x="750" y="1520" type="curve" smooth="yes"/>
      <point x="547" y="1520"/>
      <point x="385" y="1420"/>
      <point x="269" y="1217" type="curve" smooth="yes"/>
      <point x="153" y="1010"/>
      <point x="80" y="712"/>
      <point x="80" y="452" type="curve" smooth="yes"/>
      <point x="80" y="327"/>
      <point x="97" y="241"/>
      <point x="133" y="164" type="curve"/>
      <point x="14" y="-6" type="line"/>
      <point x="113" y="-70" type="line"/>
    </contour>
    <contour>
      <point x="291" y="394" type="line"/>
      <point x="290" y="395"/>
      <point x="290" y="396"/>
      <point x="290" y="397" type="curve" smooth="yes"/>
      <point x="290" y="404" type="line" smooth="yes"/>
      <point x="290" y="409"/>
      <point x="290" y="414"/>
      <point x="289" y="419" type="curve"/>
      <point x="287" y="457" type="line"/>
      <point x="287" y="612"/>
      <point x="320" y="752"/>
      <point x="352" y="873" type="curve" smooth="yes"/>
      <point x="369" y="936"/>
      <point x="384" y="985"/>
      <point x="395" y="1018" type="curve" smooth="yes"/>
      <point x="476" y="1250"/>
      <point x="580" y="1356"/>
      <point x="727" y="1356" type="curve" smooth="yes"/>
      <point x="807" y="1356"/>
      <point x="872" y="1322"/>
      <point x="905" y="1274" type="curve"/>
      <point x="291" y="389" type="line"/>
    </contour>
    <contour>
      <point x="413" y="135"/>
      <point x="349" y="170"/>
      <point x="322" y="229" type="curve"/>
      <point x="938" y="1116" type="line"/>
      <point x="940" y="1082" type="line"/>
      <point x="940" y="1036" type="line" smooth="yes"/>
      <point x="940" y="954"/>
      <point x="931" y="864"/>
      <point x="913" y="766" type="curve" smooth="yes"/>
      <point x="901" y="691"/>
      <point x="868" y="560"/>
      <point x="836" y="473" type="curve" smooth="yes"/>
      <point x="795" y="358"/>
      <point x="748" y="272"/>
      <point x="695" y="217" type="curve" smooth="yes"/>
      <point x="641" y="162"/>
      <point x="576" y="135"/>
      <point x="501" y="135" type="curve" smooth="yes"/>
    </contour>
  </outline>
</glyph>
<glyph name="Ucircumflex" format="1">
  <advance width="1233"/>
  <unicode hex="00DB"/>
  <note>
	Ucircumflex
  </note>
  <outline>
    <contour>
      <point x="598" y="1595" type="line"/>
      <point x="807" y="1773" type="line"/>
      <point x="946" y="1595" type="line"/>
      <point x="1079" y="1595" type="line"/>
      <point x="921" y="1861" type="line"/>
      <point x="708" y="1861" type="line"/>
      <point x="446" y="1595" type="line"/>
    </contour>
    <contour>
      <point x="621" y="-29"/>
      <point x="755" y="17"/>
      <point x="838" y="86" type="curve" smooth="yes"/>
      <point x="891" y="130"/>
      <point x="933" y="186"/>
      <point x="964" y="253" type="curve"/>
      <point x="1001" y="341"/>
      <point x="1022" y="408"/>
      <point x="1053" y="573" type="curve" smooth="yes"/>
      <point x="1231" y="1493" type="line"/>
      <point x="1028" y="1493" type="line"/>
      <point x="850" y="573" type="line" smooth="yes"/>
      <point x="827" y="464"/>
      <point x="811" y="394"/>
      <point x="801" y="361" type="curve" smooth="yes"/>
      <point x="773" y="262"/>
      <point x="740" y="208"/>
      <point x="649" y="165" type="curve" smooth="yes"/>
      <point x="605" y="144"/>
      <point x="561" y="135"/>
      <point x="501" y="135" type="curve" smooth="yes"/>
      <point x="424" y="135"/>
      <point x="369" y="150"/>
      <point x="334" y="181" type="curve" smooth="yes"/>
      <point x="299" y="210"/>
      <point x="279" y="257"/>
      <point x="279" y="313" type="curve" smooth="yes"/>
      <point x="279" y="360"/>
      <point x="289" y="433"/>
      <point x="309" y="532" type="curve" smooth="yes"/>
      <point x="314" y="555"/>
      <point x="316" y="569"/>
      <point x="317" y="573" type="curve"/>
      <point x="496" y="1493" type="line"/>
      <point x="293" y="1493" type="line"/>
      <point x="115" y="573" type="line" smooth="yes"/>
      <point x="107" y="536"/>
      <point x="97" y="476"/>
      <point x="89" y="417" type="curve" smooth="yes"/>
      <point x="83" y="378"/>
      <point x="80" y="344"/>
      <point x="80" y="315" type="curve" smooth="yes"/>
      <point x="80" y="96"/>
      <point x="224" y="-29"/>
      <point x="477" y="-29" type="curve" smooth="yes"/>
    </contour>
  </outline>
</glyph>
<glyph name="Udieresis" format="1">
  <advance width="1233"/>
  <unicode hex="00DC"/>
  <note>
	Udieresis
  </note>
  <outline>
    <contour>
      <point x="646" y="1627" type="line" smooth="yes"/>
      <point x="663" y="1627"/>
      <point x="674" y="1636"/>
      <point x="678" y="1654" type="curve" smooth="yes"/>
      <point x="707" y="1797" type="line"/>
      <point x="708" y="1798"/>
      <point x="708" y="1801"/>
      <point x="708" y="1806" type="curve" smooth="yes"/>
      <point x="708" y="1822"/>
      <point x="699" y="1830"/>
      <point x="681" y="1830" type="curve" smooth="yes"/>
      <point x="537" y="1830" type="line" smooth="yes"/>
      <point x="519" y="1830"/>
      <point x="508" y="1821"/>
      <point x="505" y="1803" type="curve" smooth="yes"/>
      <point x="477" y="1660" type="line" smooth="yes"/>
      <point x="473" y="1640"/>
      <point x="484" y="1627"/>
      <point x="504" y="1627" type="curve" smooth="yes"/>
    </contour>
    <contour>
      <point x="1038" y="1627" type="line" smooth="yes"/>
      <point x="1057" y="1627"/>
      <point x="1067" y="1636"/>
      <point x="1070" y="1654" type="curve" smooth="yes"/>
      <point x="1098" y="1797" type="line" smooth="yes"/>
      <point x="1102" y="1817"/>
      <point x="1091" y="1830"/>
      <point x="1071" y="1830" type="curve" smooth="yes"/>
      <point x="928" y="1830" type="line" smooth="yes"/>
      <point x="910" y="1830"/>
      <point x="899" y="1821"/>
      <point x="896" y="1803" type="curve" smooth="yes"/>
      <point x="868" y="1660" type="line" smooth="yes"/>
      <point x="864" y="1640"/>
      <point x="875" y="1627"/>
      <point x="895" y="1627" type="curve" smooth="yes"/>
    </contour>
    <contour>
      <point x="621" y="-29"/>
      <point x="755" y="17"/>
      <point x="838" y="86" type="curve" smooth="yes"/>
      <point x="891" y="130"/>
      <point x="933" y="186"/>
      <point x="964" y="253" type="curve"/>
      <point x="1001" y="341"/>
      <point x="1022" y="408"/>
      <point x="1053" y="573" type="curve" smooth="yes"/>
      <point x="1231" y="1493" type="line"/>
      <point x="1028" y="1493" type="line"/>
      <point x="850" y="573" type="line" smooth="yes"/>
      <point x="827" y="464"/>
      <point x="811" y="394"/>
      <point x="801" y="361" type="curve" smooth="yes"/>
      <point x="773" y="262"/>
      <point x="740" y="208"/>
      <point x="649" y="165" type="curve" smooth="yes"/>
      <point x="605" y="144"/>
      <point x="561" y="135"/>
      <point x="501" y="135" type="curve" smooth="yes"/>
      <point x="424" y="135"/>
      <point x="369" y="150"/>
      <point x="334" y="181" type="curve" smooth="yes"/>
      <point x="299" y="210"/>
      <point x="279" y="257"/>
      <point x="279" y="313" type="curve" smooth="yes"/>
      <point x="279" y="360"/>
      <point x="289" y="433"/>
      <point x="309" y="532" type="curve" smooth="yes"/>
      <point x="314" y="555"/>
      <point x="316" y="569"/>
      <point x="317" y="573" type="curve"/>
      <point x="496" y="1493" type="line"/>
      <point x="293" y="1493" type="line"/>
      <point x="115" y="573" type="line" smooth="yes"/>
      <point x="107" y="536"/>
      <point x="97" y="476"/>
      <point x="89" y="417" type="curve" smooth="yes"/>
      <point x="83" y="378"/>
      <point x="80" y="344"/>
      <point x="80" y="315" type="curve" smooth="yes"/>
      <point x="80" y="96"/>
      <point x="224" y="-29"/>
      <point x="477" y="-29" type="curve" smooth="yes"/>
    </contour>
  </outline>
</glyph>
<glyph name="Yacute" format="1">
  <advance width="1233"/>
  <unicode hex="00DD"/>
  <note>
	Yacute
  </note>
  <outline>
    <contour>
      <point x="822" y="1595" type="line"/>
      <point x="1129" y="1859" type="line"/>
      <point x="921" y="1859" type="line"/>
      <point x="662" y="1595" type="line"/>
    </contour>
    <contour>
      <point x="584" y="0" type="line"/>
      <point x="713" y="670" type="line"/>
      <point x="1348" y="1493" type="line"/>
      <point x="1130" y="1493" type="line"/>
      <point x="633" y="842" type="line"/>
      <point x="397" y="1493" type="line"/>
      <point x="195" y="1493" type="line"/>
      <point x="508" y="670" type="line"/>
      <point x="377" y="0" type="line"/>
    </contour>
  </outline>
</glyph>
<glyph name="germandbls" format="1">
  <advance width="1233"/>
  <unicode hex="00DF"/>
  <note>
	germandbls
  </note>
  <outline>
    <contour>
      <point x="899" y="-29"/>
      <point x="1081" y="129"/>
      <point x="1081" y="364" type="curve" smooth="yes"/>
      <point x="1081" y="427"/>
      <point x="1068" y="480"/>
      <point x="1041" y="523" type="curve" smooth="yes"/>
      <point x="1013" y="570"/>
      <point x="969" y="609"/>
      <point x="885" y="674" type="curve" smooth="yes"/>
      <point x="834" y="713" type="line" smooth="yes"/>
      <point x="789" y="748"/>
      <point x="771" y="763"/>
      <point x="754" y="788" type="curve" smooth="yes"/>
      <point x="739" y="809"/>
      <point x="733" y="829"/>
      <point x="733" y="857" type="curve" smooth="yes"/>
      <point x="733" y="941"/>
      <point x="796" y="1012"/>
      <point x="909" y="1059" type="curve" smooth="yes"/>
      <point x="965" y="1082"/>
      <point x="1031" y="1099"/>
      <point x="1108" y="1108" type="curve"/>
      <point x="1120" y="1147"/>
      <point x="1126" y="1199"/>
      <point x="1126" y="1244" type="curve" smooth="yes"/>
      <point x="1126" y="1346"/>
      <point x="1095" y="1423"/>
      <point x="1032" y="1476" type="curve" smooth="yes"/>
      <point x="971" y="1528"/>
      <point x="878" y="1556"/>
      <point x="758" y="1556" type="curve" smooth="yes"/>
      <point x="491" y="1556"/>
      <point x="331" y="1418"/>
      <point x="276" y="1137" type="curve" smooth="yes"/>
      <point x="55" y="0" type="line"/>
      <point x="242" y="0" type="line"/>
      <point x="461" y="1133" type="line" smooth="yes"/>
      <point x="496" y="1317"/>
      <point x="588" y="1405"/>
      <point x="747" y="1405" type="curve" smooth="yes"/>
      <point x="875" y="1405"/>
      <point x="946" y="1348"/>
      <point x="946" y="1227" type="curve" smooth="yes"/>
      <point x="946" y="1220" type="line" smooth="yes"/>
      <point x="946" y="1215"/>
      <point x="946" y="1211"/>
      <point x="945" y="1208" type="curve"/>
      <point x="944" y="1196"/>
      <point x="942" y="1186"/>
      <point x="940" y="1178" type="curve"/>
      <point x="704" y="1133"/>
      <point x="559" y="993"/>
      <point x="559" y="820" type="curve" smooth="yes"/>
      <point x="559" y="735"/>
      <point x="595" y="691"/>
      <point x="631" y="658" type="curve"/>
      <point x="648" y="641"/>
      <point x="673" y="621"/>
      <point x="705" y="596" type="curve" smooth="yes"/>
      <point x="766" y="549" type="line" smooth="yes"/>
      <point x="827" y="502"/>
      <point x="857" y="476"/>
      <point x="878" y="445" type="curve" smooth="yes"/>
      <point x="897" y="418"/>
      <point x="905" y="389"/>
      <point x="905" y="348" type="curve" smooth="yes"/>
      <point x="905" y="211"/>
      <point x="798" y="119"/>
      <point x="623" y="119" type="curve" smooth="yes"/>
      <point x="530" y="119"/>
      <point x="436" y="141"/>
      <point x="360" y="184" type="curve"/>
      <point x="330" y="20" type="line"/>
      <point x="381" y="1"/>
      <point x="411" y="-8"/>
      <point x="462" y="-16" type="curve"/>
      <point x="508" y="-25"/>
      <point x="554" y="-29"/>
      <point x="599" y="-29" type="curve" smooth="yes"/>
    </contour>
  </outline>
</glyph>
<glyph name="acircumflex" format="1">
  <advance width="1233"/>
  <unicode hex="00E2"/>
  <note>
	acircumflex
  </note>
  <outline>
    <contour>
      <point x="557" y="1297" type="line"/>
      <point x="782" y="1538" type="line"/>
      <point x="899" y="1297" type="line"/>
      <point x="1032" y="1297" type="line"/>
      <point x="868" y="1673" type="line"/>
      <point x="721" y="1673" type="line"/>
      <point x="401" y="1297" type="line"/>
    </contour>
    <contour>
      <point x="555" y="-29"/>
      <point x="690" y="41"/>
      <point x="786" y="166" type="curve"/>
      <point x="774" y="0" type="line"/>
      <point x="938" y="0" type="line"/>
      <point x="1063" y="639" type="line"/>
      <point x="1073" y="695" type="line" smooth="yes"/>
      <point x="1082" y="751"/>
      <point x="1087" y="799"/>
      <point x="1087" y="839" type="curve" smooth="yes"/>
      <point x="1087" y="934"/>
      <point x="1050" y="1013"/>
      <point x="985" y="1065" type="curve" smooth="yes"/>
      <point x="918" y="1120"/>
      <point x="820" y="1147"/>
      <point x="693" y="1147" type="curve" smooth="yes"/>
      <point x="573" y="1147"/>
      <point x="440" y="1121"/>
      <point x="303" y="1069" type="curve"/>
      <point x="268" y="889" type="line"/>
      <point x="417" y="958"/>
      <point x="549" y="991"/>
      <point x="665" y="991" type="curve" smooth="yes"/>
      <point x="742" y="991"/>
      <point x="802" y="976"/>
      <point x="844" y="946" type="curve"/>
      <point x="884" y="915"/>
      <point x="907" y="875"/>
      <point x="907" y="804" type="curve" smooth="yes"/>
      <point x="907" y="797" type="line" smooth="yes"/>
      <point x="907" y="792"/>
      <point x="907" y="789"/>
      <point x="906" y="787" type="curve"/>
      <point x="903" y="768" type="line"/>
      <point x="891" y="707" type="line"/>
      <point x="645" y="707" type="line" smooth="yes"/>
      <point x="470" y="707"/>
      <point x="327" y="667"/>
      <point x="226" y="590" type="curve" smooth="yes"/>
      <point x="126" y="514"/>
      <point x="72" y="404"/>
      <point x="72" y="280" type="curve" smooth="yes"/>
      <point x="72" y="184"/>
      <point x="103" y="109"/>
      <point x="164" y="54" type="curve" smooth="yes"/>
      <point x="224" y="-1"/>
      <point x="305" y="-29"/>
      <point x="407" y="-29" type="curve" smooth="yes"/>
    </contour>
    <contour>
      <point x="336" y="125"/>
      <point x="264" y="196"/>
      <point x="264" y="307" type="curve" smooth="yes"/>
      <point x="264" y="356"/>
      <point x="278" y="401"/>
      <point x="305" y="442" type="curve" smooth="yes"/>
      <point x="334" y="487"/>
      <point x="370" y="511"/>
      <point x="414" y="530" type="curve" smooth="yes"/>
      <point x="477" y="555"/>
      <point x="529" y="563"/>
      <point x="692" y="563" type="curve" smooth="yes"/>
      <point x="864" y="563" type="line"/>
      <point x="856" y="522" type="line" smooth="yes"/>
      <point x="808" y="281"/>
      <point x="652" y="125"/>
      <point x="461" y="125" type="curve" smooth="yes"/>
    </contour>
  </outline>
</glyph>
<glyph name="adieresis" format="1">
  <advance width="1233"/>
  <unicode hex="00E4"/>
  <note>
	adieresis
  </note>
  <outline>
    <contour>
      <point x="616" y="1350" type="line" smooth="yes"/>
      <point x="635" y="1350"/>
      <point x="645" y="1359"/>
      <point x="648" y="1377" type="curve" smooth="yes"/>
      <point x="676" y="1519" type="line" smooth="yes"/>
      <point x="680" y="1539"/>
      <point x="669" y="1552"/>
      <point x="649" y="1552" type="curve" smooth="yes"/>
      <point x="506" y="1552" type="line" smooth="yes"/>
      <point x="488" y="1552"/>
      <point x="477" y="1543"/>
      <point x="474" y="1525" type="curve" smooth="yes"/>
      <point x="446" y="1383" type="line" smooth="yes"/>
      <point x="442" y="1363"/>
      <point x="453" y="1350"/>
      <point x="473" y="1350" type="curve" smooth="yes"/>
    </contour>
    <contour>
      <point x="1007" y="1350" type="line" smooth="yes"/>
      <point x="1026" y="1350"/>
      <point x="1036" y="1359"/>
      <point x="1039" y="1377" type="curve" smooth="yes"/>
      <point x="1067" y="1519" type="line" smooth="yes"/>
      <point x="1071" y="1539"/>
      <point x="1060" y="1552"/>
      <point x="1040" y="1552" type="curve" smooth="yes"/>
      <point x="897" y="1552" type="line" smooth="yes"/>
      <point x="879" y="1552"/>
      <point x="868" y="1543"/>
      <point x="865" y="1525" type="curve" smooth="yes"/>
      <point x="837" y="1383" type="line" smooth="yes"/>
      <point x="833" y="1363"/>
      <point x="844" y="1350"/>
      <point x="864" y="1350" type="curve" smooth="yes"/>
    </contour>
    <contour>
      <point x="555" y="-29"/>
      <point x="690" y="41"/>
      <point x="786" y="166" type="curve"/>
      <point x="774" y="0" type="line"/>
      <point x="938" y="0" type="line"/>
      <point x="1063" y="639" type="line"/>
      <point x="1073" y="695" type="line" smooth="yes"/>
      <point x="1082" y="751"/>
      <point x="1087" y="799"/>
      <point x="1087" y="839" type="curve" smooth="yes"/>
      <point x="1087" y="934"/>
      <point x="1050" y="1013"/>
      <point x="985" y="1065" type="curve" smooth="yes"/>
      <point x="918" y="1120"/>
      <point x="820" y="1147"/>
      <point x="693" y="1147" type="curve" smooth="yes"/>
      <point x="573" y="1147"/>
      <point x="440" y="1121"/>
      <point x="303" y="1069" type="curve"/>
      <point x="268" y="889" type="line"/>
      <point x="417" y="958"/>
      <point x="550" y="991"/>
      <point x="663" y="991" type="curve" smooth="yes"/>
      <point x="822" y="991"/>
      <point x="907" y="934"/>
      <point x="907" y="806" type="curve" smooth="yes"/>
      <point x="907" y="798" type="line" smooth="yes"/>
      <point x="907" y="793"/>
      <point x="907" y="789"/>
      <point x="906" y="787" type="curve"/>
      <point x="903" y="768" type="line"/>
      <point x="891" y="707" type="line"/>
      <point x="645" y="707" type="line" smooth="yes"/>
      <point x="470" y="707"/>
      <point x="327" y="667"/>
      <point x="226" y="590" type="curve" smooth="yes"/>
      <point x="126" y="514"/>
      <point x="72" y="404"/>
      <point x="72" y="280" type="curve" smooth="yes"/>
      <point x="72" y="184"/>
      <point x="103" y="109"/>
      <point x="164" y="54" type="curve" smooth="yes"/>
      <point x="224" y="-1"/>
      <point x="305" y="-29"/>
      <point x="407" y="-29" type="curve" smooth="yes"/>
    </contour>
    <contour>
      <point x="336" y="125"/>
      <point x="264" y="196"/>
      <point x="264" y="307" type="curve" smooth="yes"/>
      <point x="264" y="356"/>
      <point x="278" y="401"/>
      <point x="305" y="442" type="curve" smooth="yes"/>
      <point x="334" y="487"/>
      <point x="370" y="511"/>
      <point x="414" y="530" type="curve" smooth="yes"/>
      <point x="477" y="555"/>
      <point x="529" y="563"/>
      <point x="692" y="563" type="curve" smooth="yes"/>
      <point x="864" y="563" type="line"/>
      <point x="856" y="522" type="line" smooth="yes"/>
      <point x="808" y="281"/>
      <point x="652" y="125"/>
      <point x="461" y="125" type="curve" smooth="yes"/>
    </contour>
  </outline>
</glyph>
<glyph name="aring" format="1">
  <advance width="1233"/>
  <unicode hex="00E5"/>
  <note>
	aring
  </note>
  <outline>
    <contour>
      <point x="882" y="1321"/>
      <point x="971" y="1373"/>
      <point x="1020" y="1457" type="curve" smooth="yes"/>
      <point x="1045" y="1499"/>
      <point x="1057" y="1545"/>
      <point x="1057" y="1595" type="curve" smooth="yes"/>
      <point x="1057" y="1696"/>
      <point x="1005" y="1785"/>
      <point x="921" y="1834" type="curve" smooth="yes"/>
      <point x="879" y="1858"/>
      <point x="833" y="1870"/>
      <point x="782" y="1870" type="curve" smooth="yes"/>
      <point x="682" y="1870"/>
      <point x="593" y="1818"/>
      <point x="545" y="1734" type="curve" smooth="yes"/>
      <point x="520" y="1692"/>
      <point x="508" y="1646"/>
      <point x="508" y="1595" type="curve" smooth="yes"/>
      <point x="508" y="1495"/>
      <point x="560" y="1406"/>
      <point x="644" y="1358" type="curve" smooth="yes"/>
      <point x="686" y="1333"/>
      <point x="732" y="1321"/>
      <point x="782" y="1321" type="curve" smooth="yes"/>
    </contour>
    <contour>
      <point x="727" y="1444"/>
      <point x="678" y="1472"/>
      <point x="651" y="1519" type="curve" smooth="yes"/>
      <point x="638" y="1542"/>
      <point x="631" y="1568"/>
      <point x="631" y="1595" type="curve" smooth="yes"/>
      <point x="631" y="1652"/>
      <point x="660" y="1700"/>
      <point x="706" y="1727" type="curve" smooth="yes"/>
      <point x="729" y="1740"/>
      <point x="754" y="1747"/>
      <point x="782" y="1747" type="curve" smooth="yes"/>
      <point x="838" y="1747"/>
      <point x="887" y="1719"/>
      <point x="914" y="1672" type="curve" smooth="yes"/>
      <point x="927" y="1649"/>
      <point x="934" y="1623"/>
      <point x="934" y="1595" type="curve" smooth="yes"/>
      <point x="934" y="1540"/>
      <point x="906" y="1491"/>
      <point x="859" y="1464" type="curve" smooth="yes"/>
      <point x="836" y="1451"/>
      <point x="810" y="1444"/>
      <point x="782" y="1444" type="curve" smooth="yes"/>
    </contour>
    <contour>
      <point x="555" y="-29"/>
      <point x="690" y="41"/>
      <point x="786" y="166" type="curve"/>
      <point x="774" y="0" type="line"/>
      <point x="938" y="0" type="line"/>
      <point x="1063" y="639" type="line"/>
      <point x="1073" y="695" type="line" smooth="yes"/>
      <point x="1082" y="751"/>
      <point x="1087" y="799"/>
      <point x="1087" y="839" type="curve" smooth="yes"/>
      <point x="1087" y="934"/>
      <point x="1050" y="1013"/>
      <point x="985" y="1065" type="curve" smooth="yes"/>
      <point x="918" y="1120"/>
      <point x="820" y="1147"/>
      <point x="693" y="1147" type="curve" smooth="yes"/>
      <point x="573" y="1147"/>
      <point x="440" y="1121"/>
      <point x="303" y="1069" type="curve"/>
      <point x="268" y="889" type="line"/>
      <point x="417" y="958"/>
      <point x="549" y="991"/>
      <point x="665" y="991" type="curve" smooth="yes"/>
      <point x="742" y="991"/>
      <point x="802" y="976"/>
      <point x="844" y="946" type="curve"/>
      <point x="884" y="915"/>
      <point x="907" y="875"/>
      <point x="907" y="804" type="curve" smooth="yes"/>
      <point x="907" y="797" type="line" smooth="yes"/>
      <point x="907" y="792"/>
      <point x="907" y="789"/>
      <point x="906" y="787" type="curve"/>
      <point x="903" y="768" type="line"/>
      <point x="891" y="707" type="line"/>
      <point x="645" y="707" type="line" smooth="yes"/>
      <point x="470" y="707"/>
      <point x="327" y="667"/>
      <point x="226" y="590" type="curve" smooth="yes"/>
      <point x="126" y="514"/>
      <point x="72" y="404"/>
      <point x="72" y="280" type="curve" smooth="yes"/>
      <point x="72" y="184"/>
      <point x="103" y="109"/>
      <point x="164" y="54" type="curve" smooth="yes"/>
      <point x="224" y="-1"/>
      <point x="305" y="-29"/>
      <point x="407" y="-29" type="curve" smooth="yes"/>
    </contour>
    <contour>
      <point x="336" y="125"/>
      <point x="264" y="196"/>
      <point x="264" y="307" type="curve" smooth="yes"/>
      <point x="264" y="356"/>
      <point x="278" y="401"/>
      <point x="305" y="442" type="curve" smooth="yes"/>
      <point x="334" y="487"/>
      <point x="370" y="511"/>
      <point x="414" y="530" type="curve" smooth="yes"/>
      <point x="477" y="555"/>
      <point x="529" y="563"/>
      <point x="692" y="563" type="curve" smooth="yes"/>
      <point x="864" y="563" type="line"/>
      <point x="856" y="522" type="line" smooth="yes"/>
      <point x="808" y="281"/>
      <point x="652" y="125"/>
      <point x="461" y="125" type="curve" smooth="yes"/>
    </contour>
  </outline>
</glyph>
<glyph name="ae" format="1">
  <advance width="1233"/>
  <unicode hex="00E6"/>
  <note>
	ae
  </note>
  <outline>
    <contour>
      <point x="358" y="-29"/>
      <point x="453" y="26"/>
      <point x="514" y="131" type="curve"/>
      <point x="546" y="30"/>
      <point x="642" y="-29"/>
      <point x="785" y="-29" type="curve" smooth="yes"/>
      <point x="834" y="-29"/>
      <point x="879" y="-22"/>
      <point x="922" y="-8" type="curve" smooth="yes"/>
      <point x="963" y="5"/>
      <point x="1011" y="28"/>
      <point x="1047" y="55" type="curve"/>
      <point x="1081" y="227" type="line"/>
      <point x="1009" y="159"/>
      <point x="908" y="119"/>
      <point x="815" y="119" type="curve" smooth="yes"/>
      <point x="704" y="119"/>
      <point x="633" y="180"/>
      <point x="633" y="285" type="curve" smooth="yes"/>
      <point x="633" y="301"/>
      <point x="636" y="329"/>
      <point x="641" y="368" type="curve" smooth="yes"/>
      <point x="646" y="405"/>
      <point x="655" y="453"/>
      <point x="668" y="514" type="curve"/>
      <point x="1163" y="514" type="line"/>
      <point x="1180" y="604" type="line"/>
      <point x="1187" y="644" type="line"/>
      <point x="1193" y="676" type="line"/>
      <point x="1202" y="730" type="line"/>
      <point x="1202" y="733"/>
      <point x="1203" y="743"/>
      <point x="1206" y="760" type="curve"/>
      <point x="1211" y="801"/>
      <point x="1214" y="837"/>
      <point x="1214" y="867" type="curve" smooth="yes"/>
      <point x="1214" y="948"/>
      <point x="1190" y="1019"/>
      <point x="1143" y="1070" type="curve" smooth="yes"/>
      <point x="1096" y="1121"/>
      <point x="1031" y="1147"/>
      <point x="950" y="1147" type="curve" smooth="yes"/>
      <point x="842" y="1147"/>
      <point x="744" y="1099"/>
      <point x="680" y="1018" type="curve"/>
      <point x="637" y="1102"/>
      <point x="558" y="1147"/>
      <point x="450" y="1147" type="curve" smooth="yes"/>
      <point x="379" y="1147"/>
      <point x="287" y="1126"/>
      <point x="176" y="1079" type="curve"/>
      <point x="141" y="911" type="line"/>
      <point x="228" y="959"/>
      <point x="332" y="995"/>
      <point x="400" y="995" type="curve" smooth="yes"/>
      <point x="451" y="995"/>
      <point x="494" y="978"/>
      <point x="519" y="953" type="curve" smooth="yes"/>
      <point x="547" y="925"/>
      <point x="561" y="885"/>
      <point x="561" y="832" type="curve" smooth="yes"/>
      <point x="561" y="812"/>
      <point x="560" y="776"/>
      <point x="553" y="745" type="curve" smooth="yes"/>
      <point x="535" y="657" type="line"/>
      <point x="418" y="657" type="line" smooth="yes"/>
      <point x="269" y="657"/>
      <point x="154" y="621"/>
      <point x="74" y="549" type="curve" smooth="yes"/>
      <point x="-6" y="477"/>
      <point x="-47" y="371"/>
      <point x="-47" y="252" type="curve" smooth="yes"/>
      <point x="-47" y="159"/>
      <point x="-22" y="90"/>
      <point x="28" y="43" type="curve" smooth="yes"/>
      <point x="73" y="-1"/>
      <point x="146" y="-29"/>
      <point x="234" y="-29" type="curve" smooth="yes"/>
    </contour>
    <contour>
      <point x="711" y="739" type="line" smooth="yes"/>
      <point x="732" y="832"/>
      <point x="752" y="888"/>
      <point x="788" y="932" type="curve" smooth="yes"/>
      <point x="823" y="974"/>
      <point x="867" y="995"/>
      <point x="922" y="995" type="curve" smooth="yes"/>
      <point x="1003" y="995"/>
      <point x="1051" y="944"/>
      <point x="1051" y="844" type="curve" smooth="yes"/>
      <point x="1051" y="807"/>
      <point x="1049" y="775"/>
      <point x="1040" y="731" type="curve" smooth="yes"/>
      <point x="1024" y="657" type="line"/>
      <point x="694" y="657" type="line"/>
    </contour>
    <contour>
      <point x="178" y="123"/>
      <point x="123" y="179"/>
      <point x="123" y="267" type="curve" smooth="yes"/>
      <point x="123" y="296"/>
      <point x="129" y="328"/>
      <point x="141" y="362" type="curve" smooth="yes"/>
      <point x="153" y="395"/>
      <point x="165" y="419"/>
      <point x="188" y="444" type="curve"/>
      <point x="211" y="471"/>
      <point x="235" y="486"/>
      <point x="276" y="498" type="curve" smooth="yes"/>
      <point x="316" y="510"/>
      <point x="362" y="514"/>
      <point x="453" y="514" type="curve" smooth="yes"/>
      <point x="502" y="514" type="line"/>
      <point x="487" y="442" type="line" smooth="yes"/>
      <point x="459" y="303"/>
      <point x="438" y="244"/>
      <point x="401" y="191" type="curve"/>
      <point x="367" y="146"/>
      <point x="322" y="123"/>
      <point x="267" y="123" type="curve" smooth="yes"/>
    </contour>
  </outline>
</glyph>
<glyph name="ccedilla" format="1">
  <advance width="1233"/>
  <unicode hex="00E7"/>
  <note>
	ccedilla
  </note>
  <outline>
    <contour>
      <point x="549" y="933"/>
      <point x="663" y="991"/>
      <point x="810" y="991" type="curve" smooth="yes"/>
      <point x="922" y="991"/>
      <point x="1013" y="956"/>
      <point x="1100" y="879" type="curve"/>
      <point x="1137" y="1061" type="line"/>
      <point x="1029" y="1120"/>
      <point x="923" y="1147"/>
      <point x="804" y="1147" type="curve" smooth="yes"/>
      <point x="713" y="1147"/>
      <point x="631" y="1131"/>
      <point x="559" y="1098" type="curve" smooth="yes"/>
      <point x="488" y="1067"/>
      <point x="414" y="1017"/>
      <point x="354" y="950" type="curve" smooth="yes"/>
      <point x="292" y="881"/>
      <point x="244" y="800"/>
      <point x="209" y="709" type="curve" smooth="yes"/>
      <point x="174" y="618"/>
      <point x="156" y="513"/>
      <point x="156" y="412" type="curve" smooth="yes"/>
      <point x="156" y="127"/>
      <point x="309" y="-15"/>
      <point x="570" y="-28" type="curve"/>
      <point x="605" y="-103"/>
      <point x="613" y="-119"/>
      <point x="613" y="-163" type="curve" smooth="yes"/>
      <point x="613" y="-231"/>
      <point x="560" y="-274"/>
      <point x="472" y="-274" type="curve" smooth="yes"/>
      <point x="427" y="-274"/>
      <point x="379" y="-261"/>
      <point x="326" y="-236" type="curve"/>
      <point x="301" y="-365" type="line"/>
      <point x="360" y="-385"/>
      <point x="422" y="-395"/>
      <point x="485" y="-395" type="curve" smooth="yes"/>
      <point x="648" y="-395"/>
      <point x="746" y="-315"/>
      <point x="746" y="-198" type="curve" smooth="yes"/>
      <point x="746" y="-171"/>
      <point x="740" y="-142"/>
      <point x="729" y="-111" type="curve" smooth="yes"/>
      <point x="725" y="-100"/>
      <point x="708" y="-60"/>
      <point x="688" y="-25" type="curve"/>
      <point x="763" y="-16"/>
      <point x="844" y="-1"/>
      <point x="940" y="51" type="curve"/>
      <point x="979" y="252" type="line"/>
      <point x="874" y="172"/>
      <point x="750" y="127"/>
      <point x="625" y="127" type="curve" smooth="yes"/>
      <point x="438" y="127"/>
      <point x="350" y="226"/>
      <point x="350" y="418" type="curve" smooth="yes"/>
      <point x="350" y="549"/>
      <point x="394" y="704"/>
      <point x="469" y="813" type="curve" smooth="yes"/>
    </contour>
  </outline>
</glyph>
<glyph name="icircumflex" format="1">
  <advance width="1233"/>
  <unicode hex="00EE"/>
  <note>
	icircumflex
  </note>
  <outline>
    <contour>
      <point x="524" y="1297" type="line"/>
      <point x="749" y="1538" type="line"/>
      <point x="866" y="1297" type="line"/>
      <point x="999" y="1297" type="line"/>
      <point x="835" y="1673" type="line"/>
      <point x="688" y="1673" type="line"/>
      <point x="368" y="1297" type="line"/>
    </contour>
    <contour>
      <point x="987" y="152" type="line"/>
      <point x="776" y="152" type="line" smooth="yes"/>
      <point x="655" y="152"/>
      <point x="596" y="198"/>
      <point x="596" y="297" type="curve" smooth="yes"/>
      <point x="596" y="320"/>
      <point x="601" y="364"/>
      <point x="610" y="404" type="curve" smooth="yes"/>
      <point x="772" y="1120" type="line"/>
      <point x="342" y="1120" type="line"/>
      <point x="313" y="976" type="line"/>
      <point x="559" y="976" type="line"/>
      <point x="426" y="408" type="line" smooth="yes"/>
      <point x="415" y="363"/>
      <point x="407" y="285"/>
      <point x="407" y="252" type="curve" smooth="yes"/>
      <point x="407" y="80"/>
      <point x="518" y="-4"/>
      <point x="749" y="-4" type="curve" smooth="yes"/>
      <point x="956" y="-4" type="line"/>
    </contour>
  </outline>
</glyph>
<glyph name="idieresis" format="1">
  <advance width="1233"/>
  <unicode hex="00EF"/>
  <note>
	idieresis
  </note>
  <outline>
    <contour>
      <point x="523" y="1350" type="line" smooth="yes"/>
      <point x="542" y="1350"/>
      <point x="552" y="1359"/>
      <point x="555" y="1377" type="curve" smooth="yes"/>
      <point x="583" y="1519" type="line" smooth="yes"/>
      <point x="587" y="1539"/>
      <point x="576" y="1552"/>
      <point x="556" y="1552" type="curve" smooth="yes"/>
      <point x="413" y="1552" type="line" smooth="yes"/>
      <point x="395" y="1552"/>
      <point x="384" y="1543"/>
      <point x="381" y="1525" type="curve" smooth="yes"/>
      <point x="353" y="1383" type="line" smooth="yes"/>
      <point x="349" y="1363"/>
      <point x="360" y="1350"/>
      <point x="380" y="1350" type="curve" smooth="yes"/>
    </contour>
    <contour>
      <point x="914" y="1350" type="line" smooth="yes"/>
      <point x="933" y="1350"/>
      <point x="943" y="1359"/>
      <point x="946" y="1377" type="curve" smooth="yes"/>
      <point x="974" y="1519" type="line" smooth="yes"/>
      <point x="978" y="1539"/>
      <point x="967" y="1552"/>
      <point x="947" y="1552" type="curve" smooth="yes"/>
      <point x="804" y="1552" type="line" smooth="yes"/>
      <point x="786" y="1552"/>
      <point x="775" y="1543"/>
      <point x="772" y="1525" type="curve" smooth="yes"/>
      <point x="744" y="1383" type="line" smooth="yes"/>
      <point x="740" y="1363"/>
      <point x="751" y="1350"/>
      <point x="771" y="1350" type="curve" smooth="yes"/>
    </contour>
    <contour>
      <point x="987" y="152" type="line"/>
      <point x="776" y="152" type="line" smooth="yes"/>
      <point x="655" y="152"/>
      <point x="596" y="198"/>
      <point x="596" y="297" type="curve" smooth="yes"/>
      <point x="596" y="320"/>
      <point x="601" y="364"/>
      <point x="610" y="404" type="curve" smooth="yes"/>
      <point x="772" y="1120" type="line"/>
      <point x="342" y="1120" type="line"/>
      <point x="313" y="976" type="line"/>
      <point x="559" y="976" type="line"/>
      <point x="426" y="408" type="line" smooth="yes"/>
      <point x="415" y="363"/>
      <point x="407" y="285"/>
      <point x="407" y="252" type="curve" smooth="yes"/>
      <point x="407" y="80"/>
      <point x="518" y="-4"/>
      <point x="749" y="-4" type="curve" smooth="yes"/>
      <point x="956" y="-4" type="line"/>
    </contour>
  </outline>
</glyph>
<glyph name="eth" format="1">
  <advance width="1233"/>
  <unicode hex="00F0"/>
  <note>
	eth
  </note>
  <outline>
    <contour>
      <point x="610" y="-29"/>
      <point x="695" y="-9"/>
      <point x="771" y="31" type="curve" smooth="yes"/>
      <point x="846" y="71"/>
      <point x="905" y="126"/>
      <point x="961" y="207" type="curve" smooth="yes"/>
      <point x="1054" y="344"/>
      <point x="1106" y="525"/>
      <point x="1106" y="701" type="curve" smooth="yes"/>
      <point x="1106" y="912"/>
      <point x="1034" y="1100"/>
      <point x="870" y="1327" type="curve"/>
      <point x="1130" y="1407" type="line"/>
      <point x="1102" y="1499" type="line"/>
      <point x="815" y="1411" type="line"/>
      <point x="711" y="1556" type="line"/>
      <point x="498" y="1556" type="line"/>
      <point x="639" y="1356" type="line"/>
      <point x="365" y="1270" type="line"/>
      <point x="395" y="1178" type="line"/>
      <point x="692" y="1272" type="line"/>
      <point x="711" y="1246" type="line"/>
      <point x="729" y="1219" type="line" smooth="yes"/>
      <point x="740" y="1203"/>
      <point x="747" y="1194"/>
      <point x="748" y="1191" type="curve"/>
      <point x="760" y="1171" type="line" smooth="yes"/>
      <point x="777" y="1142"/>
      <point x="792" y="1115"/>
      <point x="805" y="1090" type="curve"/>
      <point x="772" y="1093" type="line"/>
      <point x="732" y="1097" type="line"/>
      <point x="725" y="1098"/>
      <point x="713" y="1098"/>
      <point x="697" y="1098" type="curve" smooth="yes"/>
      <point x="620" y="1098"/>
      <point x="533" y="1077"/>
      <point x="458" y="1037" type="curve" smooth="yes"/>
      <point x="380" y="996"/>
      <point x="316" y="938"/>
      <point x="266" y="864" type="curve" smooth="yes"/>
      <point x="225" y="804"/>
      <point x="182" y="721"/>
      <point x="157" y="637" type="curve" smooth="yes"/>
      <point x="132" y="554"/>
      <point x="119" y="471"/>
      <point x="119" y="389" type="curve" smooth="yes"/>
      <point x="119" y="254"/>
      <point x="150" y="154"/>
      <point x="221" y="79" type="curve" smooth="yes"/>
      <point x="289" y="7"/>
      <point x="387" y="-29"/>
      <point x="516" y="-29" type="curve" smooth="yes"/>
    </contour>
    <contour>
      <point x="463" y="127"/>
      <point x="406" y="152"/>
      <point x="370" y="192" type="curve" smooth="yes"/>
      <point x="329" y="237"/>
      <point x="313" y="303"/>
      <point x="313" y="398" type="curve" smooth="yes"/>
      <point x="313" y="533"/>
      <point x="351" y="685"/>
      <point x="424" y="789" type="curve" smooth="yes"/>
      <point x="493" y="889"/>
      <point x="591" y="944"/>
      <point x="714" y="944" type="curve" smooth="yes"/>
      <point x="772" y="944"/>
      <point x="825" y="932"/>
      <point x="874" y="907" type="curve"/>
      <point x="899" y="860"/>
      <point x="911" y="799"/>
      <point x="911" y="702" type="curve" smooth="yes"/>
      <point x="911" y="537"/>
      <point x="877" y="395"/>
      <point x="806" y="288" type="curve" smooth="yes"/>
      <point x="735" y="183"/>
      <point x="641" y="127"/>
      <point x="534" y="127" type="curve" smooth="yes"/>
    </contour>
  </outline>
</glyph>
<glyph name="ntilde" format="1">
  <advance width="1233"/>
  <unicode hex="00F1"/>
  <note>
	ntilde
  </note>
  <outline>
    <contour>
      <point x="1010" y="1297"/>
      <point x="1086" y="1397"/>
      <point x="1110" y="1581" type="curve"/>
      <point x="985" y="1581" type="line"/>
      <point x="980" y="1530"/>
      <point x="970" y="1491"/>
      <point x="953" y="1465" type="curve" smooth="yes"/>
      <point x="938" y="1441"/>
      <point x="915" y="1426"/>
      <point x="888" y="1426" type="curve" smooth="yes"/>
      <point x="865" y="1426"/>
      <point x="846" y="1439"/>
      <point x="836" y="1447" type="curve" smooth="yes"/>
      <point x="831" y="1451"/>
      <point x="824" y="1457"/>
      <point x="817" y="1465" type="curve"/>
      <point x="770" y="1512" type="line" smooth="yes"/>
      <point x="721" y="1563"/>
      <point x="679" y="1581"/>
      <point x="622" y="1581" type="curve" smooth="yes"/>
      <point x="502" y="1581"/>
      <point x="422" y="1479"/>
      <point x="401" y="1299" type="curve"/>
      <point x="526" y="1299" type="line"/>
      <point x="537" y="1406"/>
      <point x="568" y="1452"/>
      <point x="621" y="1452" type="curve" smooth="yes"/>
      <point x="649" y="1452"/>
      <point x="669" y="1440"/>
      <point x="694" y="1415" type="curve" smooth="yes"/>
      <point x="741" y="1366" type="line" smooth="yes"/>
      <point x="789" y="1317"/>
      <point x="833" y="1297"/>
      <point x="890" y="1297" type="curve" smooth="yes"/>
    </contour>
    <contour>
      <point x="268" y="0" type="line"/>
      <point x="391" y="633" type="line" smooth="yes"/>
      <point x="435" y="857"/>
      <point x="558" y="987"/>
      <point x="730" y="987" type="curve" smooth="yes"/>
      <point x="788" y="987"/>
      <point x="832" y="973"/>
      <point x="863" y="944" type="curve" smooth="yes"/>
      <point x="895" y="915"/>
      <point x="909" y="876"/>
      <point x="909" y="817" type="curve" smooth="yes"/>
      <point x="909" y="800"/>
      <point x="908" y="785"/>
      <point x="905" y="771" type="curve"/>
      <point x="894" y="709" type="line"/>
      <point x="893" y="706"/>
      <point x="893" y="704"/>
      <point x="893" y="704" type="curve"/>
      <point x="894" y="704"/>
      <point x="893" y="701"/>
      <point x="891" y="695" type="curve"/>
      <point x="756" y="0" type="line"/>
      <point x="940" y="0" type="line"/>
      <point x="1075" y="694" type="line" smooth="yes"/>
      <point x="1091" y="777"/>
      <point x="1096" y="825"/>
      <point x="1096" y="877" type="curve" smooth="yes"/>
      <point x="1096" y="958"/>
      <point x="1070" y="1028"/>
      <point x="1019" y="1075" type="curve" smooth="yes"/>
      <point x="968" y="1123"/>
      <point x="898" y="1147"/>
      <point x="807" y="1147" type="curve" smooth="yes"/>
      <point x="734" y="1147"/>
      <point x="677" y="1131"/>
      <point x="618" y="1098" type="curve" smooth="yes"/>
      <point x="558" y="1065"/>
      <point x="504" y="1016"/>
      <point x="455" y="952" type="curve"/>
      <point x="467" y="1120" type="line"/>
      <point x="303" y="1120" type="line"/>
      <point x="84" y="0" type="line"/>
    </contour>
  </outline>
</glyph>
<glyph name="odieresis" format="1">
  <advance width="1233"/>
  <unicode hex="00F6"/>
  <note>
	odieresis
  </note>
  <outline>
    <contour>
      <point x="612" y="1350" type="line" smooth="yes"/>
      <point x="631" y="1350"/>
      <point x="641" y="1359"/>
      <point x="644" y="1377" type="curve" smooth="yes"/>
      <point x="672" y="1519" type="line" smooth="yes"/>
      <point x="676" y="1539"/>
      <point x="665" y="1552"/>
      <point x="645" y="1552" type="curve" smooth="yes"/>
      <point x="502" y="1552" type="line" smooth="yes"/>
      <point x="484" y="1552"/>
      <point x="473" y="1543"/>
      <point x="470" y="1525" type="curve" smooth="yes"/>
      <point x="442" y="1383" type="line" smooth="yes"/>
      <point x="438" y="1363"/>
      <point x="449" y="1350"/>
      <point x="469" y="1350" type="curve" smooth="yes"/>
    </contour>
    <contour>
      <point x="1003" y="1350" type="line" smooth="yes"/>
      <point x="1022" y="1350"/>
      <point x="1032" y="1359"/>
      <point x="1035" y="1377" type="curve" smooth="yes"/>
      <point x="1063" y="1519" type="line" smooth="yes"/>
      <point x="1067" y="1539"/>
      <point x="1056" y="1552"/>
      <point x="1036" y="1552" type="curve" smooth="yes"/>
      <point x="893" y="1552" type="line" smooth="yes"/>
      <point x="875" y="1552"/>
      <point x="864" y="1543"/>
      <point x="861" y="1525" type="curve" smooth="yes"/>
      <point x="833" y="1383" type="line" smooth="yes"/>
      <point x="829" y="1363"/>
      <point x="840" y="1350"/>
      <point x="860" y="1350" type="curve" smooth="yes"/>
    </contour>
    <contour>
      <point x="604" y="-29"/>
      <point x="689" y="-9"/>
      <point x="766" y="30" type="curve" smooth="yes"/>
      <point x="841" y="69"/>
      <point x="901" y="124"/>
      <point x="958" y="207" type="curve" smooth="yes"/>
      <point x="1005" y="276"/>
      <point x="1044" y="358"/>
      <point x="1073" y="453" type="curve" smooth="yes"/>
      <point x="1100" y="546"/>
      <point x="1114" y="637"/>
      <point x="1114" y="726" type="curve" smooth="yes"/>
      <point x="1114" y="865"/>
      <point x="1080" y="969"/>
      <point x="1012" y="1040" type="curve" smooth="yes"/>
      <point x="943" y="1112"/>
      <point x="841" y="1147"/>
      <point x="717" y="1147" type="curve" smooth="yes"/>
      <point x="530" y="1147"/>
      <point x="383" y="1068"/>
      <point x="274" y="910" type="curve" smooth="yes"/>
      <point x="174" y="765"/>
      <point x="117" y="568"/>
      <point x="117" y="396" type="curve" smooth="yes"/>
      <point x="117" y="120"/>
      <point x="253" y="-29"/>
      <point x="510" y="-29" type="curve" smooth="yes"/>
    </contour>
    <contour>
      <point x="465" y="127"/>
      <point x="408" y="148"/>
      <point x="369" y="191" type="curve" smooth="yes"/>
      <point x="329" y="236"/>
      <point x="313" y="303"/>
      <point x="313" y="402" type="curve" smooth="yes"/>
      <point x="313" y="561"/>
      <point x="354" y="713"/>
      <point x="422" y="820" type="curve" smooth="yes"/>
      <point x="494" y="934"/>
      <point x="587" y="991"/>
      <point x="702" y="991" type="curve" smooth="yes"/>
      <point x="772" y="991"/>
      <point x="826" y="970"/>
      <point x="864" y="927" type="curve" smooth="yes"/>
      <point x="904" y="882"/>
      <point x="920" y="817"/>
      <point x="920" y="718" type="curve" smooth="yes"/>
      <point x="920" y="562"/>
      <point x="883" y="407"/>
      <point x="812" y="298" type="curve" smooth="yes"/>
      <point x="743" y="189"/>
      <point x="648" y="127"/>
      <point x="533" y="127" type="curve" smooth="yes"/>
    </contour>
  </outline>
</glyph>
<glyph name="oslash" format="1">
  <advance width="1233"/>
  <unicode hex="00F8"/>
  <note>
	oslash
  </note>
  <outline>
    <contour>
      <point x="258" y="45" type="line"/>
      <point x="326" y="-4"/>
      <point x="410" y="-29"/>
      <point x="507" y="-29" type="curve" smooth="yes"/>
      <point x="604" y="-29"/>
      <point x="691" y="-9"/>
      <point x="766" y="30" type="curve" smooth="yes"/>
      <point x="841" y="69"/>
      <point x="901" y="124"/>
      <point x="958" y="207" type="curve" smooth="yes"/>
      <point x="1055" y="351"/>
      <point x="1114" y="549"/>
      <point x="1114" y="726" type="curve" smooth="yes"/>
      <point x="1114" y="850"/>
      <point x="1094" y="924"/>
      <point x="1051" y="989" type="curve"/>
      <point x="1174" y="1135" type="line"/>
      <point x="1081" y="1212" type="line"/>
      <point x="969" y="1075" type="line"/>
      <point x="905" y="1123"/>
      <point x="828" y="1147"/>
      <point x="724" y="1147" type="curve" smooth="yes"/>
      <point x="531" y="1147"/>
      <point x="387" y="1075"/>
      <point x="274" y="912" type="curve" smooth="yes"/>
      <point x="177" y="773"/>
      <point x="119" y="578"/>
      <point x="119" y="391" type="curve" smooth="yes"/>
      <point x="119" y="286"/>
      <point x="136" y="201"/>
      <point x="176" y="133" type="curve"/>
      <point x="47" y="-20" type="line"/>
      <point x="139" y="-96" type="line"/>
    </contour>
    <contour>
      <point x="319" y="302" type="line"/>
      <point x="318" y="304"/>
      <point x="318" y="308"/>
      <point x="318" y="314" type="curve"/>
      <point x="315" y="340" type="line"/>
      <point x="314" y="357"/>
      <point x="313" y="373"/>
      <point x="313" y="388" type="curve" smooth="yes"/>
      <point x="313" y="557"/>
      <point x="353" y="711"/>
      <point x="422" y="820" type="curve" smooth="yes"/>
      <point x="491" y="931"/>
      <point x="586" y="991"/>
      <point x="701" y="991" type="curve" smooth="yes"/>
      <point x="764" y="991"/>
      <point x="808" y="978"/>
      <point x="852" y="938" type="curve"/>
    </contour>
    <contour>
      <point x="473" y="127"/>
      <point x="414" y="149"/>
      <point x="377" y="186" type="curve"/>
      <point x="911" y="825" type="line"/>
      <point x="918" y="800"/>
      <point x="920" y="769"/>
      <point x="920" y="725" type="curve" smooth="yes"/>
      <point x="920" y="554"/>
      <point x="880" y="407"/>
      <point x="811" y="299" type="curve" smooth="yes"/>
      <point x="739" y="184"/>
      <point x="647" y="127"/>
      <point x="534" y="127" type="curve" smooth="yes"/>
    </contour>
  </outline>
</glyph>
